<svg xmlns="http://www.w3.org/2000/svg" xmlns:xlink="http://www.w3.org/1999/xlink" fill="none" version="1.1" width="508" height="286" viewBox="0 0 508 286"><defs><clipPath id="master_svg0_276_04914"><rect x="0" y="0" width="508" height="286" rx="15"/></clipPath></defs><g clip-path="url(#master_svg0_276_04914)"><rect x="0" y="0" width="508" height="286" rx="15" fill="#27343E" fill-opacity="1"/><g><path d="M178.89499999999998,146.0986Q179.799,146.0986,180.55200000000002,146.75119999999998Q181.30599999999998,147.4038,181.708,148.458Q182.11,149.5121,181.959,150.8675Q181.808,152.2229,180.804,153.7289Q178.79399999999998,156.7408,175.83100000000002,161.3591Q172.86700000000002,165.9774,168.3465,171.4993Q167.0405,173.1057,165.83499999999998,173.7081Q164.6294,174.31040000000002,163.1225,174.1096Q161.51510000000002,173.90890000000002,160.611,172.70409999999998Q159.7068,171.4993,158.1999,169.9933Q155.9898,167.7846,153.93040000000002,165.124Q151.8709,162.4635,150.1631,160.00369999999998Q148.4552,157.54399999999998,147.24970000000002,155.6364Q146.0442,153.7288,145.6423,153.02609999999999Q144.6377,151.5201,144.487,150.2149Q144.3364,148.9097,144.688,148.0062Q145.0396,147.1026,145.6926,146.6006Q146.3456,146.0986,147.0488,146.0986L157.29579999999999,146.0986Q157.29579999999999,138.7696,154.3322,131.59109999999998Q151.36860000000001,124.4126,145.8433,118.8908Q140.71980000000002,113.7705,134.0894,111.3107Q127.4589,108.851,120.5272,108.9514Q113.5954,109.0517,107.0152,111.6621Q100.435,114.2724,95.3115,119.3927Q90.188,124.513,87.3249,131.3401Q84.46170000000001,138.1672,84.1604,145.3958Q83.859,152.6245,86.21979999999999,159.4013Q88.5806,166.1782,93.8046,171.0977Q98.4258,175.3144,103.047,177.7742Q107.6682,180.2339,112.08840000000001,181.3383Q116.5087,182.4427,120.5272,182.3423Q124.54560000000001,182.2419,127.911,181.43869999999998Q131.2765,180.63549999999998,133.8884,179.2801Q136.5004,177.9248,138.0073,176.5192Q140.41840000000002,175.11360000000002,143.1308,175.01319999999998Q145.8433,174.9128,147.85250000000002,177.0212Q150.364,179.53109999999998,149.6608,182.1917Q148.95749999999998,184.85219999999998,146.54649999999998,187.2618Q145.4414,188.3662,144.035,188.96859999999998Q137.40460000000002,193.6873,129.66910000000001,195.1932Q121.9336,196.699,114.0977,195.394Q106.26169999999999,194.0888,98.8276,190.2235Q91.3935,186.3582,85.4663,180.43470000000002Q78.23317,173.2061,74.61659,164.12Q71.000000239526,155.034,71,145.5464Q70.999999760474,136.0588,74.66682,126.9226Q78.33363,117.7864,85.5668,110.5577Q92.8,103.32905,101.8917,99.66453Q110.9834,96.00000263314,120.4769,96Q129.97050000000002,95.99999736686,139.11239999999998,99.66453Q148.2543,103.32906,155.4875,110.5577Q159.5059,114.5736,162.2686,119.0915Q165.0312,123.6094,166.6889,128.278Q168.3465,132.94650000000001,169.0497,137.5146Q169.7529,142.0827,169.7529,146.0986L178.89499999999998,146.0986ZM127.8608,145.8978Q127.8608,148.5082,126.05250000000001,150.3655Q124.2442,152.2229,121.6322,152.2229Q119.0202,152.2229,117.1617,150.3655Q115.3032,148.5082,115.3032,145.8978L115.3032,127.023Q115.3032,124.4126,117.1617,122.6055Q119.0202,120.7983,121.6322,120.7983Q124.2442,120.7983,126.05250000000001,122.6055Q127.8608,124.4126,127.8608,127.023L127.8608,145.8978ZM121.6322,158.4476Q124.2442,158.4476,126.05250000000001,160.3049Q127.8608,162.16230000000002,127.8608,164.7726Q127.8608,167.38299999999998,126.05250000000001,169.1901Q124.2442,170.9973,121.6322,170.9973Q119.0202,170.9973,117.1617,169.1901Q115.3032,167.38299999999998,115.3032,164.7726Q115.3032,162.16230000000002,117.1617,160.3049Q119.0202,158.4476,121.6322,158.4476Z" fill="#55A4F1" fill-opacity="1" style="mix-blend-mode:passthrough"/></g><g><path d="M169.74150305175783,137.40810305175782Q170.3920030517578,141.6339030517578,170.4480030517578,145.39860305175782L178.8950030517578,145.39860305175782Q180.0600030517578,145.39860305175782,181.01100305175783,146.2221030517578Q181.8970030517578,146.9899030517578,182.36200305175782,148.20860305175782Q182.8240030517578,149.42110305175783,182.65500305175783,150.94490305175782Q182.48500305175781,152.46960305175782,181.38600305175783,154.1173030517578Q179.3800030517578,157.12460305175782,176.42000305175782,161.7371030517578Q173.4350030517578,166.3893030517578,168.8881030517578,171.9427030517578Q167.4884030517578,173.6644030517578,166.14780305175782,174.3342030517578Q164.7500030517578,175.0327030517578,163.03000305175783,174.80350305175782Q161.1336030517578,174.5666030517578,160.05110305175782,173.12420305175783Q159.17690305175782,171.95930305175781,157.70510305175782,170.48850305175782Q155.4634030517578,168.2482030517578,153.3768030517578,165.5525030517578Q151.3064030517578,162.8778030517578,149.5881030517578,160.40300305175782Q147.87170305175783,157.9308030517578,146.65800305175782,156.0104030517578Q145.4617030517578,154.1174030517578,145.0466030517578,153.39440305175782Q143.96070305175783,151.75910305175782,143.7917030517578,150.29520305175782Q143.6211030517578,148.81760305175783,144.03560305175782,147.75230305175782Q144.4581030517578,146.66670305175782,145.26590305175782,146.0456030517578Q146.1076030517578,145.39860305175782,147.04880305175783,145.39860305175782L156.58890305175782,145.39860305175782Q156.4540030517578,138.5651030517578,153.6852030517578,131.8582030517578Q150.7749030517578,124.80900305175781,145.34840305175783,119.38590305175781Q140.33300305175783,114.37360305175781,133.84590305175783,111.96700305175781Q127.33820305175782,109.55280305175782,120.53730305175782,109.65130305175781Q113.73400305175781,109.74980305175781,107.27330305175781,112.31280305175781Q100.82750305175782,114.86980305175781,95.80630305175781,119.88790305175782Q90.78030305175781,124.91080305175781,87.97040305175781,131.6108030517578Q85.15590305175782,138.32190305175783,84.85980305175781,145.4250030517578Q84.56390305175782,152.52020305175782,86.88080305175781,159.17110305175783Q89.18530305175781,165.7861030517578,94.28450305175781,170.5881030517578Q98.83250305175781,174.73790305175783,103.3759030517578,177.15630305175782Q107.9214030517578,179.5757030517578,112.25810305175781,180.6592030517578Q116.58620305175782,181.7405030517578,120.50970305175781,181.6425030517578Q124.45450305175781,181.5440030517578,127.74850305175781,180.75780305175783Q131.03040305175782,179.9746030517578,133.5660030517578,178.65880305175781Q136.09300305175782,177.3476030517578,137.5299030517578,176.00730305175782L137.58710305175782,175.9539030517578L137.65480305175782,175.91450305175783Q140.21730305175782,174.4206030517578,143.10490305175782,174.3137030517578Q146.1284030517578,174.2018030517578,148.35320305175782,176.5320030517578Q151.14280305175782,179.3239030517578,150.3375030517578,182.37060305175783Q149.5860030517578,185.2138030517578,147.0413030517578,187.75690305175783Q145.8684030517578,188.92900305175783,144.38060305175782,189.5816030517578Q137.6519030517578,194.35230305175781,129.80280305175782,195.8800030517578Q121.94320305175782,197.41000305175783,113.98270305175781,196.0850030517578Q106.03740305175782,194.7611030517578,98.50470305175782,190.84460305175782Q90.97490305175782,186.92950305175782,84.97150305175781,180.9298030517578Q77.63616305175782,173.59910305175782,73.96621305175782,164.37890305175782Q70.30000305175781,155.1682030517578,70.30000305175781,145.5464030517578Q70.30000305175781,135.92350305175782,74.01719305175781,126.6619030517578Q77.7373930517578,117.39260305175782,85.07200305175782,110.06260305175782Q92.4060030517578,102.73311305175781,101.63000305175781,99.01528305175782Q110.84760305175782,95.30000656842782,120.47690305175782,95.30000305175781Q130.1056030517578,95.30000036954782,139.3728030517578,99.01478305175782Q148.64780305175782,102.73266305175781,155.9823030517578,110.06260305175782Q160.05970305175782,114.13740305175781,162.8658030517578,118.72640305175781Q165.66650305175781,123.30650305175782,167.3485030517578,128.0437030517578Q169.0283030517578,132.77460305175782,169.74150305175783,137.40810305175782ZM178.8950030517578,146.79860305175782L169.05290305175782,146.79860305175782L169.05290305175782,146.0986030517578Q169.05290305175782,142.1362030517578,168.3578030517578,137.6211030517578Q167.6647030517578,133.1184030517578,166.0292030517578,128.5122030517578Q164.39600305175782,123.91240305175782,161.6714030517578,119.45670305175781Q158.95210305175783,115.00990305175782,154.99270305175781,111.05280305175782Q147.86090305175782,103.92551305175782,138.8519030517578,100.31427305175781Q129.83540305175782,96.70000305175782,120.47690305175782,96.70000305175782Q111.1191030517578,96.70000305175782,102.1534030517578,100.3137730517578Q93.19390305175781,103.92499305175781,86.06160305175781,111.05280305175782Q78.92987305175781,118.18010305175781,75.31645305175782,127.1833030517578Q71.70000305175782,136.19400305175782,71.70000305175782,145.5464030517578Q71.70000305175782,154.89980305175783,75.26696305175781,163.8612030517578Q78.83010305175782,172.81290305175781,85.9612030517578,179.9396030517578Q91.81200305175781,185.78680305175783,99.15050305175781,189.60240305175782Q106.48630305175782,193.4167030517578,114.21270305175781,194.70350305175782Q121.9239030517578,195.9880030517578,129.5353030517578,194.5061030517578Q137.12210305175782,193.0292030517578,143.6291030517578,188.39820305175783L143.6903030517578,188.3547030517578L143.75940305175783,188.32510305175782Q145.0419030517578,187.77570305175783,146.0516030517578,186.76670305175782Q148.3290030517578,184.4907030517578,148.9840030517578,182.01280305175783Q149.58430305175781,179.7416030517578,147.3576030517578,177.5163030517578L147.35160305175782,177.51030305175783L147.34570305175782,177.5041030517578Q145.5541030517578,175.62400305175782,143.1567030517578,175.71280305175782Q140.65630305175782,175.80530305175782,138.42560305175783,177.0859030517578Q136.85750305175782,178.5281030517578,134.2108030517578,179.9015030517578Q131.5226030517578,181.2964030517578,128.07350305175783,182.1196030517578Q124.63650305175781,182.9398030517578,120.5446030517578,183.0421030517578Q116.43120305175782,183.14480305175783,111.9188030517578,182.0174030517578Q107.41520305175781,180.8923030517578,102.71810305175782,178.39210305175783Q98.01910305175781,175.89100305175782,93.32470305175781,171.6073030517578Q87.97600305175781,166.57030305175783,85.55880305175782,159.6316030517578Q83.15400305175781,152.7287030517578,83.46100305175781,145.3667030517578Q83.76760305175782,138.01240305175781,86.67930305175781,131.0694030517578Q89.59580305175781,124.11530305175782,94.81670305175781,118.89760305175781Q100.04250305175782,113.67510305175782,106.75710305175781,111.01140305175781Q113.45670305175781,108.3537030517578,120.51700305175781,108.25140305175782Q127.5797030517578,108.1491030517578,134.33280305175782,110.65440305175781Q141.1065030517578,113.16730305175781,146.3381030517578,118.39560305175782Q151.96230305175783,124.0164030517578,154.9792030517578,131.3240030517578Q157.99580305175783,138.63080305175782,157.99580305175783,146.0986030517578L157.99580305175783,146.79860305175782L147.04880305175783,146.79860305175782Q146.58350305175782,146.79860305175782,146.1192030517578,147.15560305175782Q145.6211030517578,147.5385030517578,145.34030305175781,148.26000305175782Q145.0516030517578,149.0019030517578,145.18240305175783,150.1346030517578Q145.3137030517578,151.27210305175782,146.2247030517578,152.63760305175782L146.2380030517578,152.6577030517578L146.2500030517578,152.67860305175782Q146.6442030517578,153.3680030517578,147.84140305175782,155.26250305175782Q149.0389030517578,157.15720305175782,150.73810305175783,159.60450305175783Q152.4357030517578,162.04950305175782,154.4839030517578,164.69560305175781Q156.51600305175782,167.32080305175782,158.6947030517578,169.4982030517578Q160.23680305175782,171.03930305175783,161.17090305175782,172.28390305175782Q161.8967030517578,173.2511030517578,163.21500305175783,173.4158030517578Q164.5088030517578,173.58820305175783,165.52210305175782,173.08190305175782Q166.59250305175783,172.54700305175783,167.8048030517578,171.0559030517578Q172.3000030517578,165.56510305175783,175.24200305175782,160.98110305175783Q178.20800305175783,156.3582030517578,180.2210030517578,153.34040305175782Q181.13100305175783,151.9762030517578,181.2630030517578,150.79020305175783Q181.3950030517578,149.60320305175782,181.05400305175783,148.7073030517578Q180.71500305175783,147.81760305175783,180.0940030517578,147.2803030517578Q179.5380030517578,146.79860305175782,178.8950030517578,146.79860305175782ZM128.56080305175783,127.02300305175781L128.56080305175783,145.89780305175782Q128.56080305175783,148.79260305175782,126.5540030517578,150.8538030517578Q124.53960305175781,152.92290305175783,121.63220305175781,152.92290305175783Q118.7304030517578,152.92290305175783,116.66690305175781,150.8606030517578Q114.60320305175782,148.7982030517578,114.60320305175782,145.89780305175782L114.60320305175782,127.02300305175781Q114.60320305175782,124.11690305175782,116.67370305175781,122.10360305175782Q118.73600305175782,120.09830305175781,121.63220305175781,120.09830305175781Q124.53400305175782,120.09830305175781,126.54730305175781,122.11030305175781Q128.56080305175783,124.1226030517578,128.56080305175783,127.02300305175781ZM127.16080305175781,127.02300305175781Q127.16080305175781,124.70270305175781,125.55770305175781,123.10060305175782Q123.95440305175782,121.49830305175782,121.63220305175781,121.49830305175782Q119.30450305175782,121.49830305175782,117.64970305175781,123.10730305175781Q116.00320305175782,124.70830305175781,116.00320305175782,127.02300305175781L116.00320305175782,145.89780305175782Q116.00320305175782,148.21810305175782,117.65650305175781,149.87040305175782Q119.3101030517578,151.52290305175782,121.63220305175781,151.52290305175782Q123.9487030517578,151.52290305175782,125.55090305175781,149.87720305175782Q127.16080305175781,148.2237030517578,127.16080305175781,145.89780305175782L127.16080305175781,127.02300305175781ZM116.66690305175781,159.8098030517578Q118.7304030517578,157.7476030517578,121.63220305175781,157.7476030517578Q124.53970305175781,157.7476030517578,126.5540030517578,159.8166030517578Q128.56080305175783,161.8778030517578,128.56080305175783,164.7726030517578Q128.56080305175783,167.6730030517578,126.54730305175781,169.6853030517578Q124.53400305175782,171.6973030517578,121.63220305175781,171.6973030517578Q118.73600305175782,171.6973030517578,116.67370305175781,169.6920030517578Q114.60320305175782,167.6787030517578,114.60320305175782,164.7726030517578Q114.60320305175782,161.87220305175782,116.66690305175781,159.8098030517578ZM117.65650305175781,160.8000030517578Q116.00320305175782,162.4524030517578,116.00320305175782,164.7726030517578Q116.00320305175782,167.08730305175783,117.64970305175781,168.68830305175783Q119.30450305175782,170.2973030517578,121.63220305175781,170.2973030517578Q123.95440305175782,170.2973030517578,125.55770305175781,168.6950030517578Q127.16080305175781,167.09290305175782,127.16080305175781,164.7726030517578Q127.16080305175781,162.4468030517578,125.55090305175781,160.7932030517578Q123.9488030517578,159.1476030517578,121.63220305175781,159.1476030517578Q119.3100030517578,159.1476030517578,117.65650305175781,160.8000030517578Z" fill-rule="evenodd" fill="#27343E" fill-opacity="1"/></g></g></svg>