<?xml version="1.0" encoding="utf-8"?>
<!-- Generator: Adobe Illustrator 26.0.1, SVG Export Plug-In . SVG Version: 6.00 Build 0)  -->
<svg version="1.1" id="图层_1" xmlns="http://www.w3.org/2000/svg" xmlns:xlink="http://www.w3.org/1999/xlink" x="0px" y="0px"
	 viewBox="0 0 480.9 357.4" style="enable-background:new 0 0 480.9 357.4;" xml:space="preserve">
<style type="text/css">
	.st0{fill:#FFFFFF;}
	.st1{fill:none;stroke:#000000;stroke-width:0.709;stroke-linecap:round;stroke-linejoin:round;stroke-miterlimit:10;}
	.st2{fill:none;stroke:#000000;stroke-width:1.2;stroke-miterlimit:10;}
	.st3{fill:none;stroke:#000000;stroke-width:1.2;stroke-miterlimit:10;stroke-dasharray:10.2001,10.2001;}
	.st4{fill:none;stroke:#000000;stroke-width:1.2;stroke-miterlimit:10;stroke-dasharray:9.5898,9.5898;}
	.st5{font-family:'SourceHanSansCN-Medium-GBpc-EUC-H';}
	.st6{font-size:10px;}
</style>
<rect class="st0" width="480.9" height="357.4"/>
<g>
	<line class="st1" x1="226.8" y1="128" x2="226.9" y2="126.9"/>
	<line class="st1" x1="225.6" y1="135.1" x2="225.9" y2="133.6"/>
	<line class="st1" x1="222.7" y1="141" x2="223.1" y2="140.4"/>
	<line class="st1" x1="173.9" y1="127.4" x2="173.8" y2="127.3"/>
	<line class="st1" x1="175.1" y1="135.1" x2="174.7" y2="133.4"/>
	<line class="st1" x1="226.8" y1="128.1" x2="226.8" y2="127"/>
	<polyline class="st1" points="176.9,89.7 176.9,97.2 176.8,104.7 176.7,108.5 176.5,112.2 176.3,114.7 176.1,117 175.8,119.3 
		175.5,120.8 175.2,122.2 174.9,123.4 174.6,124.4 174.3,125.4 174.1,126.2 174,126.6 173.9,127.3 173.9,127.7 173.9,127.8 	"/>
	<polyline class="st1" points="226.8,127.9 226.8,127.7 226.8,127.3 226.7,126.6 226.6,126.2 226.4,125.4 226.1,124.4 225.8,123.4 
		225.5,122.2 225.2,120.8 224.9,119.3 224.6,117 224.4,114.7 224.2,112.2 224,108.5 223.9,104.7 223.9,97.2 223.9,89.7 	"/>
	<polyline class="st1" points="176.8,89.7 176.8,89.7 176.9,89.7 	"/>
	<polyline class="st1" points="176.9,89.7 177.4,89.7 178.3,89.7 179.5,89.7 181,89.7 182.7,89.7 184.5,89.7 186.5,89.7 188.5,89.7 
		191.4,89.7 194.3,89.7 197.3,89.7 200.2,89.7 203.1,89.7 205.8,89.7 209.6,89.7 213,89.7 216,89.7 218.6,89.7 220.6,89.7 
		222.2,89.7 223.3,89.7 223.7,89.7 	"/>
	<polyline class="st1" points="202.5,14.7 201.5,15.4 198.4,17.8 195.4,20.5 192.6,23.4 190,26.5 187,30.8 184.4,35.3 182.3,39.8 
		180.6,44.5 179.3,49.2 178.2,54.1 177.6,58 177.2,62.1 176.9,66.4 176.7,70.8 176.6,76.5 	"/>
	<line class="st1" x1="237" y1="52.5" x2="236.8" y2="52.6"/>
	<line class="st1" x1="238.1" y1="52.2" x2="238" y2="52.2"/>
	<polyline class="st1" points="246.8,47.2 244.5,49.1 243.6,49.6 	"/>
	<line class="st1" x1="273.6" y1="50.5" x2="273.6" y2="50.5"/>
	<line class="st1" x1="248.7" y1="100.2" x2="248.7" y2="100.2"/>
	<line class="st1" x1="298.4" y1="100.2" x2="298.4" y2="100.2"/>
	<line class="st1" x1="298.4" y1="81.8" x2="298.4" y2="85"/>
	<line class="st1" x1="248.6" y1="81.8" x2="248.7" y2="85"/>
	<line class="st1" x1="295" y1="220.1" x2="295" y2="220"/>
	<line class="st1" x1="295" y1="220" x2="295" y2="220"/>
	<line class="st1" x1="252" y1="220" x2="252" y2="220"/>
	<line class="st1" x1="252.9" y1="225.9" x2="252.8" y2="225.9"/>
	<line class="st1" x1="294.2" y1="225.9" x2="294.3" y2="225.9"/>
	<line class="st1" x1="252.1" y1="217.7" x2="252.1" y2="218.6"/>
	<line class="st1" x1="294.9" y1="217.6" x2="295" y2="218.6"/>
	<line class="st1" x1="252.5" y1="212.9" x2="252.4" y2="214.3"/>
	<line class="st1" x1="294.5" y1="212.9" x2="294.7" y2="214.3"/>
	<line class="st1" x1="248.8" y1="143.1" x2="248.8" y2="142.4"/>
	<polyline class="st1" points="252.4,214.3 252.6,211.4 252.8,208.5 252.9,205.5 253,198.5 	"/>
	<polyline class="st1" points="294.7,214.3 294.5,211.4 294.3,208.4 294.1,205.4 294,198.5 	"/>
	<line class="st1" x1="273.7" y1="241.5" x2="273.6" y2="241.5"/>
	<polyline class="st1" points="302,200 301.7,200.1 301.4,200.1 300.8,200.2 300.1,200.3 299.2,200.7 	"/>
	<polyline class="st1" points="168.2,316.3 168.2,316.3 168.2,316.6 168.2,317 168.2,317.6 168.2,318.4 168.2,319.3 168.2,320.3 
		168.2,321.3 168.2,322.4 	"/>
	<polyline class="st1" points="168.2,322.4 168.2,323.5 168.2,324.6 168.2,325.6 168.2,326.5 168.2,327.2 168.2,327.8 168.2,328.3 
		168.2,328.5 168.2,328.6 	"/>
	<polyline class="st1" points="227,273.8 227,273.8 226.9,273.8 226.5,273.8 226,273.8 225.3,273.8 224.4,273.8 223.3,273.8 
		222.1,273.8 220.7,273.8 219.1,273.8 217.4,273.8 215.6,273.8 213.6,273.8 211.6,273.8 209.5,273.8 207.3,273.8 205.1,273.8 
		202.8,273.8 200.5,273.8 198.2,273.8 195.9,273.8 193.7,273.8 191.5,273.8 189.4,273.8 187.3,273.8 185.4,273.8 183.5,273.8 
		181.8,273.8 180.2,273.8 	"/>
	<polyline class="st1" points="180.2,273.8 178.8,273.8 177.5,273.8 176.4,273.8 175.5,273.8 174.8,273.8 174.2,273.8 173.9,273.8 
		173.7,273.8 	"/>
	<polyline class="st1" points="165.7,331.4 165.8,331.4 166.1,331.4 166.5,331.4 167.2,331.4 168.1,331.4 169.1,331.4 170.4,331.4 
		171.8,331.4 173.4,331.4 175.1,331.4 177,331.4 178.9,331.4 181.1,331.4 183.3,331.4 185.6,331.4 188,331.4 190.5,331.4 
		193.1,331.4 195.6,331.4 198.3,331.4 200.9,331.4 203.5,331.4 206.1,331.4 208.7,331.4 211.2,331.4 213.6,331.4 216,331.4 
		218.3,331.4 220.5,331.4 222.6,331.4 224.5,331.4 226.3,331.4 228,331.4 229.5,331.4 230.8,331.4 232,331.4 233,331.4 233.8,331.4 
		234.4,331.4 234.8,331.4 235,331.4 235,331.4 	"/>
	<polyline class="st1" points="165.7,336.9 165.7,336.9 165.9,336.9 166.3,336.9 166.9,336.9 167.6,336.9 168.6,336.9 169.7,336.9 
		171.1,336.9 172.5,336.9 174.2,336.9 	"/>
	<polyline class="st1" points="174.2,336.9 176,336.9 177.9,336.9 180,336.9 182.2,336.9 184.4,336.9 186.8,336.9 189.3,336.9 
		191.8,336.9 194.3,336.9 196.9,336.9 199.6,336.9 202.2,336.9 204.8,336.9 207.4,336.9 209.9,336.9 212.4,336.9 214.9,336.9 
		217.2,336.9 219.4,336.9 221.6,336.9 223.6,336.9 225.5,336.9 227.2,336.9 228.8,336.9 230.2,336.9 231.5,336.9 232.5,336.9 
		233.4,336.9 234.1,336.9 234.6,336.9 234.9,336.9 235,336.9 	"/>
	<polyline class="st1" points="165.1,331.9 165.2,331.9 165.5,331.9 166,331.9 166.7,331.9 167.6,331.9 168.6,331.9 169.9,331.9 
		171.3,331.9 172.8,331.9 174.5,331.9 176.4,331.9 178.4,331.9 180.5,331.9 182.7,331.9 	"/>
	<polyline class="st1" points="182.7,331.9 185.1,331.9 187.5,331.9 190,331.9 192.5,331.9 195.1,331.9 197.7,331.9 200.3,331.9 
		203,331.9 205.6,331.9 208.2,331.9 210.8,331.9 213.2,331.9 215.6,331.9 218,331.9 220.2,331.9 222.3,331.9 224.3,331.9 
		226.2,331.9 227.9,331.9 229.5,331.9 230.9,331.9 232.1,331.9 233.2,331.9 234,331.9 234.7,331.9 235.2,331.9 235.5,331.9 
		235.6,331.9 	"/>
	<polyline class="st1" points="165.1,336.4 165.2,336.4 165.5,336.4 166,336.4 166.7,336.4 167.6,336.4 168.6,336.4 169.9,336.4 
		171.3,336.4 172.8,336.4 174.5,336.4 176.4,336.4 178.4,336.4 180.5,336.4 182.7,336.4 185.1,336.4 187.5,336.4 190,336.4 
		192.5,336.4 195.1,336.4 197.7,336.4 200.3,336.4 203,336.4 205.6,336.4 208.2,336.4 210.8,336.4 213.2,336.4 215.6,336.4 
		218,336.4 220.2,336.4 222.3,336.4 224.3,336.4 226.2,336.4 227.9,336.4 229.5,336.4 230.9,336.4 	"/>
	<polyline class="st1" points="230.9,336.4 232.1,336.4 233.2,336.4 234,336.4 234.7,336.4 235.2,336.4 235.5,336.4 235.6,336.4 	
		"/>
	<polyline class="st1" points="218.1,273.6 219.8,273.6 221.3,273.6 222.7,273.6 223.9,273.6 224.9,273.6 225.7,273.6 226.3,273.6 
		226.7,273.6 227,273.6 227,273.6 	"/>
	<polyline class="st1" points="227.2,253.2 227.2,253.2 226.9,253.2 226.5,253.2 225.9,253.2 225,253.2 224,253.2 222.8,253.2 
		221.4,253.2 219.9,253.2 218.2,253.2 	"/>
	<line class="st1" x1="218" y1="273.8" x2="218.1" y2="273.6"/>
	<polyline class="st1" points="173.7,273.6 173.7,273.6 173.9,273.6 174.3,273.6 174.8,273.6 175.6,273.6 176.6,273.6 177.7,273.6 
		179,273.6 180.5,273.6 182.1,273.6 183.9,273.6 185.7,273.6 187.8,273.6 189.8,273.6 192,273.6 194.3,273.6 196.6,273.6 
		198.8,273.6 201.2,273.6 203.5,273.6 205.8,273.6 208.1,273.6 210.2,273.6 212.4,273.6 214.4,273.6 216.3,273.6 218.1,273.6 	"/>
	<polyline class="st1" points="218.2,253.2 216.4,253.2 214.5,253.2 212.5,253.2 210.3,253.2 208.1,253.2 205.8,253.2 203.5,253.2 
		201.2,253.2 198.8,253.2 196.5,253.2 194.2,253.2 192,253.2 189.8,253.2 187.7,253.2 185.7,253.2 183.8,253.2 182,253.2 
		180.3,253.2 178.9,253.2 177.5,253.2 176.4,253.2 175.5,253.2 174.7,253.2 174.1,253.2 173.7,253.2 173.5,253.2 	"/>
	<polyline class="st1" points="173.3,252.6 173.5,252.6 174.2,252.6 175.5,252.6 177.3,252.6 	"/>
	<polyline class="st1" points="223.4,252.6 225.2,252.6 226.5,252.6 227.2,252.6 227.4,252.6 	"/>
	<polyline class="st1" points="177.3,252.6 179.8,252.6 182.8,252.6 185.9,252.6 189.5,252.6 	"/>
	<polyline class="st1" points="211.3,252.6 215,252.6 218.3,252.6 221,252.6 223.4,252.6 	"/>
	<polyline class="st1" points="189.5,252.6 192.1,252.6 194.9,252.6 197.6,252.6 200.3,252.6 	"/>
	<polyline class="st1" points="200.3,252.6 203.2,252.6 206.1,252.6 208.7,252.6 211.3,252.6 	"/>
	<polyline class="st1" points="250,43.5 250,43.5 251.3,41.6 252.3,39.6 253.2,37.6 253.9,35.5 254.5,33.3 254.8,31.1 254.9,28.9 
		254.9,26.7 254.6,24.5 254.1,22.3 253.5,20.1 252.6,18.1 251.6,16.1 250.4,14.2 249,12.5 247.5,10.8 245.8,9.4 244,8 242.1,6.8 
		240.1,5.8 238.1,5 235.9,4.4 235.6,4.3 	"/>
	<polyline class="st1" points="173.8,126.9 173.8,127.1 173.8,127.3 173.8,127.9 173.8,128.9 173.8,130.3 173.8,132.3 173.7,134.6 
		173.7,137 173.6,141.1 173.6,145.2 173.6,149.2 173.5,153.2 173.5,157.3 	"/>
	<line class="st1" x1="173.8" y1="126.9" x2="173.8" y2="126.9"/>
	<line class="st1" x1="226.9" y1="126.9" x2="226.9" y2="126.9"/>
	<polyline class="st1" points="226.9,126.9 226.9,127 226.9,127.3 226.9,127.8 226.9,128.8 226.9,130.1 227,131.9 227,134.2 
		227,136.7 227,140.8 227.1,144.9 227.2,149 227.2,153.1 227.2,157.3 	"/>
	<polyline class="st1" points="226.9,126.9 226.9,127.2 226.8,127.6 226.8,128 226.8,128.1 	"/>
	<line class="st1" x1="173.9" y1="126.3" x2="173.8" y2="126.9"/>
	<polyline class="st1" points="173.8,126.9 173.8,127 173.8,127.5 173.9,127.9 173.9,128 173.9,128.1 	"/>
	<polyline class="st1" points="173.5,157.3 173.4,164.1 173.4,171 173.3,177.9 173.3,180.5 173.3,183.1 173.2,184 	"/>
	<polyline class="st1" points="227.2,157.3 227.3,164.3 227.4,171.2 227.4,178.1 227.4,180.7 227.4,183.3 227.4,184.5 227.4,184.7 	
		"/>
	<polyline class="st1" points="173.9,126.3 173.8,127 173.9,128.1 	"/>
	<line class="st1" x1="173.9" y1="127.8" x2="173.9" y2="127.9"/>
	<line class="st1" x1="226.8" y1="128.1" x2="226.8" y2="127.9"/>
	<line class="st1" x1="176.7" y1="89.7" x2="176.8" y2="89.7"/>
	<line class="st1" x1="223.7" y1="89.7" x2="223.9" y2="89.7"/>
	<polyline class="st1" points="250.5,42.7 252.3,39.8 253.8,35.9 254.7,31.8 254.9,27.6 254.4,23.5 253.2,19.4 251.3,15.7 
		248.8,12.2 245.8,9.4 242.3,6.9 238.6,5.2 234.5,4.1 233.3,4 	"/>
	<polyline class="st1" points="176.6,76.5 176.6,77 176.7,83.3 176.7,89.7 	"/>
	<line class="st1" x1="204.5" y1="13.4" x2="202.5" y2="14.7"/>
	<polyline class="st1" points="221.1,5.4 221,5.4 221,5.4 220.8,5.5 	"/>
	<polyline class="st1" points="298.1,100.9 298.1,100.9 298,100.9 297.6,100.9 297.1,100.9 	"/>
	<polyline class="st1" points="297.3,119.4 297.9,119.4 298.2,119.4 298.4,119.4 	"/>
	<polyline class="st1" points="298.7,119.1 298.7,119.1 298.5,119.1 298.2,119.1 297.6,119.1 	"/>
	<polyline class="st1" points="298.4,101.1 298.4,101.1 298.2,101.1 297.9,101.1 297.3,101.1 	"/>
	<polyline class="st1" points="297.1,100.9 296.3,100.9 295.4,100.9 294.3,100.9 293,100.9 291.6,100.9 290,100.9 288.3,100.9 
		286.5,100.9 284.6,100.9 282.6,100.9 280.5,100.9 278.4,100.9 276.2,100.9 274,100.9 271.8,100.9 269.6,100.9 267.4,100.9 
		265.3,100.9 263.3,100.9 261.3,100.9 259.4,100.9 257.7,100.9 256.1,100.9 254.6,100.9 253.3,100.9 252.1,100.9 251.1,100.9 
		250.3,100.9 249.6,100.9 249.2,100.9 249,100.9 248.9,100.9 	"/>
	<line class="st1" x1="297.3" y1="101.1" x2="297.1" y2="100.9"/>
	<polyline class="st1" points="297.3,101.1 296.6,101.1 295.7,101.1 294.5,101.1 293.3,101.1 291.9,101.1 290.2,101.1 288.5,101.1 
		286.7,101.1 284.8,101.1 282.7,101.1 280.6,101.1 278.4,101.1 276.2,101.1 274,101.1 271.8,101.1 269.5,101.1 267.4,101.1 
		265.2,101.1 263.1,101.1 261.2,101.1 259.3,101.1 257.5,101.1 255.9,101.1 254.4,101.1 253,101.1 251.9,101.1 250.8,101.1 
		250,101.1 249.4,101.1 248.9,101.1 248.7,101.1 248.7,101.1 	"/>
	<polyline class="st1" points="248.7,119.4 248.7,119.4 248.9,119.4 249.4,119.4 250,119.4 250.8,119.4 251.9,119.4 253,119.4 
		254.4,119.4 255.9,119.4 257.5,119.4 259.3,119.4 261.2,119.4 263.1,119.4 265.2,119.4 267.4,119.4 269.5,119.4 271.8,119.4 
		274,119.4 276.2,119.4 278.4,119.4 280.6,119.4 282.7,119.4 284.8,119.4 286.7,119.4 288.5,119.4 290.2,119.4 291.8,119.4 
		293.3,119.4 294.5,119.4 295.6,119.4 296.6,119.4 297.3,119.4 	"/>
	<line class="st1" x1="297.3" y1="119.4" x2="297.6" y2="119.1"/>
	<polyline class="st1" points="297.6,119.1 296.9,119.1 295.9,119.1 294.8,119.1 293.5,119.1 292.1,119.1 290.4,119.1 288.7,119.1 
		286.8,119.1 284.9,119.1 282.8,119.1 280.7,119.1 278.5,119.1 276.2,119.1 274,119.1 271.7,119.1 269.5,119.1 267.3,119.1 
		265.1,119.1 263,119.1 261,119.1 259.1,119.1 257.3,119.1 255.7,119.1 254.1,119.1 252.8,119.1 251.6,119.1 250.6,119.1 
		249.8,119.1 249.1,119.1 248.7,119.1 248.4,119.1 248.4,119.1 	"/>
	<polyline class="st1" points="254.5,33.1 254.2,34.7 254.1,35.2 253.9,35.8 253.7,36.4 253.6,37 253.3,37.6 253.1,38.1 252.9,38.6 
		252.6,39.4 252.3,40 251.9,40.7 251.5,41.5 250.4,43.2 249.3,44.5 248.1,46 246.8,47.2 	"/>
	<polyline class="st1" points="253.5,20.1 253.9,21.4 254.3,22.9 254.6,24.2 254.8,25.8 254.9,27.4 254.9,28.1 	"/>
	<line class="st1" x1="240.9" y1="6.2" x2="240.9" y2="6.2"/>
	<polyline class="st1" points="264.9,52 265,51.9 265.9,51.6 266.3,51.5 	"/>
	<line class="st1" x1="248.7" y1="85" x2="248.7" y2="85"/>
	<line class="st1" x1="298.4" y1="85" x2="298.4" y2="85"/>
	<polyline class="st1" points="248.7,100.2 248.7,92.6 248.7,85 	"/>
	<polyline class="st1" points="248.7,100.7 248.8,100.7 249.1,100.7 249.6,100.7 	"/>
	<line class="st1" x1="248.7" y1="100.7" x2="248.7" y2="100.2"/>
	<polyline class="st1" points="297.5,100.7 297.8,100.7 298.2,100.7 298.4,100.7 	"/>
	<line class="st1" x1="298.4" y1="100.7" x2="298.4" y2="100.2"/>
	<polyline class="st1" points="298.4,100.2 298.4,92.6 298.4,85 	"/>
	<line class="st1" x1="298.4" y1="81.7" x2="298.4" y2="81.8"/>
	<line class="st1" x1="248.6" y1="81.7" x2="248.6" y2="81.8"/>
	<polyline class="st1" points="249.6,100.7 249.9,100.7 250.7,100.7 251.7,100.7 253.9,100.7 256.8,100.7 259.7,100.7 263,100.7 	
		"/>
	<polyline class="st1" points="284.1,100.7 285.1,100.7 287,100.7 288.9,100.7 291.9,100.7 294.5,100.7 296.2,100.7 297.5,100.7 	
		"/>
	<line class="st1" x1="268" y1="51" x2="267.9" y2="51"/>
	<line class="st1" x1="279.1" y1="51" x2="279.1" y2="51"/>
	<line class="st1" x1="276.7" y1="50.7" x2="276.7" y2="50.7"/>
	<polyline class="st1" points="273.6,100.7 273.7,100.7 273.8,100.7 273.9,100.7 274.1,100.7 274.2,100.7 274.4,100.7 274.5,100.7 
		274.7,100.7 	"/>
	<polyline class="st1" points="272.4,100.7 272.6,100.7 272.7,100.7 272.8,100.7 273,100.7 273.1,100.7 273.3,100.7 273.4,100.7 
		273.6,100.7 	"/>
	<polyline class="st1" points="274.2,50.5 273.9,50.5 273.6,50.5 	"/>
	<polyline class="st1" points="273.6,50.5 273.2,50.5 273,50.5 	"/>
	<polyline class="st1" points="263,100.7 264,100.7 266.1,100.7 268.3,100.7 272.4,100.7 	"/>
	<polyline class="st1" points="274.7,100.7 275.8,100.7 278,100.7 280.2,100.7 284.1,100.7 	"/>
	<polyline class="st1" points="274.7,241.4 275.7,241.4 277.8,241.1 279.8,240.5 281.8,239.9 	"/>
	<polyline class="st1" points="270,241.2 271.6,241.4 273,241.5 	"/>
	<polyline class="st1" points="273.6,119.5 269.4,119.5 265.2,119.5 261.4,119.5 257.8,119.5 254.8,119.5 252.2,119.5 250.3,119.5 
		249,119.5 248.8,119.5 	"/>
	<polyline class="st1" points="248.4,119.5 248.4,124 248.4,128 248.4,131.6 248.5,134.8 248.5,137.9 248.6,140.6 248.8,143.1 	"/>
	<polyline class="st1" points="298.7,119.5 298.7,124 298.7,128 298.6,131.6 298.6,134.8 298.6,137.9 298.4,140.6 298.3,143.1 	"/>
	<polyline class="st1" points="273.6,119.5 277.7,119.5 281.9,119.5 285.7,119.5 289.2,119.5 292.3,119.5 294.9,119.5 296.8,119.5 
		298.1,119.5 298.6,119.5 298.7,119.5 	"/>
	<polyline class="st1" points="295,220 295,220.1 295,220.2 295,220.1 	"/>
	<polyline class="st1" points="252,220 252,220.1 252,220.2 252,220 	"/>
	<polyline class="st1" points="252,220 252,219.6 252.1,218.6 	"/>
	<polyline class="st1" points="252.9,225.9 252.3,222.9 252,220 	"/>
	<polyline class="st1" points="295,220 295,219.6 295,218.6 	"/>
	<polyline class="st1" points="294.2,225.9 294.8,222.9 295,220 	"/>
	<line class="st1" x1="252.8" y1="225.9" x2="252.8" y2="225.9"/>
	<line class="st1" x1="272.4" y1="241.4" x2="273.6" y2="241.5"/>
	<line class="st1" x1="273.6" y1="241.5" x2="274.7" y2="241.4"/>
	<line class="st1" x1="294.3" y1="225.9" x2="294.3" y2="225.9"/>
	<line class="st1" x1="252.5" y1="212.5" x2="252.5" y2="212.9"/>
	<line class="st1" x1="294.5" y1="212.5" x2="294.5" y2="212.9"/>
	<line class="st1" x1="253.2" y1="195" x2="253.1" y2="195"/>
	<line class="st1" x1="248.8" y1="142.4" x2="248.8" y2="142.4"/>
	<line class="st1" x1="293.9" y1="195" x2="294" y2="195"/>
	<polyline class="st1" points="295,218.6 295,218.1 294.9,217.4 	"/>
	<polyline class="st1" points="252.1,218.6 252.1,218.1 252.1,217.4 	"/>
	<polyline class="st1" points="252.1,217.4 252.3,216 252.4,214.3 	"/>
	<polyline class="st1" points="294.9,217.4 294.8,216 294.7,214.3 	"/>
	<line class="st1" x1="253" y1="198.5" x2="253.1" y2="196.4"/>
	<polyline class="st1" points="253.1,196.4 253.1,195.7 253.1,195 	"/>
	<line class="st1" x1="253.2" y1="196.4" x2="253.1" y2="196.4"/>
	<line class="st1" x1="294" y1="198.5" x2="294" y2="196.4"/>
	<line class="st1" x1="293.9" y1="196.4" x2="294" y2="196.4"/>
	<polyline class="st1" points="294,196.4 294,195.7 294,195 	"/>
	<polyline class="st1" points="253,185.7 253,185 252.9,182.2 252.8,179.7 252.7,176.1 252.4,172.4 252.2,168.8 251.9,165.5 
		251.7,164.4 251.6,163.3 251.4,162.2 251.3,161.2 251.1,160.2 251,159.2 250.9,158.3 250.7,157 250.5,156.2 250.4,155.3 
		250.2,154.2 250,153.1 250,152.7 249.9,152.4 249.8,152.1 249.8,151.7 249.7,151.2 249.6,150.7 249.6,150.1 249.4,149.4 
		249.3,147.7 249,145.7 248.8,143.1 	"/>
	<polyline class="st1" points="294.1,185.9 294.1,185.6 294.1,185.1 294.1,184.9 294.1,184.1 294.1,183.3 294.1,182.5 294.1,181.8 
		294.2,181.1 294.2,180.4 294.2,179.8 294.2,179.2 294.3,177.2 294.4,175.9 294.5,174.7 294.5,173.5 294.6,172.4 294.7,171.3 
		294.8,170.1 294.9,169 295,168 295.2,165.7 295.4,163.6 295.7,161.5 296.1,159.1 296.4,156.8 296.8,154.7 297.1,152.6 297.5,150.4 
		297.8,148.2 298,145.8 298.3,143.1 	"/>
	<polyline class="st1" points="284.5,238.7 285.2,238.7 286.1,238.7 287.1,238.7 288.1,238.7 289.3,238.7 290.6,238.7 291.9,238.7 
		293.3,238.7 294.8,238.7 296.2,238.7 	"/>
	<polyline class="st1" points="296.5,242 300,242 303.5,242 307,242 310.4,242 313.8,242 317,242 320.1,242 323,242 325.7,242 
		328.2,242 330.4,242 332.4,242 334.1,242 335.4,242 336.5,242 337.3,242 337.7,242 337.8,242 	"/>
	<polyline class="st1" points="296.5,256.6 300,256.6 303.5,256.6 307,256.6 310.4,256.6 313.8,256.6 317,256.6 320.1,256.6 
		323,256.6 325.7,256.6 328.2,256.6 330.4,256.6 332.4,256.6 334.1,256.6 335.4,256.6 336.5,256.6 337.3,256.6 337.7,256.6 
		337.8,256.6 	"/>
	<line class="st1" x1="273.7" y1="241.5" x2="273.7" y2="241.5"/>
	<line class="st1" x1="296.2" y1="238.7" x2="296.2" y2="270.6"/>
	<path class="st1" d="M299.2,200.7l-0.7,0.4l-0.5,0.4l-0.5,0.5l-0.5,0.8l-0.4,1l-0.1,0.5l-0.1,0.5l-0.1,0.5l-0.1,0.7
		c0,0-0.3,1.1-1.9,1"/>
	<polyline class="st1" points="316,199.8 314.3,199.8 312.5,199.8 310.9,199.8 309.4,199.8 308.1,199.8 307.3,199.8 306.8,199.8 
		306.6,199.8 	"/>
	<line class="st1" x1="302.1" y1="200" x2="302" y2="200"/>
	<polyline class="st1" points="325.3,199.8 325.3,199.8 325.1,199.8 324.6,199.8 323.8,199.8 322.6,199.8 321.1,199.8 319.4,199.8 
		317.6,199.8 316,199.8 	"/>
	<line class="st1" x1="333.3" y1="273.4" x2="332.8" y2="273.9"/>
	<line class="st1" x1="333.3" y1="270.6" x2="333.3" y2="273.4"/>
	<line class="st1" x1="333.3" y1="273.4" x2="333.3" y2="273.4"/>
	<line class="st1" x1="332.8" y1="273.9" x2="333.3" y2="273.4"/>
	<line class="st1" x1="298.6" y1="273.4" x2="299.1" y2="273.9"/>
	<polyline class="st1" points="299.1,273.9 299.5,273.9 300.1,273.9 300.9,273.9 301.8,273.9 302.9,273.9 304.2,273.9 305.6,273.9 
		307.2,273.9 308.8,273.9 310.5,273.9 312.3,273.9 314.1,273.9 316,273.9 317.8,273.9 319.6,273.9 321.4,273.9 323.1,273.9 
		324.8,273.9 326.3,273.9 327.7,273.9 329,273.9 330.1,273.9 331.1,273.9 331.8,273.9 332.4,273.9 332.8,273.9 	"/>
	<line class="st1" x1="298.6" y1="270.6" x2="298.6" y2="273.4"/>
	<polyline class="st1" points="298.6,273.4 299,273.4 299.6,273.4 300.4,273.4 301.4,273.4 302.5,273.4 303.8,273.4 305.3,273.4 
		306.8,273.4 308.5,273.4 310.3,273.4 312.2,273.4 314,273.4 316,273.4 317.8,273.4 319.7,273.4 321.6,273.4 323.4,273.4 
		325.1,273.4 326.6,273.4 328.1,273.4 329.4,273.4 330.5,273.4 331.5,273.4 332.4,273.4 333,273.4 333.3,273.4 	"/>
	<line class="st1" x1="333.3" y1="273.4" x2="333.3" y2="270.6"/>
	<polyline class="st1" points="296.2,270.6 297.2,270.6 298.3,270.6 299.5,270.6 300.9,270.6 302.5,270.6 304.2,270.6 306,270.6 
		307.9,270.6 309.8,270.6 311.9,270.6 313.9,270.6 316,270.6 318,270.6 320.1,270.6 322.1,270.6 324.1,270.6 326,270.6 327.7,270.6 
		329.4,270.6 331,270.6 332.4,270.6 333.7,270.6 334.8,270.6 335.7,270.6 336.4,270.6 337,270.6 337.3,270.6 337.5,270.6 	"/>
	<polyline class="st1" points="296.6,270.3 297.7,270.3 298.9,270.3 300.2,270.3 301.7,270.3 303.4,270.3 305.1,270.3 306.9,270.3 
		308.9,270.3 310.8,270.3 312.9,270.3 314.9,270.3 317,270.3 319.1,270.3 321.1,270.3 323.1,270.3 325,270.3 326.8,270.3 
		328.6,270.3 330.2,270.3 331.7,270.3 333.1,270.3 334.3,270.3 335.3,270.3 336.2,270.3 336.9,270.3 337.4,270.3 337.6,270.3 
		337.8,270.3 	"/>
	<line class="st1" x1="173.7" y1="316.3" x2="168.2" y2="316.3"/>
	<line class="st1" x1="168.2" y1="328.6" x2="173.7" y2="328.6"/>
	<line class="st1" x1="227" y1="331.4" x2="227" y2="273.8"/>
	<line class="st1" x1="173.7" y1="273.8" x2="173.7" y2="331.4"/>
	<line class="st1" x1="165.7" y1="331.4" x2="165.1" y2="331.9"/>
	<line class="st1" x1="235.6" y1="331.9" x2="235" y2="331.4"/>
	<line class="st1" x1="235" y1="336.9" x2="235.6" y2="336.4"/>
	<line class="st1" x1="165.1" y1="336.4" x2="165.7" y2="336.9"/>
	<line class="st1" x1="235.6" y1="336.4" x2="235.6" y2="331.9"/>
	<line class="st1" x1="165.1" y1="331.9" x2="165.1" y2="336.4"/>
	<line class="st1" x1="226.8" y1="273.8" x2="227" y2="273.6"/>
	<polyline class="st1" points="227,273.6 227,269.7 227,266.2 227,263.3 227,261 227.1,259.1 227.1,257.6 227.1,256.5 227.2,255.3 
		227.2,254.4 227.2,253.7 227.2,253.2 	"/>
	<line class="st1" x1="173.7" y1="273.6" x2="173.9" y2="273.8"/>
	<polyline class="st1" points="173.5,253.2 173.5,253.7 173.6,254.5 173.6,255.3 173.6,256.6 173.6,258.3 173.6,259.8 173.6,261.7 
		173.7,264 173.7,266.7 173.7,270 173.7,273.6 	"/>
	<polyline class="st1" points="173.8,127.5 173.8,127.5 173.8,128.5 173.8,129.5 173.8,130.8 173.8,132.3 173.8,134.2 173.8,136.3 
		173.7,138.9 173.7,142 173.6,145.7 173.6,149.7 173.5,154.2 	"/>
	<line class="st1" x1="173.9" y1="126.7" x2="173.8" y2="127.3"/>
	<line class="st1" x1="222.8" y1="141.1" x2="223" y2="140.8"/>
	<polyline class="st1" points="173.6,157.3 173.5,173.3 173.5,187.4 173.4,199.7 173.4,210.4 173.4,220 173.3,228.5 173.3,232.3 
		173.3,235.7 173.3,239.3 173.3,246.4 173.3,250.5 173.3,252.7 	"/>
	<polyline class="st1" points="227.4,252.6 227.4,251.3 227.4,246.3 227.4,241 227.4,236.7 227.4,232.6 227.4,228.5 227.4,224.4 
		227.4,219.3 227.4,212.7 227.4,204.4 227.3,194.8 227.3,183.4 227.3,170.4 	"/>
	<polyline class="st1" points="173.9,127.9 173.9,128.7 174.4,132.3 175.4,135.7 176.8,139 178.7,142.1 181,144.9 182.9,146.7 
		185,148.4 187.3,149.9 189.8,151.1 192.3,152.1 194.9,152.7 197.6,153.2 200.3,153.3 203,153.2 205.7,152.8 208.3,152.1 
		210.9,151.2 213.3,149.9 215.6,148.5 217.7,146.8 219.7,145 222,142.2 223.9,139.1 225.3,135.8 226.3,132.3 226.8,128.8 
		226.8,127.9 	"/>
	<polyline class="st1" points="202.5,14.7 200.4,16.2 197,19 194,21.9 191.2,25 188.7,28.1 186.6,31.3 184.4,35.1 182.6,38.9 
		181,42.7 179.8,46.5 178.9,50.3 178,55 177.3,59.8 177,64.6 176.8,69.5 176.6,76.3 176.6,76.5 	"/>
	<polyline class="st1" points="222.1,5 221.8,5.2 221.3,5.3 220.6,5.6 219.7,6 218.6,6.4 217.5,6.8 216.5,7.3 215.5,7.7 214.4,8.2 
		213,8.8 211.3,9.6 209.3,10.6 206.9,11.9 204.2,13.5 	"/>
	<polyline class="st1" points="223.6,4.6 223.3,4.7 222.9,4.7 222.3,5 	"/>
	<polyline class="st1" points="223.7,89.7 223.8,86.5 223.7,83.5 223.7,81.3 223.6,79.4 223.6,77.6 223.7,75.8 223.8,74 224,72.2 
		224.2,70.3 224.5,68.4 225,66.5 225.5,64.8 226.2,63.2 226.9,61.7 227.8,60 228.8,58.6 229.6,57.6 230,57 230.6,56.5 231.3,55.8 
		231.9,55.3 233.2,54.4 234.4,53.7 235.5,53.1 236.7,52.7 237.9,52.3 239.1,51.9 239.6,51.7 240.2,51.4 240.8,51.2 241.5,50.9 
		242.4,50.3 243.3,49.8 244.1,49.3 244.7,48.9 245.4,48.4 246.2,47.7 247,46.9 247.8,46.2 248.6,45.3 249.4,44.3 250.2,43.2 
		250.6,42.7 	"/>
	<polyline class="st1" points="233.4,4 231.6,3.8 228.6,3.8 225.7,4.1 222.8,4.8 	"/>
	<line class="st1" x1="298.4" y1="101.1" x2="298.1" y2="100.9"/>
	<line class="st1" x1="298.4" y1="119.4" x2="298.7" y2="119.1"/>
	<polyline class="st1" points="298.7,119.1 298.7,116.8 298.7,114.6 298.6,112.3 298.6,110.1 298.6,107.8 298.5,105.6 298.5,103.4 
		298.4,101.1 	"/>
	<line class="st1" x1="248.9" y1="100.9" x2="248.7" y2="101.1"/>
	<polyline class="st1" points="248.7,101.1 248.6,103.4 248.5,105.6 248.5,107.8 248.4,110.1 248.4,112.3 248.4,114.6 248.4,116.8 
		248.4,119.1 	"/>
	<line class="st1" x1="248.4" y1="119.1" x2="248.7" y2="119.4"/>
	<polyline class="st1" points="268.2,33.9 265,30.4 262.2,27.3 259.6,24.4 257.5,22 255.6,20 254.2,18.3 253,17.1 252.2,16.1 
		251.6,15.4 251.2,15 250.9,14.6 250.4,14 249.8,13.3 249.5,13 249.3,12.7 249.1,12.5 249,12.5 	"/>
	<polyline class="st1" points="231.7,66.9 234.5,69.9 236.9,72.7 239.2,75 241,77 242.6,78.6 243.8,79.8 244.8,80.8 245.7,81.7 
		246.8,82.9 248.2,84.3 248.7,84.7 	"/>
	<polyline class="st1" points="226.9,61.6 228.1,63 231.7,66.9 	"/>
	<polyline class="st1" points="289.4,55.9 289.4,55.8 289.2,55.6 288.8,55.3 288.2,54.7 287.6,54.2 287.1,53.7 286.3,52.9 285.3,52 
		284.2,50.9 282.9,49.6 281.3,47.9 279.3,45.9 276.9,43.5 274.3,40.7 271.4,37.5 268.2,33.9 	"/>
	<polyline class="st1" points="238.4,5.2 237.4,4.8 236.7,4.6 	"/>
	<line class="st1" x1="239.2" y1="5.4" x2="238.6" y2="5.3"/>
	<polyline class="st1" points="258.5,55.4 256.1,57.4 254,59.7 252.4,62.1 251.2,64.4 250.7,65.5 	"/>
	<polyline class="st1" points="271.1,50.6 271,50.6 270.9,50.6 	"/>
	<line class="st1" x1="248.7" y1="100.2" x2="248.7" y2="100.7"/>
	<polyline class="st1" points="248.7,85 248.7,92.6 248.7,100.2 	"/>
	<polyline class="st1" points="298.4,85 298.4,84 298.4,81.8 	"/>
	<polyline class="st1" points="248.6,81.8 248.6,84 248.7,85 	"/>
	<line class="st1" x1="298.4" y1="100.7" x2="298.4" y2="100.2"/>
	<polyline class="st1" points="298.4,100.2 298.4,92.6 298.4,85 	"/>
	<line class="st1" x1="285.8" y1="100.9" x2="285.8" y2="100.7"/>
	<line class="st1" x1="261.3" y1="100.7" x2="261.3" y2="100.9"/>
	<line class="st1" x1="297.8" y1="71" x2="297.8" y2="70.5"/>
	<polyline class="st1" points="298.4,81.7 298.4,80.7 298.4,80 298.4,79.5 298.4,78.3 298.4,77.5 298.4,76.3 298.3,75.1 298.2,74.2 
		298.1,73.1 298,72 297.9,71.2 297.8,70.3 297.7,69.6 297.5,68.9 297.4,68.4 297.2,67.7 296.9,66.6 296.5,65.6 296.1,64.7 
		295.4,63.1 294.4,61.5 294,60.9 293.6,60.3 293.4,60.1 293.1,59.7 292.7,59.2 292.1,58.5 	"/>
	<polyline class="st1" points="249.3,70.5 249.3,70.5 249.3,70.7 249.2,71 	"/>
	<polyline class="st1" points="254.9,58.5 254.4,59.2 253.9,59.7 253.4,60.4 253,61.1 252.4,61.9 251.9,62.8 251.4,63.8 250.9,64.7 
		250.6,65.6 250.2,66.6 249.9,67.7 249.7,68.4 249.6,68.9 249.4,69.6 249.3,70.3 249.1,71.4 249,72.5 248.9,73.9 248.8,75.1 
		248.7,76.2 248.7,77.3 248.7,78.1 248.7,78.7 248.6,79.5 248.6,80 248.6,80.7 248.6,81.7 	"/>
	<polyline class="st1" points="268,51 266.5,51.4 265,51.9 263.4,52.5 261.7,53.4 259.9,54.4 258.2,55.6 256.5,57 254.9,58.5 	"/>
	<polyline class="st1" points="292.1,58.5 291.3,57.6 290.7,57.1 290.3,56.7 289.8,56.3 289.4,55.9 288.9,55.6 287.6,54.6 
		286.3,53.9 285.5,53.4 284.8,53 284,52.7 283.3,52.3 282.7,52.1 282.2,52 281.5,51.7 280.5,51.4 279.1,51 	"/>
	<polyline class="st1" points="270.4,50.7 270,50.7 269.8,50.7 269.6,50.7 269.6,50.8 269.5,50.8 269.4,50.8 269.3,50.8 269.2,50.8 
		268.8,50.9 268,51 	"/>
	<polyline class="st1" points="279.1,51 278.6,50.9 278.3,50.9 278.2,50.9 278.1,50.9 278.1,50.9 278,50.9 277.9,50.8 277.3,50.7 
		276.7,50.7 	"/>
	<polyline class="st1" points="272.8,50.5 272.4,50.5 272.2,50.5 272,50.5 272,50.5 271.9,50.5 271.8,50.5 271.7,50.5 271.5,50.5 
		271.2,50.6 270.4,50.7 	"/>
	<polyline class="st1" points="276.7,50.7 276.2,50.6 275.9,50.6 275.8,50.5 275.8,50.5 275.7,50.5 275.6,50.5 275.6,50.5 
		275.3,50.5 274.9,50.5 274.2,50.5 	"/>
	<polyline class="st1" points="274.2,50.5 273.7,50.5 273.6,50.5 	"/>
	<polyline class="st1" points="273.6,50.5 273.5,50.5 273.3,50.5 272.8,50.5 	"/>
	<line class="st1" x1="259.9" y1="119.4" x2="259.9" y2="119.5"/>
	<line class="st1" x1="287.2" y1="119.5" x2="287.2" y2="119.4"/>
	<polyline class="st1" points="248.8,119.5 248.7,122.3 248.7,125 248.7,127.4 248.6,129.3 248.6,130.8 248.5,131.9 248.5,132.8 
		248.4,133.3 	"/>
	<polyline class="st1" points="298.6,133.3 298.6,132.8 298.6,131.9 298.5,130.8 298.4,129.3 298.4,127.4 298.3,125 298.3,122.3 
		298.3,119.5 	"/>
	<polyline class="st1" points="295,221.4 295,220.7 295,219.9 	"/>
	<polyline class="st1" points="294.3,225.9 294.5,225.1 294.7,224.3 294.8,223.6 294.9,223 294.9,222.4 295,221.8 295,221.6 	"/>
	<polyline class="st1" points="295,220.1 295,219.2 295,218.3 295,217.4 	"/>
	<polyline class="st1" points="252.1,217.5 252.1,218.3 252,219.2 252,220.1 	"/>
	<polyline class="st1" points="252.8,225.9 253.5,228.1 254.4,230.1 255.4,231.7 256.2,232.9 257,233.9 257.6,234.6 258.2,235.3 
		259.1,236 260.2,237 261.5,237.9 263.1,238.8 264.4,239.5 265.5,240 265.9,240.1 266.3,240.3 267.1,240.5 268.1,240.8 269.3,241.1 
		270.7,241.3 272.4,241.4 	"/>
	<polyline class="st1" points="274.7,241.4 276.2,241.3 277.4,241.1 278.3,241 278.8,240.8 279.5,240.7 280.5,240.4 281.7,239.9 
		283.2,239.3 284.3,238.7 285.2,238.1 286.1,237.5 286.9,237 287.8,236.2 288.7,235.4 289.8,234.2 291,232.7 292.2,230.8 
		293.4,228.5 294.3,225.9 	"/>
	<polyline class="st1" points="252.4,212.8 252.4,214 252.3,215.2 252.2,216.4 252.1,217.7 	"/>
	<polyline class="st1" points="295,217.7 294.9,216.4 294.8,215.2 294.7,214 294.6,212.8 	"/>
	<polyline class="st1" points="253.1,198.3 253.1,198.9 253.1,199.9 253.1,200.9 253.1,201.7 253.1,202.5 253,204.2 253,205.4 
		253,206.4 252.9,207.1 252.8,207.7 252.8,208.7 252.7,210.1 252.6,211.8 252.5,212.5 	"/>
	<line class="st1" x1="253.1" y1="195" x2="253.1" y2="196.4"/>
	<polyline class="st1" points="293.9,196.4 293.9,196.4 293.9,195 	"/>
	<polyline class="st1" points="294.6,212.5 294.5,211.8 294.4,210.1 294.3,208.7 294.2,207.7 294.2,207.1 294.1,206.4 294.1,205.4 
		294,204.2 294,202.5 293.9,201.8 293.9,201.1 293.9,200.3 293.9,199.4 293.9,198.6 	"/>
	<polyline class="st1" points="248.8,142.8 248.9,143.7 248.9,144.9 249.2,146.9 249.4,148.5 249.5,149.8 249.7,150.9 249.8,151.9 
		250,152.9 250.2,154 250.4,155.5 250.7,157.2 	"/>
	<polyline class="st1" points="296.6,155.9 296.7,155.2 296.9,154 297.1,152.9 297.2,151.9 297.4,150.9 297.5,149.8 297.7,148.5 
		297.9,146.9 298,146 298.1,144.9 298.2,143.7 298.3,142.8 	"/>
	<polyline class="st1" points="253.1,196.4 253.1,197.5 253.1,198.5 	"/>
	<polyline class="st1" points="294,198.5 294,197.5 293.9,196.4 	"/>
	<polyline class="st1" points="253,185.7 253,186.4 253.1,190.7 253.2,195 	"/>
	<polyline class="st1" points="293.9,195 293.9,190.7 294,186.4 294.1,185.9 	"/>
	<line class="st1" x1="337.8" y1="256.2" x2="337.8" y2="240.5"/>
	<line class="st1" x1="337.8" y1="240.1" x2="337.8" y2="220"/>
	<polyline class="st1" points="306.7,199.8 305.8,199.8 304.4,199.9 302.9,200 302,200 	"/>
	<polyline class="st1" points="337.8,220 337.8,216.4 337.7,213.3 337.7,210.7 337.5,208.4 337.3,206.4 336.7,204.3 335.9,202.7 
		334.7,201.5 333.6,200.9 332.2,200.4 330.7,200.1 329.1,200 327.5,199.9 326.1,199.8 325.2,199.8 	"/>
	<line class="st1" x1="337.5" y1="270.6" x2="337.8" y2="270.3"/>
	<line class="st1" x1="337.8" y1="270.3" x2="337.8" y2="256.9"/>
	<line class="st1" x1="295" y1="220" x2="295" y2="220"/>
</g>
<g>
	<g>
		<line class="st2" x1="200.4" y1="4.3" x2="200.4" y2="9.3"/>
		<line class="st3" x1="200.4" y1="19.5" x2="200.4" y2="340.8"/>
		<line class="st2" x1="200.4" y1="345.9" x2="200.4" y2="350.9"/>
	</g>
</g>
<g>
	<g>
		<line class="st2" x1="435" y1="336.9" x2="430" y2="336.9"/>
		<line class="st4" x1="420.4" y1="336.9" x2="233.4" y2="336.9"/>
		<line class="st2" x1="228.6" y1="336.9" x2="223.6" y2="336.9"/>
	</g>
</g>
<text transform="matrix(1 0 0 1 290.354 325.5044)" class="st5 st6">倾斜角</text>
<text transform="matrix(1 0 0 1 113.3253 154.235)" class="st5 st6">旋转角</text>
<path class="st2" d="M235,285.9c0,0,39.2,0.1,39,41.7"/>
<polyline class="st2" points="239.6,281.4 234.5,285.9 238.3,291.9 "/>
<path class="st2" d="M161.3,144.5c0,0,40.6,39,78.3,0.9"/>
<polyline class="st2" points="161,152.8 160.4,144.1 169.3,142.1 "/>
</svg>
