<?xml version="1.0" encoding="utf-8"?>
<!-- Generator: Adobe Illustrator 26.0.1, SVG Export Plug-In . SVG Version: 6.00 Build 0)  -->
<svg version="1.1" id="图层_1" xmlns="http://www.w3.org/2000/svg" xmlns:xlink="http://www.w3.org/1999/xlink" x="0px" y="0px"
	 viewBox="0 0 2037.4 645" style="enable-background:new 0 0 2037.4 645;" xml:space="preserve">
<style type="text/css">
	.st0{fill:none;stroke:#040000;stroke-width:2;stroke-linecap:round;stroke-linejoin:round;stroke-miterlimit:10;}
	.st1{fill-rule:evenodd;clip-rule:evenodd;fill:none;stroke:#231815;stroke-width:2;stroke-miterlimit:10;}
	.st2{fill:none;stroke:#F96A00;stroke-width:2;stroke-linecap:round;stroke-linejoin:round;stroke-miterlimit:10;}
</style>
<g>
	<path d="M921.5,68.2h7.1l6.3,21.9c1.4,4.8,2.4,9,3.8,13.8h0.3c1.5-4.9,2.5-9,3.9-13.8l6.2-21.9h6.8l-13.3,42.3h-7.9L921.5,68.2z"/>
	<path d="M957.2,91.9h15.2v4.9h-15.2V91.9z"/>
</g>
<g>
	<path d="M920.7,533.4h5.6v-17h-4.5V514c2.4-0.4,4.1-1,5.5-1.9h3v21.4h4.9v3.3h-14.5V533.4z"/>
</g>
<g>
	<path d="M1090.7,68.2h7.1l6.3,21.9c1.4,4.8,2.4,9,3.8,13.8h0.3c1.5-4.9,2.5-9,3.9-13.8l6.2-21.9h6.8l-13.3,42.3h-7.9L1090.7,68.2z"
		/>
	<path d="M1138.8,91.7h-11.6v-4.8h11.6V74.4h5.1v12.5h11.7v4.8h-11.7v12.4h-5.1V91.7z"/>
</g>
<g>
	<path d="M941.4,332h15.2v4.9h-15.2V332z"/>
</g>
<g>
	<path d="M1119.9,335.5h-11.6v-4.8h11.6v-12.5h5.1v12.5h11.7v4.8H1125v12.4h-5.1V335.5z"/>
</g>
<g>
	<g>
		<line class="st0" x1="1218.9" y1="564.6" x2="1354.7" y2="408.6"/>
		<line class="st0" x1="1354.7" y1="319.6" x2="1240.9" y2="189.4"/>
		<polyline class="st0" points="1354.7,408.6 1361.7,398.8 1366.9,388 1370.1,376.3 1371.1,364.1 1370.1,351.9 1366.9,340.7 
			1361.7,329.5 1354.7,319.6 		"/>
		<polyline class="st0" points="1218.9,564.6 1218.4,565 1217.9,565.5 1217.5,565.5 1217,566 1216,566.4 1215.6,566.4 1214.6,566.4 
			1214.2,566.4 		"/>
		<polyline class="st0" points="861.5,566.4 861,566.4 860.1,566.4 859.6,566.4 858.7,566 858.2,565.5 857.8,565.5 857.3,565 
			856.8,564.6 		"/>
		<line class="st0" x1="721.5" y1="408.6" x2="856.8" y2="564.6"/>
		<polyline class="st0" points="721.5,319.6 714,329.5 708.8,340.7 705.6,351.9 704.6,364.1 705.6,376.3 708.8,388 714,398.8 
			721.5,408.6 		"/>
		<line class="st0" x1="834.8" y1="189.4" x2="721.5" y2="319.6"/>
		<polyline class="st0" points="788.9,364.1 787.5,358 784.2,352.4 778.6,348.7 772.5,347.7 766,348.7 760.8,352.4 757.1,358 
			755.7,364.1 757.1,370.7 760.8,375.8 766,379.6 772.5,381 778.6,379.6 784.2,375.8 787.5,370.7 788.9,364.1 		"/>
		<polyline class="st0" points="1320,364.1 1318.6,358 1315.3,352.4 1309.7,348.7 1303.2,347.7 1297.1,348.7 1291.5,352.4 
			1288.2,358 1286.8,364.1 1288.2,370.7 1291.5,375.8 1297.1,379.6 1303.2,381 1309.7,379.6 1315.3,375.8 1318.6,370.7 1320,364.1 
					"/>
		<polyline class="st0" points="772.5,343 764.1,344.4 757.5,349.1 752.9,356.2 751,364.1 752.9,372.5 757.5,379.1 764.1,383.8 
			772.5,385.7 780.5,383.8 787.5,379.1 792.2,372.5 793.6,364.1 792.2,356.2 787.5,349.1 780.5,344.4 772.5,343 		"/>
		<line class="st0" x1="1221.2" y1="562.2" x2="1354.7" y2="408.6"/>
		<polyline class="st0" points="1210.9,566.4 1212.3,566.4 1213.7,566.4 1215.1,566 1216.5,565.5 1217.9,564.6 1218.9,564.1 
			1220.3,563.2 1221.2,562.2 		"/>
		<polyline class="st0" points="1221.2,166.5 1220.3,165.1 1218.9,164.6 1217.9,163.7 1216.5,162.7 1215.1,162.3 1213.7,162.3 
			1212.3,161.8 1210.9,161.8 		"/>
		<polyline class="st0" points="721.5,319.6 714,329.5 708.8,340.7 705.6,351.9 704.6,364.1 705.6,376.3 708.8,388 714,398.8 
			721.5,408.6 		"/>
		<polyline class="st0" points="1354.7,408.6 1361.7,398.8 1366.9,388 1370.1,376.3 1371.1,364.1 1370.1,351.9 1366.9,340.7 
			1361.7,329.5 1354.7,319.6 		"/>
		<line class="st0" x1="854.5" y1="166.5" x2="721.5" y2="319.6"/>
		<line class="st0" x1="1354.7" y1="319.6" x2="1221.2" y2="166.5"/>
		<line class="st0" x1="721.5" y1="408.6" x2="854.5" y2="562.2"/>
		<line class="st0" x1="1210.9" y1="161.8" x2="864.8" y2="161.8"/>
		<polyline class="st0" points="772.5,322.4 761.3,323.8 750.5,328.5 741.6,335.6 735.1,344.9 731.3,355.7 730.8,366.9 732.7,378.2 
			738.3,388.5 745.8,396.4 755.7,402.5 766.4,405.8 778.1,405.8 788.9,402.5 798.8,396.4 806.7,388.5 811.9,378.2 814.2,366.9 
			813.3,355.7 809.5,344.9 803,335.6 794.1,328.5 783.8,323.8 772.5,322.4 		"/>
		<polyline class="st0" points="854.5,562.2 855.4,563.2 856.8,564.1 857.8,564.6 859.2,565.5 860.6,566 862,566.4 863.4,566.4 
			864.8,566.4 		"/>
		<line class="st0" x1="864.8" y1="566.4" x2="1210.9" y2="566.4"/>
		<polyline class="st0" points="864.8,161.8 863.4,161.8 862,162.3 860.6,162.3 859.2,162.7 857.8,163.7 856.8,164.6 855.4,165.1 
			854.5,166.5 		"/>
		<polyline class="st0" points="1303.2,343 1295.2,344.4 1288.2,349.1 1284,356.2 1282.1,364.1 1284,372.5 1288.2,379.1 
			1295.2,383.8 1303.2,385.7 1311.6,383.8 1318.6,379.1 1322.8,372.5 1324.7,364.1 1322.8,356.2 1318.6,349.1 1311.6,344.4 
			1303.2,343 		"/>
		<polyline class="st0" points="1303.2,322.4 1291.9,323.8 1281.6,328.5 1272.7,335.6 1266.2,344.9 1262.4,355.7 1261.5,366.9 
			1263.8,378.2 1269.4,388.5 1276.9,396.4 1286.8,402.5 1297.5,405.8 1309.2,405.8 1320,402.5 1329.9,396.4 1337.3,388.5 
			1343,378.2 1345.3,366.9 1344.4,355.7 1340.6,344.9 1334.1,335.6 1325.2,328.5 1314.9,323.8 1303.2,322.4 		"/>
	</g>
	<path class="st1" d="M1205.6,468.8l-28.7,24.2c-3.7,3.1-8.3,4.8-13.1,4.8H913.7c-4.8,0-9.3-1.7-13-4.8l-27.3-23.2l-24.7-22.1
		c-3.9-3.5-6.2-8.6-6.2-13.8V274.2c0-17.2,13.9-31.1,31.1-31.1H1204c17.3,0,31.3,14,31.3,31.3v160c0,5.3-2.3,10.4-6.3,13.9
		L1205.6,468.8z"/>
	<path class="st1" d="M1180.7,381H890.3c-0.7,0-1.3-0.6-1.3-1.3v-92.3c0-0.7,0.6-1.3,1.3-1.3h290.4c0.7,0,1.3,0.6,1.3,1.3v92.3
		C1182,380.4,1181.4,381,1180.7,381z"/>
	<path class="st1" d="M1163.1,432.7l-18.3,15.5c-2.3,2-5.3,3.1-8.4,3.1H934.6c-3,0-6-1.1-8.3-3l-17.4-14.8L893,419.2
		c-2.5-2.2-4-5.5-4-8.8v-6.4c0-4.5,3.7-8.2,8.2-8.2h276.6c4.5,0,8.2,3.7,8.2,8.2v6.7c0,3.4-1.5,6.6-4,8.9L1163.1,432.7z"/>
	<circle class="st1" cx="949.2" cy="333.6" r="27.5"/>
	<circle class="st1" cx="927.9" cy="421.9" r="6.3"/>
	<circle class="st1" cx="969.4" cy="421.9" r="6.3"/>
	<circle class="st1" cx="1010.9" cy="421.9" r="6.3"/>
	<circle class="st1" cx="1052.4" cy="421.9" r="6.3"/>
	<circle class="st1" cx="1093.9" cy="421.9" r="6.3"/>
	<circle class="st1" cx="1135.4" cy="421.9" r="6.3"/>
	<circle class="st1" cx="1122.4" cy="333.6" r="27.5"/>
</g>
<line class="st2" x1="949.2" y1="295.2" x2="949.2" y2="132.7"/>
<line class="st2" x1="926.4" y1="486.6" x2="926.4" y2="437.3"/>
<g>
	<path d="M962.2,534.4c7.1-6.9,11.3-11.3,11.3-15.2c0-2.7-1.4-4.5-4.3-4.5c-2,0-3.6,1.3-5,2.8l-2.2-2.2c2.2-2.4,4.4-3.8,7.8-3.8
		c4.7,0,7.7,3,7.7,7.4c0,4.5-4.1,9.1-9.4,14.6c1.3-0.1,2.9-0.3,4.2-0.3h6.5v3.4h-16.4V534.4z"/>
</g>
<line class="st2" x1="969.4" y1="486.6" x2="969.4" y2="437.3"/>
<g>
	<path d="M1003.2,533.7l1.9-2.6c1.5,1.5,3.4,2.8,6,2.8c2.9,0,4.8-1.5,4.8-4c0-2.7-1.8-4.4-7.5-4.4v-3c5,0,6.7-1.8,6.7-4.2
		c0-2.2-1.5-3.6-3.9-3.6c-2,0-3.6,1-5.1,2.4l-2.1-2.5c2-1.8,4.3-3.1,7.3-3.1c4.6,0,7.8,2.3,7.8,6.4c0,2.9-1.7,4.8-4.4,5.8v0.2
		c2.9,0.7,5.2,2.9,5.2,6.2c0,4.4-3.8,7.1-8.5,7.1C1007.5,537.2,1004.9,535.6,1003.2,533.7z"/>
</g>
<line class="st2" x1="1010.9" y1="486.6" x2="1010.9" y2="437.3"/>
<g>
	<path d="M1055.4,530.2h-11v-2.7l10.1-15.5h4.6v15.1h3.2v3.1h-3.2v6.5h-3.7V530.2z M1055.4,520.8c0-1.3,0.1-3.6,0.2-5h-0.1
		c-0.6,1.2-1.3,2.4-2,3.7l-5,7.5h7V520.8z"/>
</g>
<line class="st2" x1="1052.4" y1="486.6" x2="1052.4" y2="437.3"/>
<g>
	<path d="M1086.2,533.8l1.9-2.6c1.4,1.4,3.3,2.7,6,2.7c2.8,0,5-1.9,5-5s-1.9-5-4.8-5c-1.6,0-2.6,0.5-4,1.4l-2-1.2l0.8-12.1h12.9v3.4
		h-9.4l-0.6,6.5c1.1-0.6,2.1-0.9,3.5-0.9c4.2,0,7.7,2.4,7.7,7.7c0,5.4-4.1,8.5-8.5,8.5C1090.5,537.2,1088,535.5,1086.2,533.8z"/>
</g>
<line class="st2" x1="1093.9" y1="486.6" x2="1093.9" y2="437.3"/>
<g>
	<path d="M1128.5,525.2c0-9.7,4.6-13.6,9.6-13.6c2.8,0,4.9,1.2,6.3,2.7l-2.2,2.4c-0.9-1.1-2.4-1.9-4-1.9c-3.2,0-5.9,2.4-6.1,9.7
		c1.5-1.9,3.7-3,5.5-3c4.2,0,7.2,2.5,7.2,7.6c0,4.9-3.5,8.1-7.6,8.1C1132.5,537.2,1128.5,533.3,1128.5,525.2z M1137.3,534.1
		c2.2,0,4-1.9,4-5c0-3-1.5-4.7-4.2-4.7c-1.4,0-3.2,0.8-4.7,3C1132.8,532,1134.6,534.1,1137.3,534.1z"/>
</g>
<line class="st2" x1="1135.4" y1="486.6" x2="1135.4" y2="437.3"/>
<line class="st2" x1="1122.4" y1="295.2" x2="1122.4" y2="132.7"/>
</svg>
