<svg id="图层_1" data-name="图层 1" xmlns="http://www.w3.org/2000/svg" viewBox="0 0 286.9 126.1"><defs><style>.cls-1,.cls-2{fill:none;stroke:#000;}.cls-1{stroke-linecap:round;stroke-linejoin:round;stroke-width:0.25px;}.cls-2{stroke-miterlimit:10;stroke-width:0.5px;}.cls-3{isolation:isolate;font-size:8px;font-family:SourceHanSansCN-Regular-GBpc-EUC-H, Source Han Sans CN;}.cls-4{letter-spacing:-0.01em;}</style></defs><line class="cls-1" x1="119.93" y1="87.1" x2="115.43" y2="87.3"/><line class="cls-1" x1="118.33" y1="48.1" x2="113.93" y2="48.3"/><line class="cls-1" x1="137.73" y1="101.9" x2="133.43" y2="102.1"/><line class="cls-1" x1="134.93" y1="32.3" x2="130.43" y2="32.5"/><line class="cls-1" x1="150.93" y1="23.5" x2="150.93" y2="22.7"/><line class="cls-1" x1="151.93" y1="24.3" x2="151.93" y2="24.3"/><polyline class="cls-1" points="156.63 25.1 156.03 25.1 154.63 25.1 153.13 24.7 151.93 24.3"/><line class="cls-1" x1="149.63" y1="23.5" x2="148.63" y2="24.3"/><line class="cls-1" x1="149.03" y1="21.5" x2="149.23" y2="21.4"/><line class="cls-1" x1="143.93" y1="86.5" x2="139.63" y2="86.7"/><line class="cls-1" x1="142.33" y1="47.3" x2="138.03" y2="47.5"/><line class="cls-1" x1="148.03" y1="66.8" x2="143.93" y2="67"/><line class="cls-1" x1="179.83" y1="74.4" x2="179.83" y2="74.4"/><line class="cls-1" x1="179.83" y1="74.8" x2="179.83" y2="74.8"/><line class="cls-1" x1="179.83" y1="74.6" x2="179.83" y2="74.6"/><line class="cls-1" x1="179.63" y1="74.8" x2="179.63" y2="74.8"/><line class="cls-1" x1="179.63" y1="74.6" x2="179.63" y2="74.6"/><line class="cls-1" x1="179.43" y1="74.8" x2="179.63" y2="74.8"/><line class="cls-1" x1="179.63" y1="74.8" x2="179.43" y2="74.8"/><line class="cls-1" x1="179.43" y1="74.6" x2="179.63" y2="74.6"/><line class="cls-1" x1="179.43" y1="74.4" x2="179.63" y2="74.4"/><line class="cls-1" x1="179.63" y1="74.4" x2="179.43" y2="74.4"/><line class="cls-1" x1="179.43" y1="74.2" x2="179.63" y2="74.2"/><line class="cls-1" x1="179.23" y1="77" x2="179.23" y2="77"/><line class="cls-1" x1="178.83" y1="72.1" x2="178.83" y2="72.1"/><line class="cls-1" x1="179.03" y1="77.2" x2="179.03" y2="77.2"/><line class="cls-1" x1="178.83" y1="77.2" x2="179.03" y2="77.2"/><line class="cls-1" x1="178.83" y1="76.8" x2="178.83" y2="76.8"/><line class="cls-1" x1="178.83" y1="77.2" x2="178.83" y2="77.2"/><line class="cls-1" x1="178.83" y1="77" x2="178.83" y2="77"/><line class="cls-1" x1="178.83" y1="76.8" x2="178.83" y2="76.8"/><line class="cls-1" x1="178.63" y1="72.3" x2="178.83" y2="72.3"/><line class="cls-1" x1="177.33" y1="78.9" x2="176.13" y2="78.9"/><line class="cls-1" x1="177.33" y1="71.3" x2="177.33" y2="71.3"/><line class="cls-1" x1="177.13" y1="71.3" x2="177.33" y2="71.3"/><line class="cls-1" x1="177.13" y1="70.9" x2="177.13" y2="70.9"/><line class="cls-1" x1="177.13" y1="70.7" x2="177.13" y2="70.7"/><line class="cls-1" x1="177.13" y1="70.7" x2="177.13" y2="70.7"/><polyline class="cls-1" points="177.33 79.1 177.33 79.1 177.33 78.9"/><line class="cls-1" x1="177.33" y1="78.3" x2="176.13" y2="78.3"/><line class="cls-1" x1="176.13" y1="78.9" x2="176.13" y2="78.9"/><line class="cls-1" x1="176.13" y1="78.5" x2="176.13" y2="78.5"/><line class="cls-1" x1="175.53" y1="71.1" x2="175.53" y2="71.1"/><line class="cls-1" x1="175.33" y1="70.9" x2="175.33" y2="70.9"/><line class="cls-1" x1="175.33" y1="70.7" x2="175.33" y2="70.7"/><line class="cls-1" x1="174.53" y1="77.5" x2="174.53" y2="77.5"/><line class="cls-1" x1="174.33" y1="77.5" x2="174.53" y2="77.5"/><line class="cls-1" x1="174.33" y1="77.3" x2="174.53" y2="77.3"/><line class="cls-1" x1="174.33" y1="77.3" x2="174.53" y2="77.3"/><line class="cls-1" x1="173.63" y1="75.4" x2="173.63" y2="75.4"/><line class="cls-1" x1="173.63" y1="75.2" x2="173.63" y2="75.2"/><line class="cls-1" x1="173.43" y1="75.4" x2="173.63" y2="75.4"/><line class="cls-1" x1="173.43" y1="75.4" x2="173.63" y2="75.4"/><line class="cls-1" x1="173.43" y1="75.2" x2="173.63" y2="75.2"/><line class="cls-1" x1="173.43" y1="75.2" x2="173.63" y2="75.2"/><line class="cls-1" x1="173.43" y1="75" x2="173.43" y2="75"/><line class="cls-1" x1="173.43" y1="74.8" x2="173.63" y2="74.8"/><polyline class="cls-1" points="184.13 65.3 184.33 69.5 184.13 73.8 183.53 78.1 182.93 82.2 181.93 86.1 180.83 89.8 179.43 93.5 177.93 96.9 176.13 100 174.33 102.7 172.23 105.3 169.93 107.4 167.53 109.2 165.23 110.5 162.63 111.7 159.93 112.3 157.43 112.7 157.23 112.7"/><polyline class="cls-1" points="152.93 19.8 153.73 19.8 156.43 20 158.93 20.4 161.53 21.4 164.23 22.5 166.53 24.3 169.13 26.2 171.23 28.6 173.43 31.3 175.53 34.2 177.33 37.5 178.83 41.1 180.43 44.8 181.63 48.7 182.53 52.6 183.33 56.9 183.93 61 184.13 65.3"/><line class="cls-1" x1="111.33" y1="75.2" x2="111.73" y2="75.2"/><line class="cls-1" x1="111.13" y1="60.8" x2="110.73" y2="60.8"/><polyline class="cls-1" points="112.53 75 112.73 75.4 112.73 75.8 113.13 76 113.33 76"/><line class="cls-1" x1="112.53" y1="75" x2="112.53" y2="75"/><polyline class="cls-1" points="113.13 73.8 112.93 73.8 112.73 74.2 112.53 74.4 112.53 75"/><polyline class="cls-1" points="112.53 72.1 112.53 72.5 112.73 72.9 112.93 73.1 113.13 73.3"/><line class="cls-1" x1="112.53" y1="72.1" x2="112.33" y2="72.1"/><polyline class="cls-1" points="113.13 70.9 112.93 71.1 112.53 71.3 112.53 71.7 112.53 72.1"/><polyline class="cls-1" points="112.33 69.4 112.33 69.7 112.53 70.1 112.73 70.3 113.13 70.3"/><line class="cls-1" x1="112.33" y1="69.4" x2="112.33" y2="69.4"/><polyline class="cls-1" points="112.93 68.2 112.73 68.4 112.53 68.6 112.33 69 112.33 69.4"/><polyline class="cls-1" points="112.13 66.4 112.33 67 112.53 67.2 112.73 67.6 112.93 67.6"/><line class="cls-1" x1="112.13" y1="66.4" x2="112.13" y2="66.4"/><polyline class="cls-1" points="112.93 65.4 112.53 65.4 112.33 65.6 112.33 66 112.13 66.4"/><polyline class="cls-1" points="112.13 63.7 112.13 64.1 112.33 64.5 112.53 64.7 112.93 64.9"/><line class="cls-1" x1="112.13" y1="63.7" x2="111.93" y2="63.7"/><polyline class="cls-1" points="112.73 62.5 112.53 62.7 112.33 62.9 112.13 63.3 112.13 63.7"/><polyline class="cls-1" points="111.93 61 112.13 61.4 112.33 61.7 112.53 61.9 112.73 61.9"/><line class="cls-1" x1="111.93" y1="61" x2="111.93" y2="61"/><polyline class="cls-1" points="112.73 59.8 112.33 59.8 112.13 60.2 112.13 60.6 111.93 61"/><line class="cls-1" x1="113.33" y1="77.3" x2="112.73" y2="77.3"/><polyline class="cls-1" points="114.23 74.8 114.23 75.4 114.43 75.6 114.63 76 115.03 76"/><line class="cls-1" x1="114.23" y1="74.8" x2="114.23" y2="74.8"/><polyline class="cls-1" points="114.83 73.8 114.63 73.8 114.43 74 114.23 74.4 114.23 74.8"/><polyline class="cls-1" points="114.23 72.1 114.23 72.5 114.43 72.9 114.63 73.1 114.83 73.3"/><line class="cls-1" x1="114.23" y1="72.1" x2="114.13" y2="72.1"/><polyline class="cls-1" points="114.83 70.9 114.43 71.1 114.23 71.3 114.23 71.7 114.23 72.1"/><polyline class="cls-1" points="114.13 69.4 114.13 69.7 114.23 70.1 114.43 70.3 114.83 70.3"/><line class="cls-1" x1="114.13" y1="69.4" x2="113.93" y2="69.4"/><polyline class="cls-1" points="114.63 68.2 114.43 68.2 114.23 68.6 114.13 68.8 114.13 69.4"/><polyline class="cls-1" points="113.93 66.4 114.13 66.8 114.23 67.2 114.43 67.4 114.63 67.6"/><line class="cls-1" x1="113.93" y1="66.4" x2="113.93" y2="66.4"/><polyline class="cls-1" points="114.63 65.3 114.23 65.4 114.13 65.6 114.13 66 113.93 66.4"/><polyline class="cls-1" points="113.93 63.7 113.93 64.1 114.13 64.5 114.23 64.7 114.63 64.7"/><line class="cls-1" x1="113.93" y1="63.7" x2="113.73" y2="63.7"/><polyline class="cls-1" points="114.43 62.5 114.23 62.7 114.13 62.9 113.93 63.3 113.93 63.7"/><polyline class="cls-1" points="113.73 60.8 113.93 61.4 113.93 61.5 114.23 61.9 114.43 61.9"/><line class="cls-1" x1="113.73" y1="60.8" x2="113.73" y2="60.8"/><polyline class="cls-1" points="114.23 59.8 114.13 59.8 113.93 60 113.73 60.4 113.73 60.8"/><polyline class="cls-1" points="112.53 58.4 111.93 58.6 111.53 59.2 111.33 60 111.13 60.8"/><line class="cls-1" x1="111.13" y1="60.8" x2="111.73" y2="75.2"/><polyline class="cls-1" points="111.73 75.2 111.93 76 112.33 76.8 112.73 77.2 113.33 77.3"/><line class="cls-1" x1="113.33" y1="77.3" x2="114.43" y2="77.3"/><polyline class="cls-1" points="114.23 59.8 114.43 59.8 114.83 60 114.83 60.4 115.03 60.8"/><polyline class="cls-1" points="115.03 60.8 115.03 61.2 114.83 61.5 114.63 61.9 114.23 61.9"/><polyline class="cls-1" points="114.23 61.9 114.13 61.9 113.93 61.5 113.73 61.4 113.73 60.8"/><polyline class="cls-1" points="113.73 60.8 113.73 60.4 113.93 60 114.13 59.8 114.23 59.8"/><polyline class="cls-1" points="112.53 59.8 112.93 59.8 113.13 60.2 113.33 60.4 113.33 61"/><polyline class="cls-1" points="113.33 61 113.33 61.4 113.13 61.7 112.93 61.9 112.73 61.9"/><polyline class="cls-1" points="112.73 61.9 112.33 61.9 112.13 61.7 111.93 61.4 111.93 61"/><polyline class="cls-1" points="111.93 61 111.93 60.6 112.13 60.2 112.33 59.8 112.53 59.8"/><polyline class="cls-1" points="113.13 73.8 113.33 73.8 113.73 74 113.73 74.4 113.93 74.8"/><polyline class="cls-1" points="113.93 74.8 113.93 75.4 113.73 75.6 113.53 76 113.13 76"/><polyline class="cls-1" points="113.13 76 112.93 76 112.73 75.8 112.53 75.4 112.53 75"/><polyline class="cls-1" points="112.53 75 112.53 74.4 112.73 74.2 112.93 73.8 113.13 73.8"/><polyline class="cls-1" points="112.93 71.1 113.33 71.1 113.53 71.3 113.73 71.7 113.73 72.1"/><polyline class="cls-1" points="113.73 72.1 113.73 72.5 113.53 72.9 113.33 73.1 113.13 73.3"/><polyline class="cls-1" points="113.13 73.3 112.93 73.1 112.53 72.9 112.53 72.5 112.33 72.1"/><polyline class="cls-1" points="112.33 72.1 112.33 71.7 112.53 71.3 112.73 71.1 112.93 71.1"/><polyline class="cls-1" points="114.43 62.5 114.63 62.5 114.83 62.9 115.03 63.1 115.03 63.7"/><polyline class="cls-1" points="115.03 63.7 115.03 64.1 114.83 64.5 114.63 64.7 114.43 64.7"/><polyline class="cls-1" points="114.43 64.7 114.23 64.7 114.13 64.5 113.93 64.1 113.73 63.7"/><polyline class="cls-1" points="113.73 63.7 113.93 63.3 113.93 62.9 114.13 62.7 114.43 62.5"/><polyline class="cls-1" points="114.43 65.3 114.83 65.4 115.03 65.6 115.23 66 115.23 66.4"/><polyline class="cls-1" points="115.23 66.4 115.23 66.8 115.03 67.2 114.83 67.4 114.63 67.6"/><polyline class="cls-1" points="114.63 67.6 114.23 67.4 114.13 67.2 113.93 66.8 113.93 66.4"/><polyline class="cls-1" points="113.93 66.4 113.93 66 114.13 65.6 114.23 65.4 114.43 65.3"/><polyline class="cls-1" points="114.63 68.2 114.83 68.2 115.03 68.4 115.23 68.8 115.23 69.2"/><polyline class="cls-1" points="115.23 69.2 115.23 69.7 115.23 69.9 115.03 70.3 114.63 70.3"/><polyline class="cls-1" points="114.63 70.3 114.43 70.3 114.23 70.1 114.13 69.7 113.93 69.4"/><polyline class="cls-1" points="113.93 69.4 114.13 68.8 114.13 68.6 114.23 68.2 114.63 68.2"/><polyline class="cls-1" points="114.63 70.9 115.03 71.1 115.23 71.3 115.43 71.7 115.43 72.1"/><polyline class="cls-1" points="115.43 72.1 115.43 72.5 115.23 72.9 115.03 73.1 114.83 73.3"/><polyline class="cls-1" points="114.83 73.3 114.43 73.1 114.23 72.9 114.13 72.5 114.13 72.1"/><polyline class="cls-1" points="114.13 72.1 114.13 71.7 114.23 71.3 114.43 71.1 114.63 70.9"/><polyline class="cls-1" points="112.93 68.2 113.13 68.4 113.33 68.6 113.53 69 113.73 69.4"/><polyline class="cls-1" points="113.73 69.4 113.53 69.7 113.53 70.1 113.33 70.3 112.93 70.3"/><polyline class="cls-1" points="112.93 70.3 112.73 70.3 112.53 70.1 112.33 69.7 112.33 69.4"/><polyline class="cls-1" points="112.33 69.4 112.33 69 112.33 68.6 112.73 68.4 112.93 68.2"/><polyline class="cls-1" points="112.73 65.4 113.13 65.4 113.33 65.6 113.53 66 113.53 66.4"/><polyline class="cls-1" points="113.53 66.4 113.53 66.8 113.33 67.2 113.13 67.6 112.93 67.6"/><polyline class="cls-1" points="112.93 67.6 112.53 67.6 112.33 67.2 112.13 67 112.13 66.4"/><polyline class="cls-1" points="112.13 66.4 112.13 66 112.33 65.6 112.53 65.4 112.73 65.4"/><polyline class="cls-1" points="112.73 62.5 112.93 62.7 113.13 62.9 113.33 63.3 113.33 63.7"/><polyline class="cls-1" points="113.33 63.7 113.33 64.1 113.33 64.5 113.13 64.7 112.73 64.9"/><polyline class="cls-1" points="112.73 64.9 112.53 64.7 112.33 64.5 112.13 64.1 111.93 63.7"/><polyline class="cls-1" points="111.93 63.7 112.13 63.3 112.13 62.9 112.33 62.7 112.73 62.5"/><polyline class="cls-1" points="114.83 73.8 115.03 73.8 115.23 74 115.43 74.4 115.63 74.8"/><polyline class="cls-1" points="115.63 74.8 115.43 75.2 115.43 75.6 115.23 75.8 114.83 76"/><polyline class="cls-1" points="114.83 76 114.63 76 114.43 75.6 114.23 75.4 114.23 74.8"/><polyline class="cls-1" points="114.23 74.8 114.23 74.4 114.43 74 114.63 73.8 114.83 73.8"/><line class="cls-1" x1="132.23" y1="101.7" x2="127.73" y2="101.9"/><polyline class="cls-1" points="127.73 101.9 125.63 101.2 123.23 100 121.13 98.6 118.93 96.7 117.03 94.3 115.23 91.8 113.93 89.6"/><polyline class="cls-1" points="111.93 46.7 113.33 43.8 114.83 41.3 116.63 38.9 118.53 37 120.53 35.2 122.83 34 125.03 33.1"/><line class="cls-1" x1="125.03" y1="33.1" x2="129.33" y2="32.9"/><polyline class="cls-1" points="126.93 100.8 127.53 101.3 127.73 101.9"/><line class="cls-1" x1="127.73" y1="101.9" x2="128.53" y2="100.8"/><line class="cls-1" x1="126.03" y1="34" x2="125.03" y2="33.1"/><polyline class="cls-1" points="124.23 34.2 124.83 33.6 125.03 33.1"/><line class="cls-1" x1="128.53" y1="100.8" x2="133.03" y2="100.6"/><line class="cls-1" x1="130.23" y1="33.8" x2="126.03" y2="34"/><line class="cls-1" x1="126.93" y1="100.8" x2="128.53" y2="100.8"/><polyline class="cls-1" points="133.03 99 132.63 98.6 131.83 98 131.03 97.8 130.23 98 129.53 98.6 128.93 99.6 128.53 100.8"/><line class="cls-1" x1="126.03" y1="34" x2="124.23" y2="34.2"/><polyline class="cls-1" points="126.03 34 126.33 35.2 126.93 36.2 127.73 36.8 128.53 37 129.33 36.8 130.03 36.2 130.43 35.6"/><polyline class="cls-1" points="150.93 22.7 150.33 22.1 150.33 21.7 150.53 21.4"/><polyline class="cls-1" points="146.23 22.7 146.43 22.5 147.23 22.1 147.43 22.1"/><polyline class="cls-1" points="149.23 22.5 149.43 22.3 149.43 22.1"/><polyline class="cls-1" points="150.93 21.2 151.33 21.2 152.13 21 152.93 21 153.73 21.2 154.63 21.4 155.43 21.5 156.23 21.9 157.03 22.1"/><polyline class="cls-1" points="151.33 22.5 150.73 22.1 150.53 21.7 150.53 21.5 150.93 21.2"/><polyline class="cls-1" points="157.03 22.1 157.43 22.5 157.63 22.9 157.63 23.3 157.23 23.5"/><polyline class="cls-1" points="157.23 23.5 156.83 23.7 156.03 23.7 155.23 23.7 154.43 23.5 153.53 23.3 152.73 23.1 151.93 22.7 151.33 22.5"/><line class="cls-1" x1="151.33" y1="22.5" x2="150.93" y2="22.7"/><polyline class="cls-1" points="157.63 22.9 157.83 23.3 157.43 23.7 156.83 23.9 155.63 23.9 154.43 23.9 153.13 23.5 151.93 23.1 150.93 22.7"/><polyline class="cls-1" points="157.83 23.5 158.13 23.9 158.53 24.3 158.53 24.5"/><polyline class="cls-1" points="157.63 23.3 158.03 23.5 158.33 23.9 158.33 24.5 158.03 24.9 157.03 25.1 156.63 25.1"/><polyline class="cls-1" points="151.93 24.3 150.73 23.9 149.83 23.3 149.43 22.7 149.43 22.3 149.83 21.9 150.33 21.7"/><polyline class="cls-1" points="152.13 24.1 151.33 23.9 150.73 23.5"/><polyline class="cls-1" points="150.73 23.5 150.13 23.1 150.03 22.5 150.13 22.5"/><polyline class="cls-1" points="157.63 24.3 157.43 24.5 156.83 24.7 155.83 24.9 154.63 24.7 153.53 24.5 152.13 24.1"/><line class="cls-1" x1="157.63" y1="22.9" x2="158.13" y2="23.1"/><polyline class="cls-1" points="149.63 23.5 148.83 23.1 148.63 22.5 148.63 22.1 148.83 21.7 149.63 21.5 150.53 21.4"/><polyline class="cls-1" points="158.53 24.1 158.53 24.5 158.03 24.9 157.03 25.1 155.63 25.1 154.23 24.9 152.73 24.7 151.13 24.1 150.13 23.5"/><polyline class="cls-1" points="150.13 23.5 149.63 23.1 149.23 22.7"/><polyline class="cls-1" points="149.23 22.7 149.23 22.3 149.83 21.9 150.33 21.7"/><polyline class="cls-1" points="158.03 23.3 158.13 23.7 158.53 24.1"/><polyline class="cls-1" points="158.13 23.1 158.73 23.7 159.13 24.3 159.13 24.7 158.73 25.1 158.13 25.3 157.23 25.5 156.03 25.5 154.83 25.3"/><polyline class="cls-1" points="154.83 25.3 153.33 25.1 151.93 24.7 150.53 24.1 149.63 23.5"/><polyline class="cls-1" points="160.13 24.9 160.53 25.1 160.93 25.6 161.13 26.2"/><polyline class="cls-1" points="123.43 67.6 123.63 70.1 124.03 72.7 124.83 75 125.63 77.3 126.73 79.3 127.93 81.1 129.33 82.4 130.83 83.6 132.43 84.2 132.83 84.4"/><line class="cls-1" x1="123.43" y1="67.6" x2="118.93" y2="67.8"/><polyline class="cls-1" points="131.23 50.2 131.03 50.2 129.53 51 128.13 52.2 126.93 53.7 125.83 55.5 124.83 57.6 124.23 60 123.63 62.3 123.43 64.9 123.43 67.6"/><polyline class="cls-1" points="118.93 67.8 119.33 70.3 119.73 72.9 120.33 75.2 121.33 77.5 122.43 79.5 123.63 81.3 125.03 82.6 126.53 83.8 128.13 84.4 129.73 84.8 131.23 84.8 132.83 84.4 134.33 83.4 135.73 82.2 137.13 80.9 138.03 78.9 138.63 78.1"/><line class="cls-1" x1="118.93" y1="67.8" x2="117.43" y2="67.8"/><polyline class="cls-1" points="137.53 55.9 137.33 55.3 135.93 53.5 134.53 52.2 133.03 51 131.43 50.4 129.93 50 128.33 50 126.73 50.4 125.23 51.2 123.83 52.4 122.43 53.9 121.53 55.7 120.53 57.8 119.73 60.2 119.33 62.5 119.13 65.1 118.93 67.8"/><polyline class="cls-1" points="183.33 65.4 183.33 69.5 183.13 73.8 182.73 77.9 182.13 82 181.23 85.9 180.03 89.6 178.63 93.2 178.43 93.5"/><polyline class="cls-1" points="175.93 36.8 176.53 37.9 178.03 41.3 179.63 45 180.83 48.9 181.83 52.8 182.53 56.9 183.13 61.2 183.33 65.4"/><line class="cls-1" x1="183.33" y1="65.4" x2="183.33" y2="65.4"/><polyline class="cls-1" points="179.23 88.3 180.23 84.4 181.03 80.5 181.63 76.2 181.93 71.9 182.13 67.6 181.93 63.3 181.63 59 180.83 54.7 179.83 50.6 178.63 46.5 177.33 42.8"/><polyline class="cls-1" points="172.63 53.5 172.63 53.2 172.43 53"/><polyline class="cls-1" points="172.43 54.1 172.43 54.1 172.63 53.7 172.63 53.5"/><line class="cls-1" x1="168.93" y1="61.2" x2="170.63" y2="61.2"/><polyline class="cls-1" points="172.03 56.1 172.03 55.7 171.83 55.5"/><polyline class="cls-1" points="171.83 56.7 171.83 56.7 172.03 56.3 172.03 56.1"/><line class="cls-1" x1="170.63" y1="48.3" x2="169.73" y2="48.3"/><line class="cls-1" x1="170.83" y1="48.3" x2="170.63" y2="48.3"/><polyline class="cls-1" points="170.03 56.1 169.93 55.9 169.93 55.5"/><polyline class="cls-1" points="169.93 56.7 169.93 56.7 169.93 56.5 170.03 56.1"/><polyline class="cls-1" points="170.83 58 171.63 57.8 172.03 57.4"/><polyline class="cls-1" points="171.83 51.2 171.23 50.6 170.63 50.6"/><polyline class="cls-1" points="169.33 53.7 169.33 53.4 169.13 53.2 168.93 53 168.53 53"/><polyline class="cls-1" points="169.13 54.3 169.13 54.3 169.33 53.9 169.33 53.7"/><polyline class="cls-1" points="173.83 54.1 173.63 55.5 173.23 56.5 172.43 57.3 171.43 57.6"/><polyline class="cls-1" points="171.03 51 172.03 51.2 173.03 51.8 173.63 53 173.83 54.1"/><polyline class="cls-1" points="173.63 53.5 173.43 53.7 173.43 54.1 173.23 54.3 172.83 54.3"/><polyline class="cls-1" points="172.83 54.3 172.63 54.3 172.43 54.1 172.23 53.9 172.23 53.5"/><polyline class="cls-1" points="172.23 53.5 172.23 53.2 172.43 53 172.63 52.8 172.83 52.8"/><polyline class="cls-1" points="172.83 52.8 173.03 52.8 173.23 53 173.43 53.2 173.63 53.5"/><polyline class="cls-1" points="173.03 56.1 173.03 56.3 172.83 56.7 172.63 56.9 172.43 56.9"/><polyline class="cls-1" points="172.43 56.9 172.03 56.9 171.83 56.7 171.63 56.3 171.63 56.1"/><polyline class="cls-1" points="171.63 56.1 171.63 55.7 171.83 55.5 172.03 55.3 172.23 55.1"/><polyline class="cls-1" points="172.23 55.1 172.63 55.3 172.83 55.5 172.83 55.7 173.03 56.1"/><polyline class="cls-1" points="170.83 56.1 170.83 56.5 170.63 56.7 170.43 56.9 170.23 56.9"/><polyline class="cls-1" points="170.23 56.9 170.03 56.9 169.93 56.7 169.73 56.5 169.73 56.1"/><polyline class="cls-1" points="169.73 56.1 169.73 55.9 169.93 55.5 170.03 55.3 170.23 55.3"/><polyline class="cls-1" points="170.23 55.3 170.43 55.3 170.63 55.5 170.83 55.7 170.83 56.1"/><polyline class="cls-1" points="170.23 53.5 170.03 53.9 170.03 54.3 169.93 54.3 169.53 54.5"/><polyline class="cls-1" points="169.53 54.5 169.33 54.5 169.13 54.3 168.93 53.9 168.93 53.7"/><polyline class="cls-1" points="168.93 53.7 168.93 53.4 169.13 53.2 169.33 53 169.53 52.8"/><polyline class="cls-1" points="169.53 52.8 169.73 53 169.93 53.2 170.03 53.4 170.23 53.5"/><line class="cls-1" x1="170.03" y1="51" x2="171.03" y2="51"/><line class="cls-1" x1="170.03" y1="51" x2="169.53" y2="51.2"/><line class="cls-1" x1="169.73" y1="57.4" x2="170.43" y2="57.6"/><line class="cls-1" x1="170.43" y1="57.6" x2="171.43" y2="57.6"/><polyline class="cls-1" points="171.43 57.6 170.23 57.4 169.53 56.7 168.93 55.7 168.53 54.3"/><polyline class="cls-1" points="168.53 54.3 168.73 53.2 169.33 52 170.03 51.2 171.03 51"/><line class="cls-1" x1="170.03" y1="61" x2="168.53" y2="61.2"/><line class="cls-1" x1="166.93" y1="60" x2="166.13" y2="59.6"/><line class="cls-1" x1="166.73" y1="60" x2="166.93" y2="60"/><line class="cls-1" x1="167.93" y1="47.7" x2="169.73" y2="47.5"/><polyline class="cls-1" points="169.73 48.3 167.53 49.3 166.33 51"/><line class="cls-1" x1="169.73" y1="48.3" x2="169.73" y2="48.3"/><polyline class="cls-1" points="166.73 58 168.73 59.8 170.43 60.4"/><line class="cls-1" x1="170.43" y1="60.4" x2="170.43" y2="60.4"/><line class="cls-1" x1="164.43" y1="58.4" x2="166.13" y2="58.4"/><line class="cls-1" x1="165.63" y1="57.4" x2="164.03" y2="57.4"/><line class="cls-1" x1="163.83" y1="51.6" x2="165.43" y2="51.6"/><line class="cls-1" x1="165.83" y1="50.6" x2="164.23" y2="50.6"/><polyline class="cls-1" points="173.03 49.3 172.43 48.9 170.83 48.3"/><line class="cls-1" x1="169.73" y1="48.3" x2="170.83" y2="48.3"/><polyline class="cls-1" points="169.73 48.3 167.73 49.3 166.53 51"/><line class="cls-1" x1="166.13" y1="58.4" x2="170.03" y2="61"/><polyline class="cls-1" points="170.63 61.2 170.43 61.2 170.23 61.2 170.03 61"/><polyline class="cls-1" points="171.03 61 171.03 61 170.83 61.2 170.63 61.2"/><line class="cls-1" x1="171.03" y1="61" x2="172.23" y2="60.2"/><polyline class="cls-1" points="175.13 57.1 175.13 57.1 175.13 57.3 175.13 57.4 175.13 57.6 174.93 57.8 174.73 58"/><line class="cls-1" x1="172.23" y1="48.7" x2="170.43" y2="47.5"/><polyline class="cls-1" points="169.73 47.5 169.73 47.5 169.93 47.5 170.03 47.5 170.23 47.5 170.43 47.5"/><line class="cls-1" x1="169.73" y1="47.5" x2="165.83" y2="50.6"/><polyline class="cls-1" points="165.43 51.6 165.43 51.4 165.43 51.2 165.43 51 165.63 51 165.63 50.8 165.83 50.8 165.83 50.6"/><line class="cls-1" x1="165.43" y1="51.6" x2="165.63" y2="57.4"/><polyline class="cls-1" points="166.13 58.4 165.93 58.2 165.83 58 165.83 57.8 165.63 57.6 165.63 57.4"/><line class="cls-1" x1="166.33" y1="56.9" x2="166.53" y2="57.1"/><line class="cls-1" x1="170.43" y1="60.4" x2="171.63" y2="60.4"/><polyline class="cls-1" points="171.63 60.4 173.83 59.2 174.93 57.6"/><line class="cls-1" x1="175.13" y1="56.5" x2="174.93" y2="57.6"/><polyline class="cls-1" points="166.93 58 168.73 59.8 170.43 60.4"/><polyline class="cls-1" points="167.13 56.9 167.93 58 168.93 59 170.03 59.6 171.23 59.8"/><line class="cls-1" x1="171.03" y1="48.7" x2="170.43" y2="48.7"/><polyline class="cls-1" points="170.43 48.7 169.33 49.1 168.33 49.6 167.33 50.8 166.73 52.2"/><polyline class="cls-1" points="175.13 51.8 174.33 50.4 173.43 49.4 172.23 48.9 171.03 48.7"/><polyline class="cls-1" points="171.03 48.7 169.93 49.1 168.73 49.6 167.73 50.8 167.13 52.2"/><polyline class="cls-1" points="167.33 56.9 168.13 58 169.13 59 170.23 59.6 171.43 59.8 172.63 59.6 173.83 58.8 174.53 57.8 175.13 56.5"/><line class="cls-1" x1="175.13" y1="51.8" x2="175.13" y2="56.5"/><polyline class="cls-1" points="174.13 54.1 174.13 55.7 173.43 56.9 172.63 57.8 171.43 58.2"/><polyline class="cls-1" points="171.43 58.2 170.23 57.8 169.13 57.1 168.53 55.9 168.13 54.3"/><polyline class="cls-1" points="168.13 54.3 168.33 53 168.93 51.6 169.93 50.8 171.03 50.4"/><polyline class="cls-1" points="171.03 50.4 172.23 50.6 173.23 51.4 173.93 52.6 174.13 54.1"/><line class="cls-1" x1="166.33" y1="52.2" x2="166.33" y2="56.9"/><line class="cls-1" x1="166.53" y1="56.9" x2="166.33" y2="56.9"/><polyline class="cls-1" points="166.73 58 166.73 57.4 166.53 56.9"/><line class="cls-1" x1="166.73" y1="58" x2="166.93" y2="58"/><line class="cls-1" x1="166.93" y1="58" x2="167.13" y2="56.9"/><line class="cls-1" x1="167.33" y1="56.9" x2="167.13" y2="56.9"/><line class="cls-1" x1="167.13" y1="52.2" x2="167.33" y2="56.9"/><line class="cls-1" x1="166.73" y1="52.2" x2="167.13" y2="52.2"/><line class="cls-1" x1="166.73" y1="52.2" x2="166.53" y2="51"/><line class="cls-1" x1="166.53" y1="51" x2="166.33" y2="51"/><line class="cls-1" x1="166.33" y1="52.2" x2="166.33" y2="51"/><line class="cls-1" x1="179.63" y1="74.6" x2="179.83" y2="74.6"/><line class="cls-1" x1="179.83" y1="74.4" x2="179.83" y2="74.4"/><line class="cls-1" x1="179.63" y1="74.8" x2="179.83" y2="74.8"/><line class="cls-1" x1="179.63" y1="74.2" x2="179.83" y2="74.2"/><line class="cls-1" x1="179.63" y1="74.8" x2="179.63" y2="75"/><line class="cls-1" x1="179.83" y1="74.8" x2="179.63" y2="74.8"/><line class="cls-1" x1="179.63" y1="74.6" x2="179.63" y2="74.6"/><line class="cls-1" x1="179.83" y1="74.4" x2="179.63" y2="74.6"/><line class="cls-1" x1="179.63" y1="74.2" x2="179.63" y2="74.2"/><line class="cls-1" x1="179.63" y1="74.2" x2="179.63" y2="74.2"/><line class="cls-1" x1="179.63" y1="74.8" x2="179.63" y2="74.8"/><polyline class="cls-1" points="179.43 74.6 179.43 74.6 179.63 74.6"/><line class="cls-1" x1="179.63" y1="74.6" x2="179.63" y2="74.6"/><polyline class="cls-1" points="179.63 74.6 179.43 74.6 179.43 74.4"/><polyline class="cls-1" points="179.43 74.2 179.43 74.2 179.63 74.2"/><line class="cls-1" x1="179.63" y1="74.2" x2="179.63" y2="74.2"/><line class="cls-1" x1="179.63" y1="74.8" x2="179.63" y2="74.8"/><line class="cls-1" x1="179.83" y1="74.8" x2="179.63" y2="74.8"/><line class="cls-1" x1="179.83" y1="74.8" x2="179.83" y2="74.8"/><polyline class="cls-1" points="179.83 74.6 179.83 74.6 179.83 74.8"/><polyline class="cls-1" points="179.63 74.6 179.63 74.6 179.83 74.6"/><line class="cls-1" x1="179.63" y1="74.6" x2="179.63" y2="74.6"/><line class="cls-1" x1="179.43" y1="74.8" x2="179.43" y2="74.8"/><line class="cls-1" x1="179.63" y1="74.8" x2="179.63" y2="74.8"/><line class="cls-1" x1="179.43" y1="74.8" x2="179.43" y2="74.6"/><line class="cls-1" x1="179.63" y1="74.8" x2="179.63" y2="74.6"/><line class="cls-1" x1="179.63" y1="74.4" x2="179.63" y2="74.4"/><polyline class="cls-1" points="179.63 74.6 179.63 74.6 179.63 74.4"/><line class="cls-1" x1="179.83" y1="74.4" x2="179.63" y2="74.6"/><line class="cls-1" x1="179.83" y1="74.4" x2="179.83" y2="74.4"/><line class="cls-1" x1="179.83" y1="74.2" x2="179.83" y2="74.4"/><line class="cls-1" x1="179.63" y1="74.2" x2="179.83" y2="74.2"/><line class="cls-1" x1="179.63" y1="74.2" x2="179.63" y2="74.2"/><line class="cls-1" x1="179.63" y1="74.2" x2="179.63" y2="74.2"/><line class="cls-1" x1="179.63" y1="74.4" x2="179.63" y2="74.2"/><line class="cls-1" x1="179.03" y1="76.8" x2="179.23" y2="76.8"/><line class="cls-1" x1="179.03" y1="76.8" x2="179.23" y2="76.8"/><line class="cls-1" x1="179.03" y1="76.6" x2="179.23" y2="76.6"/><line class="cls-1" x1="179.03" y1="77.2" x2="179.23" y2="77.2"/><line class="cls-1" x1="179.03" y1="77.2" x2="179.03" y2="77.3"/><line class="cls-1" x1="179.03" y1="77.2" x2="179.03" y2="77.2"/><line class="cls-1" x1="179.03" y1="76.8" x2="179.03" y2="77"/><line class="cls-1" x1="179.03" y1="76.8" x2="179.03" y2="76.8"/><line class="cls-1" x1="179.03" y1="76.6" x2="179.03" y2="76.6"/><line class="cls-1" x1="179.03" y1="76.6" x2="179.03" y2="76.6"/><line class="cls-1" x1="178.83" y1="76.6" x2="178.83" y2="76.6"/><line class="cls-1" x1="178.83" y1="76.6" x2="179.03" y2="76.6"/><line class="cls-1" x1="178.83" y1="77.2" x2="178.83" y2="77.2"/><line class="cls-1" x1="178.83" y1="77" x2="178.83" y2="77"/><line class="cls-1" x1="178.83" y1="77" x2="179.03" y2="77"/><line class="cls-1" x1="178.83" y1="76.6" x2="179.03" y2="76.6"/><polyline class="cls-1" points="178.83 74 178.63 74 178.43 73.8 178.43 73.6 178.43 73.4 178.63 73.4 178.63 73.3 178.83 73.3"/><polyline class="cls-1" points="178.83 73.3 179.03 73.3 179.23 73.4 179.23 73.6 179.23 73.8 179.03 74 178.83 74"/><line class="cls-1" x1="178.83" y1="72.5" x2="178.83" y2="72.7"/><line class="cls-1" x1="178.83" y1="77" x2="178.83" y2="77"/><line class="cls-1" x1="178.83" y1="77" x2="178.83" y2="77"/><line class="cls-1" x1="179.03" y1="77.2" x2="178.83" y2="77.2"/><line class="cls-1" x1="179.03" y1="77.2" x2="179.03" y2="77.2"/><line class="cls-1" x1="179.03" y1="77.2" x2="179.03" y2="77.2"/><polyline class="cls-1" points="179.23 77 179.23 77.2 179.03 77.2"/><line class="cls-1" x1="179.03" y1="77" x2="179.23" y2="77"/><line class="cls-1" x1="179.03" y1="77" x2="179.03" y2="77"/><line class="cls-1" x1="178.83" y1="77" x2="179.03" y2="77"/><line class="cls-1" x1="178.83" y1="77.2" x2="178.83" y2="77"/><line class="cls-1" x1="178.83" y1="77" x2="178.83" y2="77"/><line class="cls-1" x1="178.63" y1="72.5" x2="178.63" y2="72.5"/><polyline class="cls-1" points="178.83 76.2 179.03 76.2 179.03 76 179.23 76 179.23 75.8 179.23 75.6 179.03 75.4 179.03 75.2 178.83 75.2"/><polyline class="cls-1" points="178.83 76.2 178.63 76.2 178.63 76 178.43 76 178.43 75.8 178.43 75.6 178.63 75.4 178.83 75.2"/><polyline class="cls-1" points="178.83 75.2 179.03 75.4 179.23 75.6 179.23 75.8 179.03 76 179.03 76.2 178.83 76.2"/><line class="cls-1" x1="178.83" y1="72.7" x2="178.63" y2="72.7"/><line class="cls-1" x1="178.83" y1="72.7" x2="179.03" y2="72.7"/><polyline class="cls-1" points="178.43 73.6 178.43 73.8 178.63 74 178.83 74.2"/><polyline class="cls-1" points="178.83 74.2 179.03 74 179.23 74 179.23 73.8 179.23 73.6"/><line class="cls-1" x1="178.43" y1="73.6" x2="178.43" y2="73.6"/><polyline class="cls-1" points="178.83 73.3 178.63 73.3 178.43 73.4 178.43 73.6"/><polyline class="cls-1" points="179.23 73.6 179.23 73.4 179.03 73.3 178.83 73.3"/><line class="cls-1" x1="179.23" y1="73.6" x2="179.63" y2="73.6"/><polyline class="cls-1" points="178.83 75.2 178.63 75.2 178.43 75.4 178.43 75.6 178.43 75.8 178.43 76 178.63 76.2 178.83 76.2"/><line class="cls-1" x1="178.83" y1="75.2" x2="178.83" y2="75"/><line class="cls-1" x1="178.83" y1="76.2" x2="179.03" y2="76.4"/><line class="cls-1" x1="134.53" y1="101.7" x2="138.83" y2="101.5"/><polyline class="cls-1" points="171.63 82.8 172.63 82.4 173.83 82"/><polyline class="cls-1" points="130.83 34 130.43 35.4 129.93 36.8 129.13 37.5 128.33 38.1 127.33 38.1 126.33 37.7 125.43 36.8 124.83 35.6 124.23 34.2"/><polyline class="cls-1" points="124.23 34.2 122.13 35 120.13 36.4 118.03 37.9 116.23 39.9 114.43 42 112.93 44.6 111.53 47.5 110.33 50.6 109.43 53.7 108.83 57.3 108.23 60.8 108.03 64.5 108.03 68"/><polyline class="cls-1" points="108.03 68 108.43 71.7 108.83 75.4 109.63 78.9 110.53 82.2 111.73 85.3 113.13 88.5 114.83 91.2 116.43 93.5 118.33 95.7 120.53 97.6 122.43 99 124.83 100.2 126.93 100.8"/><polyline class="cls-1" points="126.93 100.8 127.33 99.4 127.93 98.2 128.73 97.3 129.73 96.9 130.63 96.7 131.63 97.3 132.43 98 133.03 99.2 133.63 100.6"/><polyline class="cls-1" points="148.03 66.8 147.83 65.6 147.43 64.7 146.83 64.1 146.23 63.7 145.53 63.7 144.93 64.1 144.33 64.9 144.13 65.8 143.93 67"/><polyline class="cls-1" points="143.93 67 144.13 68.2 144.53 69.2 145.13 69.7 145.93 70.1 146.43 70.1 147.23 69.7 147.63 69 148.03 68 148.03 66.8"/><polyline class="cls-1" points="140.43 67 140.43 69.7 140.03 72.5 139.63 75.2 138.83 77.5 137.93 79.7 136.73 81.6 135.33 83.2 133.83 84.6 132.23 85.3 130.43 85.9 128.93 85.9 127.13 85.5 125.43 84.8 123.83 83.6 122.43 82 121.13 80.3 119.93 78.1 118.93 75.8 118.13 73.3 117.83 70.5 117.43 67.8"/><polyline class="cls-1" points="117.43 67.8 117.63 65.1 117.83 62.3 118.33 59.8 119.13 57.3 120.13 55.1 121.33 53.2 122.63 51.6 124.03 50.2 125.63 49.4 127.33 49.1 129.13 48.9 130.63 49.3 132.43 50 134.03 51.2 135.53 52.8 136.93 54.5 137.93 56.7 138.83 59 139.63 61.5 140.23 64.3 140.43 67"/><polyline class="cls-1" points="118.33 48.3 118.13 46.9 117.63 45.9 117.03 45.2 116.23 44.8 115.63 44.8 114.83 45.2 114.23 45.9 113.93 47.1 113.93 48.3"/><polyline class="cls-1" points="113.93 48.3 114.13 49.4 114.43 50.6 115.03 51.4 115.83 51.8 116.63 51.8 117.43 51.4 117.83 50.4 118.13 49.4 118.33 48.3"/><polyline class="cls-1" points="119.93 87.3 119.73 86.1 119.13 85 118.53 84.2 117.83 83.8 117.23 83.8 116.43 84.2 115.83 85.2 115.43 86.1 115.43 87.3"/><polyline class="cls-1" points="115.43 87.3 115.63 88.7 116.03 89.6 116.63 90.4 117.43 90.8 118.13 90.8 118.93 90.4 119.33 89.6 119.73 88.5 119.93 87.3"/><polyline class="cls-1" points="143.93 86.5 143.73 85.3 143.33 84.2 142.73 83.4 142.03 83 141.23 83 140.63 83.6 140.03 84.4 139.63 85.3 139.63 86.7"/><polyline class="cls-1" points="139.63 86.7 139.83 87.9 140.23 88.9 140.83 89.6 141.63 90.2 142.33 90 142.93 89.6 143.53 88.9 143.93 87.7 143.93 86.5"/><polyline class="cls-1" points="142.33 47.5 142.13 46.1 141.83 45.2 141.23 44.4 140.43 44 139.63 44 139.03 44.4 138.43 45.4 138.03 46.3 138.03 47.5"/><polyline class="cls-1" points="138.03 47.5 138.23 48.9 138.63 49.8 139.23 50.6 140.03 51 140.83 51 141.43 50.6 142.03 49.8 142.33 48.7 142.33 47.5"/><line class="cls-1" x1="115.23" y1="60.6" x2="115.63" y2="75"/><polyline class="cls-1" points="115.63 75 115.63 75.4 115.63 75.8 115.63 76.2 115.43 76.6 115.23 77 115.03 77.2 114.63 77.2 114.43 77.3"/><line class="cls-1" x1="114.43" y1="77.3" x2="112.73" y2="77.3"/><polyline class="cls-1" points="112.73 77.3 112.53 77.3 112.13 77.2 111.93 77 111.73 76.8 111.53 76.4 111.33 76 111.33 75.6 111.33 75.2"/><line class="cls-1" x1="111.33" y1="75.2" x2="110.73" y2="60.8"/><polyline class="cls-1" points="110.73 60.8 110.73 60.4 110.73 60 110.93 59.6 110.93 59.2 111.13 59 111.53 58.6 111.73 58.6 111.93 58.6"/><line class="cls-1" x1="111.93" y1="58.6" x2="113.73" y2="58.4"/><polyline class="cls-1" points="113.73 58.4 113.93 58.4 114.23 58.6 114.43 58.8 114.63 59 114.83 59.4 115.03 59.8 115.03 60.2 115.23 60.6"/><polyline class="cls-1" points="173.43 67.4 172.03 66.8 171.03 66.8"/><polyline class="cls-1" points="177.93 72.5 177.93 72.5 177.73 72.3 177.73 72.1 177.53 72.1 177.53 71.9 177.73 71.7 177.73 71.5 177.93 71.5"/><polyline class="cls-1" points="177.93 71.5 178.03 71.5 178.03 71.7 178.23 71.9 178.23 72.1 178.03 72.3 178.03 72.5 177.93 72.5"/><line class="cls-1" x1="155.63" y1="66.6" x2="151.33" y2="66.8"/><line class="cls-1" x1="136.13" y1="32.7" x2="131.83" y2="32.9"/><polyline class="cls-1" points="179.63 89.4 179.43 88.9 179.23 88.3"/><line class="cls-1" x1="178.43" y1="68" x2="177.33" y2="42.8"/><line class="cls-1" x1="179.23" y1="88.3" x2="178.83" y2="80.9"/><polyline class="cls-1" points="177.33 42.8 177.73 42 177.73 41.6"/><line class="cls-1" x1="166.13" y1="59.6" x2="164.43" y2="58.4"/><polyline class="cls-1" points="164.03 57.4 164.03 57.6 164.03 57.8 164.23 58 164.23 58.2 164.43 58.2 164.43 58.4"/><line class="cls-1" x1="164.03" y1="57.4" x2="163.83" y2="51.6"/><polyline class="cls-1" points="164.23 50.6 164.03 50.8 164.03 51 163.83 51.2 163.83 51.4 163.83 51.6"/><line class="cls-1" x1="164.23" y1="50.6" x2="167.93" y2="47.7"/><polyline class="cls-1" points="168.53 47.5 168.53 47.5 168.33 47.5 168.13 47.5 167.93 47.7"/><polyline class="cls-1" points="168.53 61.2 168.53 61.2 168.73 61.2 168.93 61.2"/><line class="cls-1" x1="168.53" y1="61.2" x2="166.73" y2="60"/><line class="cls-1" x1="166.73" y1="60" x2="166.13" y2="59.6"/><polyline class="cls-1" points="169.13 63.7 169.13 63.7 168.93 63.7 168.73 63.7 168.53 63.7 168.53 63.9"/><polyline class="cls-1" points="169.33 85.9 169.53 85.9 169.73 85.9 169.93 85.9"/><polyline class="cls-1" points="161.93 79.9 161.93 80.1 162.03 80.3 162.03 80.5 162.23 80.7 162.23 80.9 162.43 81.1 162.43 81.3 162.63 81.3"/><polyline class="cls-1" points="162.03 69 162.03 69.2 161.93 69.4 161.73 69.5 161.73 69.7 161.73 69.9 161.53 70.1 161.53 70.3"/><polyline class="cls-1" points="134.93 32.3 134.73 31.1 134.33 29.9 133.83 29.2 133.03 28.8 132.23 28.8 131.43 29.4 131.03 30.1 130.63 31.1 130.43 32.5"/><line class="cls-1" x1="134.93" y1="32.7" x2="134.93" y2="32.3"/><polyline class="cls-1" points="130.43 32.5 130.63 33.6 130.83 34.2"/><polyline class="cls-1" points="133.63 100.4 133.43 100.8 133.43 102.1"/><line class="cls-1" x1="137.73" y1="101.9" x2="137.73" y2="101.5"/><polyline class="cls-1" points="133.43 102.1 133.63 103.3 134.03 104.3 134.53 105.1 135.33 105.6 136.13 105.4 136.73 105.1 137.33 104.3 137.73 103.1 137.73 101.9"/><line class="cls-1" x1="133.03" y1="100.6" x2="133.23" y2="99.4"/><line class="cls-1" x1="133.03" y1="100.6" x2="132.23" y2="101.7"/><line class="cls-1" x1="129.33" y1="32.9" x2="130.23" y2="33.8"/><polyline class="cls-1" points="130.63 35 130.63 35 130.23 33.8"/><polyline class="cls-1" points="136.13 32.7 138.43 33.5 140.83 34.6 142.93 36 144.93 37.9 146.83 40.1 148.83 42.6 150.33 45.5 151.93 48.7 153.13 52 154.03 55.5 154.83 59 155.43 62.7 155.63 66.6"/><polyline class="cls-1" points="155.63 66.6 155.63 70.3 155.43 74 155.03 77.7 154.23 81.3 153.33 84.6 152.13 87.7 150.73 90.6 149.03 93.3 147.23 95.7 145.33 97.6 143.33 99.4 141.23 100.6 138.83 101.5"/><polyline class="cls-1" points="177.93 77.7 178.03 77.7 178.23 77.5 178.23 77.3 178.23 77.2 178.03 77 177.93 76.8"/><polyline class="cls-1" points="177.93 77.7 177.73 77.7 177.53 77.5 177.53 77.3 177.53 77.2 177.53 77 177.73 77 177.93 77"/><polyline class="cls-1" points="177.93 77 177.93 77 178.03 77 178.03 77.2 178.03 77.3 178.03 77.5 177.93 77.7"/><polyline class="cls-1" points="105.93 68 106.13 72.3 106.63 76.6 107.43 80.7 108.43 84.6 109.63 88.5 110.93 92.2 112.73 95.7 114.43 98.8 116.43 101.7 118.53 104.5 120.93 106.8 123.23 108.8 125.83 110.3 128.33 111.7 130.83 112.5 133.63 112.9 136.13 113.1 138.83 112.7 141.43 112.1 143.93 110.9 146.23 109.5 148.63 107.8 150.73 105.4 152.93 103.1 154.83 100.2 156.43 97.1 158.03 93.7 159.33 90.2"/><polyline class="cls-1" points="177.53 72.1 177.53 72.3 177.73 72.3 177.73 72.5 177.93 72.5"/><polyline class="cls-1" points="177.93 72.5 178.03 72.5 178.23 72.3 178.23 72.1 178.23 71.9"/><line class="cls-1" x1="177.53" y1="72.1" x2="177.53" y2="72.1"/><polyline class="cls-1" points="177.93 71.5 177.73 71.5 177.73 71.7 177.53 71.9 177.53 72.1"/><polyline class="cls-1" points="178.23 71.9 178.23 71.7 178.03 71.7 178.03 71.5 177.93 71.5"/><line class="cls-1" x1="178.23" y1="71.9" x2="178.63" y2="71.9"/><line class="cls-1" x1="169.33" y1="85.9" x2="162.63" y2="81.3"/><line class="cls-1" x1="170.83" y1="85.7" x2="169.33" y2="85.9"/><line class="cls-1" x1="162.63" y1="81.3" x2="164.03" y2="81.3"/><polyline class="cls-1" points="180.63 79.1 180.03 79.9 178.83 80.9 177.53 81.6 176.13 81.8"/><polyline class="cls-1" points="175.53 67.4 177.13 67.4 178.23 68 179.23 68.6"/><line class="cls-1" x1="177.33" y1="70.5" x2="177.53" y2="70.5"/><line class="cls-1" x1="177.33" y1="71.3" x2="177.53" y2="71.3"/><line class="cls-1" x1="162.03" y1="69" x2="168.53" y2="63.9"/><line class="cls-1" x1="163.63" y1="69" x2="162.03" y2="69"/><line class="cls-1" x1="168.53" y1="63.9" x2="170.03" y2="63.7"/><line class="cls-1" x1="177.33" y1="71.3" x2="177.33" y2="71.3"/><line class="cls-1" x1="177.33" y1="70.5" x2="177.33" y2="70.5"/><line class="cls-1" x1="159.33" y1="90.2" x2="157.43" y2="42.6"/><polyline class="cls-1" points="159.33 90.2 159.73 90.2 160.13 90.4"/><line class="cls-1" x1="158.13" y1="42.4" x2="160.13" y2="90.4"/><line class="cls-1" x1="177.13" y1="71.3" x2="177.13" y2="71.3"/><line class="cls-1" x1="177.13" y1="70.9" x2="177.13" y2="70.9"/><polyline class="cls-1" points="177.13 70.7 177.13 70.7 177.13 70.5"/><line class="cls-1" x1="177.13" y1="70.5" x2="177.33" y2="70.5"/><polyline class="cls-1" points="177.93 76.8 177.73 77 177.53 77 177.53 77.2 177.53 77.3 177.53 77.5 177.53 77.7 177.73 77.7 177.93 77.7"/><line class="cls-1" x1="177.93" y1="76.8" x2="177.93" y2="76.6"/><line class="cls-1" x1="177.93" y1="77.7" x2="178.03" y2="78.1"/><polyline class="cls-1" points="177.13 70.9 177.13 70.9 177.13 70.7"/><line class="cls-1" x1="177.13" y1="70.7" x2="177.13" y2="70.7"/><line class="cls-1" x1="177.13" y1="70.7" x2="177.13" y2="70.7"/><polyline class="cls-1" points="177.33 74.4 177.13 74.4 177.13 74.2 176.93 74.2 176.93 74 176.93 73.8 177.13 73.6 177.33 73.4"/><polyline class="cls-1" points="177.33 73.4 177.53 73.4 177.53 73.6 177.73 73.8 177.73 74 177.53 74.2 177.53 74.4 177.33 74.4"/><polyline class="cls-1" points="177.33 78.9 177.33 78.9 177.33 78.7"/><line class="cls-1" x1="177.33" y1="79.1" x2="177.33" y2="79.1"/><line class="cls-1" x1="177.33" y1="78.7" x2="177.33" y2="78.3"/><polyline class="cls-1" points="177.53 78.7 177.53 78.7 177.33 78.7"/><polyline class="cls-1" points="157.43 42.6 155.83 39.1 154.03 36 152.13 33.1 150.03 30.3 147.63 28 145.33 25.8 142.93 24.3 140.43 22.9 137.73 21.9 135.13 21.5 132.43 21.4 129.93 21.5 127.33 22.1 124.83 23.3 122.23 24.7 119.93 26.4 117.83 28.6 115.63 30.9 113.73 33.8 111.93 36.8 110.33 40.1 109.23 43.6 108.03 47.5 107.03 51.4 106.43 55.5 105.93 59.6 105.73 63.9 105.93 68"/><polyline class="cls-1" points="158.13 42.4 157.83 42.6 157.43 42.6"/><polyline class="cls-1" points="131.83 32.9 131.23 33.5 130.83 34"/><polyline class="cls-1" points="133.63 100.6 135.73 99.8 137.93 98.6 139.83 97.1 141.83 95.1 143.33 92.8 144.93 90.2 146.23 87.3 147.43 84.4 148.43 81.1 149.23 77.5 149.63 74 149.83 70.5 149.83 66.8 149.63 63.1 149.03 59.6 148.23 56.1 147.23 52.6 146.03 49.4 144.73 46.5 143.13 43.8 141.43 41.3 139.43 39.1 137.53 37.4 135.33 35.8 133.23 34.8 130.83 34"/><polyline class="cls-1" points="134.53 101.7 134.03 101.2 133.63 100.6"/><polyline class="cls-1" points="151.33 66.8 151.33 70.5 151.13 74.2 150.53 77.9 150.03 81.4 149.03 84.8 147.83 88.1 146.23 90.8 144.73 93.5 142.93 95.9 141.03 97.8 139.03 99.6 136.93 100.8 134.53 101.7"/><polyline class="cls-1" points="131.83 32.9 134.13 33.6 136.33 34.8 138.43 36.2 140.63 38.1 142.53 40.3 144.33 42.8 146.03 45.7 147.43 48.9 148.83 52.2 149.83 55.7 150.53 59.2 150.93 62.9 151.33 66.8"/><line class="cls-1" x1="177.13" y1="77.5" x2="177.13" y2="77.5"/><polyline class="cls-1" points="176.93 74 176.93 74.2 177.13 74.2 177.13 74.4 177.33 74.4"/><polyline class="cls-1" points="177.33 74.4 177.53 74.4 177.53 74.2 177.73 74 177.73 73.8"/><line class="cls-1" x1="176.93" y1="74" x2="176.93" y2="74"/><polyline class="cls-1" points="177.33 73.4 177.13 73.4 176.93 73.6 176.93 73.8 176.93 74"/><polyline class="cls-1" points="177.73 73.8 177.73 73.8 177.53 73.6 177.53 73.4 177.33 73.4"/><line class="cls-1" x1="177.73" y1="73.8" x2="178.03" y2="73.8"/><polyline class="cls-1" points="174.13 67.4 172.83 66.8 171.43 66.8 170.03 67 168.73 67.6 167.53 68.6 166.53 69.9 165.93 71.5 165.63 73.3 165.43 75"/><polyline class="cls-1" points="165.43 75 165.63 76.8 166.13 78.5 166.93 79.9 168.13 81.3 169.33 82 170.63 82.6 172.03 82.8 173.43 82.4 174.53 82"/><polyline class="cls-1" points="177.33 78.3 177.33 78.3 177.53 78.3"/><polyline class="cls-1" points="179.83 76 179.63 76.6 179.03 77.7 178.23 78.5 177.33 79.1"/><polyline class="cls-1" points="176.33 70.1 177.33 70.1 178.23 70.7 179.03 71.7 179.43 72.1"/><polyline class="cls-1" points="177.53 78.7 177.53 78.9 177.33 78.9 177.33 79.1"/><polyline class="cls-1" points="176.53 76.4 176.73 76.2 176.93 76.2 176.93 76 176.93 75.8 176.93 75.6 176.73 75.4 176.53 75.4"/><polyline class="cls-1" points="176.53 76.2 176.33 76.2 176.13 76 176.13 75.8 176.13 75.6 176.33 75.6 176.33 75.4 176.53 75.4"/><polyline class="cls-1" points="176.53 75.4 176.73 75.4 176.93 75.6 176.93 75.8 176.93 76 176.73 76.2 176.53 76.2"/><polyline class="cls-1" points="176.33 71.9 176.33 71.9 176.13 71.7 176.13 71.5 175.93 71.5 175.93 71.3 176.13 71.1 176.13 70.9 176.33 70.9"/><polyline class="cls-1" points="176.33 70.9 176.53 70.9 176.53 71.1 176.73 71.3 176.73 71.5 176.53 71.7 176.53 71.9 176.33 71.9"/><polyline class="cls-1" points="176.73 77.7 176.73 77.7 176.93 77.7 177.13 77.9 177.33 78.1 177.33 78.3"/><line class="cls-1" x1="174.53" y1="77.7" x2="174.33" y2="77.7"/><line class="cls-1" x1="176.13" y1="73.3" x2="176.13" y2="73.3"/><polyline class="cls-1" points="176.53 75.4 176.33 75.4 176.13 75.6 176.13 75.8 176.13 76 176.33 76.2 176.53 76.4"/><line class="cls-1" x1="176.53" y1="75.4" x2="176.73" y2="75"/><line class="cls-1" x1="176.53" y1="76.4" x2="176.73" y2="76.6"/><polyline class="cls-1" points="175.93 71.5 175.93 71.7 176.13 71.7 176.13 71.9 176.33 71.9"/><polyline class="cls-1" points="176.33 71.9 176.53 71.9 176.73 71.7 176.73 71.5 176.73 71.3"/><line class="cls-1" x1="175.93" y1="71.5" x2="175.93" y2="71.5"/><polyline class="cls-1" points="176.33 70.9 176.13 70.9 176.13 71.1 175.93 71.3 175.93 71.5"/><polyline class="cls-1" points="176.73 71.3 176.73 71.1 176.53 71.1 176.53 70.9 176.33 70.9"/><line class="cls-1" x1="176.73" y1="71.3" x2="177.13" y2="71.3"/><polyline class="cls-1" points="176.73 77.5 176.73 77.5 176.73 77.7"/><line class="cls-1" x1="175.93" y1="79.1" x2="175.93" y2="79.1"/><line class="cls-1" x1="161.93" y1="79.9" x2="161.53" y2="70.3"/><line class="cls-1" x1="163.43" y1="79.9" x2="161.93" y2="79.9"/><line class="cls-1" x1="161.53" y1="70.3" x2="163.03" y2="70.3"/><polyline class="cls-1" points="177.13 81.8 175.93 83 174.53 83.8 173.03 84.4 171.23 84.4 169.73 84.2 168.33 83.4 166.93 82.2 165.83 80.7 165.03 78.9 164.43 77.2 164.03 75"/><polyline class="cls-1" points="163.83 75 163.83 77.5 163.43 79.9"/><polyline class="cls-1" points="163.43 79.9 163.43 80.1 163.63 80.3 163.63 80.5 163.83 80.7 163.83 80.9 163.83 81.1 164.03 81.1 164.03 81.3"/><polyline class="cls-1" points="164.03 81.3 166.13 82.4 168.13 83.6 169.73 84.8 170.83 85.7"/><polyline class="cls-1" points="172.03 85.7 172.03 85.7 171.83 85.7 171.63 85.7 171.43 85.7 171.23 85.7 171.03 85.7 170.83 85.7"/><polyline class="cls-1" points="172.03 85.7 174.13 84.6 175.93 83.2 177.33 81.8 177.73 81.4"/><line class="cls-1" x1="175.53" y1="70.9" x2="175.73" y2="70.9"/><line class="cls-1" x1="175.53" y1="71.1" x2="175.73" y2="71.1"/><line class="cls-1" x1="174.13" y1="71.7" x2="173.93" y2="71.7"/><polyline class="cls-1" points="164.03 75 164.23 73.1 164.63 71.1 165.43 69.4 166.33 67.8 167.53 66.4 169.13 65.6 170.43 65.1 172.23 65.1 173.83 65.4 175.13 66.2 176.53 67.2 176.73 67.4"/><polyline class="cls-1" points="177.53 67.6 176.73 67 175.13 66 173.43 64.9 171.23 63.7"/><polyline class="cls-1" points="170.03 63.7 170.03 63.7 170.23 63.7 170.43 63.7 170.63 63.7 170.83 63.7 171.03 63.7 171.23 63.7"/><polyline class="cls-1" points="170.03 63.7 168.93 65.1 167.33 66.2 165.63 67.6 163.63 69"/><polyline class="cls-1" points="163.03 70.3 163.03 70.1 163.23 69.9 163.23 69.7 163.23 69.5 163.43 69.4 163.43 69.2 163.43 69 163.63 69"/><polyline class="cls-1" points="163.03 70.3 163.63 72.7 163.83 75"/><line class="cls-1" x1="164.03" y1="75" x2="163.83" y2="75"/><line class="cls-1" x1="175.53" y1="70.7" x2="175.73" y2="70.7"/><line class="cls-1" x1="175.53" y1="71.1" x2="175.53" y2="71.1"/><polyline class="cls-1" points="175.73 74.6 175.73 74.4 175.93 74.4 175.93 74.2 175.93 74 175.93 73.8 175.93 73.6 175.73 73.6 175.53 73.4"/><polyline class="cls-1" points="175.73 74.4 175.53 74.4 175.33 74.4 175.33 74.2 175.33 74 175.33 73.8 175.33 73.6 175.53 73.6"/><polyline class="cls-1" points="175.53 73.6 175.73 73.6 175.93 73.6 175.93 73.8 175.93 74 175.93 74.2 175.73 74.4"/><line class="cls-1" x1="175.53" y1="70.7" x2="175.53" y2="70.7"/><line class="cls-1" x1="175.53" y1="71.1" x2="175.53" y2="71.1"/><line class="cls-1" x1="175.53" y1="71.3" x2="175.53" y2="71.5"/><line class="cls-1" x1="175.53" y1="71.1" x2="175.53" y2="71.1"/><line class="cls-1" x1="175.53" y1="70.7" x2="175.53" y2="70.7"/><line class="cls-1" x1="175.33" y1="71.1" x2="175.33" y2="71.1"/><line class="cls-1" x1="175.33" y1="70.7" x2="175.33" y2="70.7"/><line class="cls-1" x1="175.33" y1="70.7" x2="175.53" y2="70.7"/><line class="cls-1" x1="175.33" y1="71.1" x2="175.33" y2="71.1"/><line class="cls-1" x1="175.53" y1="71.5" x2="175.33" y2="71.5"/><line class="cls-1" x1="175.53" y1="71.5" x2="175.73" y2="71.5"/><line class="cls-1" x1="173.23" y1="73.6" x2="173.43" y2="73.4"/><polyline class="cls-1" points="175.33 77.9 175.53 77.9 175.53 77.7 175.73 77.5 175.73 77.3 175.73 77.2 175.53 77.2 175.53 77 175.33 77"/><polyline class="cls-1" points="175.33 77.9 175.13 77.9 175.13 77.7 174.93 77.5 174.93 77.3 175.13 77.2 175.13 77 175.33 77"/><polyline class="cls-1" points="175.33 77 175.53 77 175.53 77.2 175.73 77.3 175.73 77.5 175.53 77.7 175.53 77.9 175.33 77.9"/><polyline class="cls-1" points="175.53 73.4 175.53 73.6 175.33 73.6 175.33 73.8 175.13 74 175.33 74.2 175.33 74.4 175.53 74.4 175.73 74.6"/><line class="cls-1" x1="175.53" y1="73.4" x2="175.73" y2="73.3"/><line class="cls-1" x1="175.73" y1="74.6" x2="175.73" y2="74.8"/><line class="cls-1" x1="173.43" y1="75.6" x2="173.43" y2="75.6"/><polyline class="cls-1" points="174.73 72.5 174.73 72.5 174.53 72.5 174.53 72.3 174.53 72.1 174.53 71.9 174.73 71.7"/><polyline class="cls-1" points="174.73 71.7 174.93 71.7 175.13 71.9 175.13 72.1 175.13 72.3 175.13 72.5 174.93 72.5 174.73 72.5"/><polyline class="cls-1" points="175.33 77 175.13 77 175.13 77.2 174.93 77.3 174.93 77.5 174.93 77.7 175.13 77.7 175.13 77.9 175.33 77.9"/><line class="cls-1" x1="175.33" y1="77" x2="175.53" y2="76.8"/><line class="cls-1" x1="175.33" y1="77.9" x2="175.53" y2="78.1"/><line class="cls-1" x1="174.73" y1="77.3" x2="174.73" y2="77.3"/><line class="cls-1" x1="174.53" y1="77.5" x2="174.73" y2="77.5"/><line class="cls-1" x1="174.53" y1="77.5" x2="174.53" y2="77.5"/><line class="cls-1" x1="174.73" y1="77.5" x2="174.53" y2="77.5"/><polyline class="cls-1" points="174.33 72.1 174.53 72.3 174.53 72.5 174.73 72.7"/><polyline class="cls-1" points="174.73 72.7 174.93 72.7 175.13 72.5 175.13 72.3 175.13 72.1"/><line class="cls-1" x1="174.33" y1="72.1" x2="174.33" y2="72.1"/><polyline class="cls-1" points="174.73 71.7 174.73 71.7 174.53 71.7 174.33 71.9 174.33 72.1"/><polyline class="cls-1" points="175.13 72.1 175.13 71.9 175.13 71.7 174.93 71.7 174.73 71.7"/><line class="cls-1" x1="175.13" y1="72.1" x2="175.53" y2="72.1"/><line class="cls-1" x1="174.33" y1="77.5" x2="174.53" y2="77.5"/><line class="cls-1" x1="174.53" y1="77.2" x2="174.53" y2="77.2"/><line class="cls-1" x1="174.53" y1="77.2" x2="174.53" y2="77.2"/><polyline class="cls-1" points="174.13 76.4 174.33 76.4 174.53 76.4 174.53 76.2 174.53 76 174.53 75.8 174.53 75.6 174.33 75.4 174.13 75.4"/><polyline class="cls-1" points="174.13 76.4 174.13 76.4 173.93 76.2 173.83 76 173.83 75.8 173.93 75.6 174.13 75.6"/><polyline class="cls-1" points="174.13 75.6 174.33 75.6 174.53 75.8 174.53 76 174.53 76.2 174.33 76.2 174.33 76.4 174.13 76.4"/><line class="cls-1" x1="174.13" y1="72.5" x2="174.13" y2="72.5"/><line class="cls-1" x1="173.83" y1="72.5" x2="173.83" y2="72.5"/><line class="cls-1" x1="173.93" y1="72.9" x2="173.93" y2="72.9"/><line class="cls-1" x1="174.13" y1="72.5" x2="173.93" y2="72.9"/><line class="cls-1" x1="173.93" y1="72.9" x2="173.93" y2="72.5"/><line class="cls-1" x1="173.93" y1="72.5" x2="173.83" y2="72.5"/><line class="cls-1" x1="173.93" y1="72.5" x2="173.83" y2="72.5"/><line class="cls-1" x1="173.93" y1="72.5" x2="174.13" y2="72.5"/><line class="cls-1" x1="174.13" y1="72.5" x2="173.93" y2="72.5"/><line class="cls-1" x1="173.93" y1="72.5" x2="173.93" y2="72.5"/><line class="cls-1" x1="173.93" y1="72.9" x2="173.93" y2="73.1"/><line class="cls-1" x1="174.13" y1="72.5" x2="174.13" y2="72.5"/><line class="cls-1" x1="174.13" y1="72.5" x2="174.13" y2="72.5"/><polyline class="cls-1" points="173.93 74.2 173.93 74.2 173.83 74.2 173.83 74 173.63 73.8 173.63 73.6 173.83 73.6 173.83 73.4 173.93 73.4"/><polyline class="cls-1" points="173.93 73.4 174.13 73.4 174.13 73.6 174.33 73.6 174.33 73.8 174.33 74 174.13 74.2 173.93 74.2"/><line class="cls-1" x1="173.93" y1="73.1" x2="173.93" y2="73.1"/><line class="cls-1" x1="173.83" y1="72.5" x2="173.93" y2="72.5"/><line class="cls-1" x1="173.83" y1="75" x2="173.83" y2="75"/><line class="cls-1" x1="173.83" y1="75.4" x2="173.83" y2="75.4"/><polyline class="cls-1" points="174.13 75.4 173.93 75.4 173.93 75.6 173.83 75.8 173.83 76 173.83 76.2 173.93 76.4 174.13 76.4"/><line class="cls-1" x1="174.13" y1="75.4" x2="174.33" y2="75.2"/><line class="cls-1" x1="174.13" y1="76.4" x2="174.33" y2="76.6"/><line class="cls-1" x1="173.63" y1="75.6" x2="173.83" y2="75.4"/><line class="cls-1" x1="173.63" y1="74.8" x2="173.83" y2="74.8"/><polyline class="cls-1" points="173.63 73.8 173.63 74 173.83 74.2 173.83 74.4 173.93 74.4"/><polyline class="cls-1" points="173.93 74.4 174.13 74.4 174.33 74.2 174.33 74 174.33 73.8"/><line class="cls-1" x1="173.63" y1="73.8" x2="173.63" y2="73.8"/><polyline class="cls-1" points="173.93 73.4 173.83 73.4 173.63 73.6 173.63 73.8"/><polyline class="cls-1" points="174.33 73.8 174.33 73.6 174.13 73.4 173.93 73.4"/><line class="cls-1" x1="174.33" y1="73.8" x2="174.73" y2="73.8"/><line class="cls-1" x1="173.63" y1="75.6" x2="173.63" y2="75.6"/><line class="cls-1" x1="173.63" y1="75.4" x2="173.63" y2="75.6"/><line class="cls-1" x1="173.63" y1="75.2" x2="173.63" y2="75.2"/><line class="cls-1" x1="173.63" y1="74.8" x2="173.63" y2="74.8"/><line class="cls-1" x1="173.63" y1="74.8" x2="173.63" y2="74.8"/><polyline class="cls-1" points="173.63 75.2 173.63 75.2 173.43 75.2"/><line class="cls-1" x1="173.63" y1="75.2" x2="173.63" y2="75.2"/><line class="cls-1" x1="173.43" y1="75.4" x2="173.63" y2="75.4"/><line class="cls-1" x1="173.63" y1="74.8" x2="173.43" y2="74.8"/><line class="cls-1" x1="173.63" y1="74.8" x2="173.63" y2="74.8"/><polyline class="cls-1" points="173.43 75.2 173.43 75.2 173.63 75.2"/><line class="cls-1" x1="172.03" y1="79.5" x2="172.43" y2="79.7"/><line class="cls-1" x1="176.13" y1="81.8" x2="171.23" y2="82"/><line class="cls-1" x1="175.53" y1="67.4" x2="170.63" y2="67.4"/><polyline class="cls-1" points="167.33 80.3 169.13 81.6 171.23 82"/><polyline class="cls-1" points="170.63 67.4 168.53 68.2 166.73 69.7"/><polyline class="cls-1" points="175.73 67.6 177.33 67.8 179.23 68.8 180.43 70.1 181.23 72.1 181.63 74.4 181.43 76.6 180.63 78.7 179.63 80.1 177.93 81.3 176.33 81.6"/><polyline class="cls-1" points="176.13 81.8 174.73 81.8 173.63 81.3 172.43 80.3 171.43 78.9 170.63 77.3 170.23 75.8 170.23 74 170.43 72.3 171.03 70.7 171.83 69.4 173.03 68.2 174.33 67.6 175.53 67.4"/><polyline class="cls-1" points="176.13 81.8 176.33 81.8 176.33 81.6"/><polyline class="cls-1" points="176.33 81.6 174.73 81.4 173.03 80.5 171.83 79.1 170.83 77.2 170.43 74.8 170.63 72.5 171.43 70.5 172.43 69.2 174.13 67.8 175.73 67.6"/><polyline class="cls-1" points="175.53 67.4 175.73 67.4 175.73 67.6"/><polyline class="cls-1" points="156.63 112.7 159.13 112.5 161.73 111.7 164.23 110.7 166.53 109.2 169.13 107.4 171.23 105.3 173.43 102.7 175.33 100 177.13 96.9 178.63 93.5 180.03 90 181.03 86.1 181.93 82.2 182.73 78.1 183.13 73.8 183.33 69.7 183.33 65.4"/><polyline class="cls-1" points="182.73 65.4 182.93 68.6 182.73 71.7 182.53 74.8 182.33 77.7 181.83 80.9 181.23 83.8 180.43 86.7 179.63 89.4"/><line class="cls-1" x1="160.13" y1="90.4" x2="179.63" y2="89.4"/><polyline class="cls-1" points="160.13 90.4 158.73 93.9 157.23 97.4 155.43 100.6 153.73 103.3 151.53 105.8 149.23 108.2 146.83 109.9 144.53 111.5 142.03 112.5 139.23 113.2 136.73 113.6 134.03 113.4 131.23 113.1 128.73 112.1 126.13 110.9 123.63 109.2 121.13 107.2 118.93 104.9 116.83 102.1 114.63 99.2 113.33 96.9"/><polyline class="cls-1" points="183.33 65.4 182.93 61.2 182.33 56.9 181.63 52.8 180.63 48.7 179.43 44.8 178.03 41.1 176.33 37.5 174.53 34.4 172.63 31.3 170.43 28.8 168.13 26.2 165.83 24.3 163.23 22.7 160.73 21.4 158.03 20.4 155.43 20 152.73 19.8 152.53 19.8"/><polyline class="cls-1" points="110.73 39.5 112.13 36.4 113.93 33.3 115.83 30.5 118.03 28 120.33 25.8 122.63 24.1 125.23 22.7 127.73 21.5 130.23 21 133.03 20.8 135.53 21 138.23 21.4 141.03 22.3 143.53 23.7 146.03 25.5 148.43 27.4 150.73 29.9 152.73 32.7 154.83 35.6 156.63 38.9 158.13 42.4"/><line class="cls-1" x1="177.73" y1="41.6" x2="158.13" y2="42.4"/><polyline class="cls-1" points="177.73 41.6 178.83 44.4 179.83 47.1 180.63 50 181.23 53 181.83 56.1 182.33 59.2 182.53 62.3 182.73 65.4"/><line class="cls-1" x1="183.33" y1="65.4" x2="182.73" y2="65.4"/><polyline class="cls-1" points="158.13 27 155.63 26.6 152.73 26 150.03 24.9 147.83 23.7 146.43 22.7 146.23 21.9 147.23 21.5 149.23 21.4"/><polyline class="cls-1" points="156.43 21.9 157.83 22.3 159.93 23.1 161.13 24.5 161.33 25.6 160.33 26.4 158.13 27"/><line class="cls-1" x1="149.23" y1="21.4" x2="150.93" y2="21.4"/><polyline class="cls-1" points="176.13 78.5 176.13 78.7 176.13 78.9"/><polyline class="cls-1" points="176.73 77.5 176.53 77.7 176.33 77.9 176.13 78.1 176.13 78.5"/><polyline class="cls-1" points="177.53 78.3 177.33 77.9 177.13 77.7 176.93 77.5 176.73 77.5"/><polyline class="cls-1" points="177.53 78.7 177.53 78.5 177.53 78.3"/><polyline class="cls-1" points="176.53 70.3 177.33 70.3 178.43 70.9 179.43 72.3 180.03 74 179.83 76 179.23 77.3 178.23 78.3 177.53 78.7"/><polyline class="cls-1" points="179.43 74.2 179.43 74.2 179.43 74.4"/><polyline class="cls-1" points="179.63 74.2 179.63 74.2 179.43 74.2"/><polyline class="cls-1" points="179.83 74.2 179.83 74.2 179.63 74.2"/><line class="cls-1" x1="179.83" y1="74.4" x2="179.83" y2="74.2"/><line class="cls-1" x1="179.83" y1="74.4" x2="179.83" y2="74.4"/><polyline class="cls-1" points="179.83 74.6 179.83 74.6 179.83 74.4"/><line class="cls-1" x1="179.83" y1="74.6" x2="179.83" y2="74.6"/><line class="cls-1" x1="179.83" y1="74.8" x2="179.83" y2="74.6"/><line class="cls-1" x1="179.83" y1="74.8" x2="179.83" y2="74.8"/><polyline class="cls-1" points="179.63 75 179.83 75 179.83 74.8"/><line class="cls-1" x1="179.63" y1="74.8" x2="179.63" y2="75"/><polyline class="cls-1" points="179.43 74.8 179.43 74.8 179.63 74.8"/><polyline class="cls-1" points="179.43 74.6 179.43 74.6 179.43 74.8"/><polyline class="cls-1" points="179.63 74.6 179.63 74.6 179.43 74.6"/><line class="cls-1" x1="179.43" y1="74.4" x2="179.63" y2="74.6"/><line class="cls-1" x1="179.43" y1="74.4" x2="179.43" y2="74.4"/><line class="cls-1" x1="177.13" y1="70.5" x2="177.13" y2="70.7"/><polyline class="cls-1" points="177.33 70.5 177.33 70.5 177.13 70.5"/><line class="cls-1" x1="177.53" y1="70.5" x2="177.33" y2="70.5"/><polyline class="cls-1" points="177.33 71.3 177.33 71.3 177.53 71.3"/><line class="cls-1" x1="177.13" y1="71.3" x2="177.33" y2="71.3"/><line class="cls-1" x1="177.13" y1="71.1" x2="177.13" y2="71.3"/><line class="cls-1" x1="177.13" y1="71.1" x2="177.13" y2="71.1"/><line class="cls-1" x1="177.33" y1="71.3" x2="177.13" y2="71.1"/><line class="cls-1" x1="177.33" y1="71.3" x2="177.33" y2="71.3"/><line class="cls-1" x1="177.33" y1="71.3" x2="177.33" y2="71.3"/><polyline class="cls-1" points="178.83 76.6 178.83 76.6 178.83 76.8"/><polyline class="cls-1" points="179.03 76.6 179.03 76.6 178.83 76.6"/><line class="cls-1" x1="179.23" y1="76.6" x2="179.03" y2="76.6"/><line class="cls-1" x1="179.23" y1="76.8" x2="179.23" y2="76.6"/><line class="cls-1" x1="179.03" y1="76.8" x2="179.23" y2="76.8"/><polyline class="cls-1" points="179.03 76.6 179.03 76.6 179.03 76.8"/><line class="cls-1" x1="179.03" y1="76.6" x2="179.03" y2="76.6"/><line class="cls-1" x1="179.03" y1="76.6" x2="179.03" y2="76.6"/><line class="cls-1" x1="178.83" y1="76.8" x2="179.03" y2="76.6"/><line class="cls-1" x1="178.83" y1="76.8" x2="178.83" y2="76.8"/><line class="cls-1" x1="178.83" y1="77" x2="178.83" y2="76.8"/><line class="cls-1" x1="178.83" y1="77" x2="178.83" y2="77"/><line class="cls-1" x1="179.03" y1="76.8" x2="178.83" y2="77"/><line class="cls-1" x1="179.03" y1="76.8" x2="179.03" y2="76.8"/><line class="cls-1" x1="179.23" y1="76.8" x2="179.03" y2="76.8"/><polyline class="cls-1" points="179.23 77 179.23 77 179.23 76.8"/><polyline class="cls-1" points="179.23 77.2 179.23 77.2 179.23 77"/><polyline class="cls-1" points="179.03 77.3 179.03 77.3 179.23 77.2"/><line class="cls-1" x1="178.83" y1="77.3" x2="179.03" y2="77.3"/><polyline class="cls-1" points="178.83 77.2 178.83 77.2 178.83 77.3"/><line class="cls-1" x1="178.83" y1="77" x2="178.83" y2="77.2"/><polyline class="cls-1" points="178.83 76.8 178.83 76.8 178.83 77"/><line class="cls-1" x1="173.93" y1="72.5" x2="173.83" y2="72.5"/><polyline class="cls-1" points="173.83 72.3 173.83 72.5 173.93 72.5"/><polyline class="cls-1" points="173.93 72.3 173.93 72.3 173.83 72.3"/><line class="cls-1" x1="173.93" y1="72.5" x2="173.93" y2="72.3"/><line class="cls-1" x1="174.13" y1="72.5" x2="173.93" y2="72.5"/><line class="cls-1" x1="174.13" y1="72.5" x2="174.13" y2="72.5"/><polyline class="cls-1" points="173.93 73.1 174.13 72.7 174.13 72.5"/><line class="cls-1" x1="173.93" y1="73.1" x2="173.93" y2="73.1"/><polyline class="cls-1" points="173.93 72.5 173.93 72.9 173.93 73.1"/><polyline class="cls-1" points="173.83 72.5 173.83 72.5 173.93 72.5"/><line class="cls-1" x1="173.83" y1="72.5" x2="173.83" y2="72.5"/><polyline class="cls-1" points="175.53 70.7 175.53 70.7 175.33 70.7"/><line class="cls-1" x1="175.73" y1="70.7" x2="175.53" y2="70.7"/><line class="cls-1" x1="175.73" y1="70.9" x2="175.73" y2="70.7"/><line class="cls-1" x1="175.53" y1="70.9" x2="175.73" y2="70.9"/><line class="cls-1" x1="175.53" y1="70.7" x2="175.53" y2="70.9"/><line class="cls-1" x1="175.53" y1="70.7" x2="175.53" y2="70.7"/><line class="cls-1" x1="175.33" y1="70.7" x2="175.53" y2="70.7"/><polyline class="cls-1" points="175.33 70.9 175.33 70.9 175.33 70.7"/><line class="cls-1" x1="175.33" y1="71.1" x2="175.33" y2="70.9"/><polyline class="cls-1" points="175.53 71.1 175.53 71.1 175.33 71.1"/><line class="cls-1" x1="175.53" y1="71.1" x2="175.53" y2="71.1"/><line class="cls-1" x1="175.53" y1="71.1" x2="175.53" y2="71.1"/><polyline class="cls-1" points="175.73 71.1 175.73 71.1 175.53 71.1"/><polyline class="cls-1" points="175.73 71.5 175.73 71.3 175.73 71.1"/><polyline class="cls-1" points="175.33 71.5 175.53 71.5 175.73 71.5"/><line class="cls-1" x1="175.33" y1="71.3" x2="175.33" y2="71.5"/><polyline class="cls-1" points="175.53 71.3 175.53 71.3 175.33 71.3"/><line class="cls-1" x1="175.53" y1="71.1" x2="175.53" y2="71.3"/><line class="cls-1" x1="175.53" y1="71.1" x2="175.53" y2="71.1"/><polyline class="cls-1" points="175.33 71.1 175.33 71.1 175.53 71.1"/><line class="cls-1" x1="175.33" y1="70.9" x2="175.33" y2="71.1"/><line class="cls-1" x1="175.33" y1="70.7" x2="175.33" y2="70.9"/><line class="cls-1" x1="174.53" y1="77.3" x2="174.53" y2="77.2"/><line class="cls-1" x1="174.53" y1="77.3" x2="174.53" y2="77.3"/><polyline class="cls-1" points="174.53 77.5 174.53 77.5 174.53 77.3"/><line class="cls-1" x1="174.53" y1="77.5" x2="174.53" y2="77.5"/><line class="cls-1" x1="174.73" y1="77.5" x2="174.53" y2="77.5"/><polyline class="cls-1" points="174.73 77.3 174.73 77.3 174.73 77.5"/><line class="cls-1" x1="174.73" y1="77.3" x2="174.73" y2="77.3"/><polyline class="cls-1" points="174.73 77.5 174.73 77.5 174.73 77.3"/><line class="cls-1" x1="174.53" y1="77.5" x2="174.73" y2="77.5"/><line class="cls-1" x1="174.53" y1="77.5" x2="174.53" y2="77.5"/><polyline class="cls-1" points="174.33 77.3 174.33 77.5 174.53 77.5"/><line class="cls-1" x1="174.33" y1="77.3" x2="174.33" y2="77.3"/><line class="cls-1" x1="174.53" y1="77.2" x2="174.33" y2="77.3"/><line class="cls-1" x1="174.53" y1="77.2" x2="174.53" y2="77.2"/><polyline class="cls-1" points="174.33 76.6 174.53 76.6 174.73 76.4 174.93 76.2 174.93 76 174.73 75.6 174.73 75.4 174.53 75.2 174.33 75.2"/><polyline class="cls-1" points="174.33 75.2 174.13 75.2 173.93 75.4 173.83 75.6 173.83 76 173.83 76.2 173.93 76.4 174.13 76.6 174.33 76.6"/><polyline class="cls-1" points="175.53 78.1 175.73 78.1 175.93 77.9 175.93 77.7 176.13 77.3 175.93 77.2 175.93 77 175.73 76.8 175.53 76.8"/><polyline class="cls-1" points="175.53 76.8 175.13 76.8 175.13 77 174.93 77.2 174.93 77.5 174.93 77.7 175.13 77.9 175.33 78.1 175.53 78.1"/><polyline class="cls-1" points="178.03 78.1 178.23 77.9 178.43 77.7 178.43 77.5 178.43 77.3 178.43 77 178.23 76.8 178.03 76.6 177.93 76.6"/><polyline class="cls-1" points="177.93 76.6 177.73 76.6 177.53 76.8 177.53 77.2 177.53 77.3 177.53 77.5 177.53 77.9 177.73 77.9 178.03 78.1"/><polyline class="cls-1" points="176.73 76.6 176.93 76.4 177.13 76.4 177.13 76 177.33 75.8 177.13 75.6 177.13 75.2 176.93 75.2 176.73 75"/><polyline class="cls-1" points="176.73 75 176.33 75.2 176.33 75.4 176.13 75.6 176.13 75.8 176.13 76.2 176.33 76.4 176.53 76.6 176.73 76.6"/><polyline class="cls-1" points="179.03 76.4 179.23 76.4 179.43 76.2 179.43 76 179.63 75.8 179.43 75.4 179.43 75.2 179.23 75 178.83 75"/><polyline class="cls-1" points="178.83 75 178.63 75 178.43 75.2 178.43 75.4 178.43 75.8 178.43 76 178.63 76.2 178.83 76.4 179.03 76.4"/><polyline class="cls-1" points="179.03 74.4 179.23 74.2 179.43 74.2 179.63 73.8 179.63 73.6"/><polyline class="cls-1" points="178.43 73.6 178.43 74 178.63 74.2 178.83 74.4 179.03 74.4"/><polyline class="cls-1" points="179.03 72.9 178.83 73.1 178.63 73.3 178.43 73.4 178.43 73.6"/><polyline class="cls-1" points="179.63 73.6 179.43 73.4 179.43 73.1 179.23 73.1 179.03 72.9"/><polyline class="cls-1" points="177.53 74.6 177.73 74.6 177.93 74.4 177.93 74.2 178.03 73.8"/><polyline class="cls-1" points="176.93 74 176.93 74.2 177.13 74.4 177.33 74.6 177.53 74.6"/><polyline class="cls-1" points="177.33 73.3 177.13 73.3 176.93 73.4 176.93 73.6 176.93 74"/><polyline class="cls-1" points="178.03 73.8 177.93 73.6 177.93 73.4 177.73 73.3 177.33 73.3"/><polyline class="cls-1" points="175.73 74.8 175.93 74.6 176.13 74.4 176.33 74.2 176.33 74 176.33 73.6 176.13 73.4 175.93 73.3 175.73 73.3"/><polyline class="cls-1" points="175.73 73.3 175.53 73.4 175.33 73.4 175.13 73.8 175.13 74 175.13 74.2 175.33 74.6 175.53 74.6 175.73 74.8"/><polyline class="cls-1" points="174.13 74.6 174.33 74.6 174.53 74.4 174.73 74 174.73 73.8"/><polyline class="cls-1" points="173.63 73.8 173.63 74.2 173.83 74.4 173.93 74.6 174.13 74.6"/><polyline class="cls-1" points="174.13 73.3 173.93 73.3 173.83 73.4 173.63 73.6 173.63 73.8"/><polyline class="cls-1" points="174.73 73.8 174.53 73.6 174.53 73.4 174.33 73.3 174.13 73.3"/><polyline class="cls-1" points="174.93 72.9 175.13 72.9 175.33 72.7 175.53 72.3 175.53 72.1"/><polyline class="cls-1" points="174.33 72.1 174.33 72.5 174.53 72.7 174.73 72.9 174.93 72.9"/><polyline class="cls-1" points="174.93 71.5 174.73 71.5 174.53 71.7 174.33 71.9 174.33 72.1"/><polyline class="cls-1" points="175.53 72.1 175.53 71.9 175.33 71.5 175.13 71.5 174.93 71.5"/><polyline class="cls-1" points="178.03 72.7 178.23 72.7 178.43 72.5 178.63 72.3 178.63 71.9"/><polyline class="cls-1" points="177.53 72.1 177.53 72.3 177.73 72.5 177.93 72.7 178.03 72.7"/><polyline class="cls-1" points="178.03 71.3 177.93 71.3 177.73 71.5 177.53 71.7 177.53 72.1"/><polyline class="cls-1" points="178.63 71.9 178.43 71.7 178.43 71.5 178.23 71.3 178.03 71.3"/><polyline class="cls-1" points="176.53 72.1 176.73 72.1 176.93 71.9 177.13 71.7 177.13 71.3"/><polyline class="cls-1" points="175.93 71.5 175.93 71.7 176.13 71.9 176.33 72.1 176.53 72.1"/><polyline class="cls-1" points="176.53 70.7 176.33 70.7 176.13 70.9 175.93 71.1 175.93 71.5"/><polyline class="cls-1" points="177.13 71.3 176.93 71.1 176.93 70.9 176.73 70.7 176.53 70.7"/><line class="cls-1" x1="173.43" y1="74.8" x2="173.43" y2="75"/><polyline class="cls-1" points="173.63 74.8 173.63 74.8 173.43 74.8"/><line class="cls-1" x1="173.83" y1="74.8" x2="173.63" y2="74.8"/><line class="cls-1" x1="173.83" y1="75" x2="173.83" y2="74.8"/><line class="cls-1" x1="173.83" y1="75" x2="173.83" y2="75"/><polyline class="cls-1" points="173.63 74.8 173.83 74.8 173.83 75"/><line class="cls-1" x1="173.63" y1="74.8" x2="173.63" y2="74.8"/><line class="cls-1" x1="173.63" y1="74.8" x2="173.63" y2="74.8"/><polyline class="cls-1" points="173.43 75 173.63 75 173.63 74.8"/><polyline class="cls-1" points="173.63 75.2 173.63 75 173.43 75"/><line class="cls-1" x1="173.63" y1="75.2" x2="173.63" y2="75.2"/><line class="cls-1" x1="173.63" y1="75.2" x2="173.63" y2="75.2"/><line class="cls-1" x1="173.63" y1="75.2" x2="173.63" y2="75.2"/><line class="cls-1" x1="173.63" y1="75.2" x2="173.63" y2="75.2"/><line class="cls-1" x1="173.63" y1="75.2" x2="173.63" y2="75.2"/><polyline class="cls-1" points="173.63 75.4 173.63 75.4 173.63 75.2"/><line class="cls-1" x1="173.63" y1="75.4" x2="173.63" y2="75.4"/><line class="cls-1" x1="173.63" y1="75.4" x2="173.63" y2="75.4"/><line class="cls-1" x1="173.83" y1="75.4" x2="173.63" y2="75.4"/><line class="cls-1" x1="173.83" y1="75.4" x2="173.83" y2="75.4"/><line class="cls-1" x1="173.83" y1="75.4" x2="173.83" y2="75.4"/><line class="cls-1" x1="173.83" y1="75.4" x2="173.83" y2="75.4"/><polyline class="cls-1" points="173.63 75.6 173.83 75.6 173.83 75.4"/><line class="cls-1" x1="173.63" y1="75.6" x2="173.63" y2="75.6"/><line class="cls-1" x1="173.43" y1="75.4" x2="173.63" y2="75.6"/><line class="cls-1" x1="173.43" y1="75.4" x2="173.43" y2="75.4"/><line class="cls-1" x1="173.43" y1="75.2" x2="173.43" y2="75.4"/><polyline class="cls-1" points="173.63 75.2 173.63 75.2 173.43 75.2"/><polyline class="cls-1" points="173.43 75.2 173.43 75.2 173.63 75.2"/><polyline class="cls-1" points="173.43 75 173.43 75 173.43 75.2"/><line class="cls-1" x1="178.63" y1="72.3" x2="178.63" y2="72.5"/><polyline class="cls-1" points="178.83 72.1 178.83 72.3 178.63 72.3"/><polyline class="cls-1" points="178.83 71.9 178.83 71.9 178.83 72.1"/><line class="cls-1" x1="178.83" y1="71.9" x2="178.83" y2="71.9"/><line class="cls-1" x1="178.83" y1="72.1" x2="178.83" y2="71.9"/><line class="cls-1" x1="178.83" y1="72.3" x2="178.83" y2="72.1"/><polyline class="cls-1" points="178.63 72.5 178.83 72.5 178.83 72.3"/><polyline class="cls-1" points="179.03 72.5 178.83 72.5 178.63 72.5"/><line class="cls-1" x1="179.03" y1="72.7" x2="179.03" y2="72.5"/><polyline class="cls-1" points="178.63 72.7 178.83 72.7 179.03 72.7"/><polyline class="cls-1" points="178.63 72.5 178.63 72.5 178.63 72.7"/><line class="cls-1" x1="177.13" y1="77.5" x2="177.13" y2="77.5"/><polyline class="cls-1" points="176.33 70.1 176.33 70.1 176.53 70.1 176.53 70.3"/><polyline class="cls-1" points="175.93 79.1 174.93 78.7 174.13 77.9 173.43 77 173.03 75.6 173.03 74.2 173.23 73.1 173.63 71.9 174.33 70.9 175.33 70.3 176.33 70.1"/><polyline class="cls-1" points="175.93 79.1 175.93 79.1 176.13 79.1 176.13 78.9"/><polyline class="cls-1" points="176.13 78.9 175.13 78.5 174.13 77.7 173.43 76.2 173.23 74.2 173.63 72.5 174.53 71.1 175.53 70.5 176.53 70.3"/><line class="cls-1" x1="113.53" y1="89.1" x2="113.93" y2="89.6"/><line class="cls-1" x1="111.93" y1="46.7" x2="111.53" y2="47.3"/><line class="cls-1" x1="150.33" y1="21.7" x2="150.13" y2="22.5"/><line class="cls-1" x1="150.73" y1="21.4" x2="150.53" y2="21.4"/><line class="cls-1" x1="149.63" y1="21.5" x2="147.43" y2="22.1"/><line class="cls-1" x1="157.63" y1="22.9" x2="157.43" y2="22.7"/><line class="cls-1" x1="157.63" y1="24.3" x2="157.83" y2="23.3"/><line class="cls-1" x1="160.13" y1="24.9" x2="158.53" y2="23.5"/><line class="cls-1" x1="178.43" y1="93.9" x2="178.43" y2="93.5"/><line class="cls-1" x1="175.93" y1="36.8" x2="175.73" y2="36.6"/><line class="cls-1" x1="169.93" y1="85.9" x2="171.43" y2="85.7"/><line class="cls-1" x1="170.63" y1="63.7" x2="169.13" y2="63.7"/><line class="cls-1" x1="170.03" y1="47.5" x2="168.53" y2="47.5"/><line class="cls-1" x1="171.23" y1="59.8" x2="171.43" y2="59.8"/><line class="cls-1" x1="179.63" y1="74.6" x2="179.63" y2="74.6"/><line class="cls-1" x1="179.63" y1="74.2" x2="179.63" y2="74.2"/><line class="cls-1" x1="179.63" y1="74.8" x2="179.63" y2="74.8"/><line class="cls-1" x1="179.63" y1="74.6" x2="179.63" y2="74.6"/><line class="cls-1" x1="179.03" y1="76.6" x2="178.83" y2="76.6"/><line class="cls-1" x1="179.03" y1="77" x2="178.83" y2="77"/><line class="cls-1" x1="178.83" y1="77.2" x2="179.03" y2="77.2"/><line class="cls-1" x1="113.13" y1="96.5" x2="113.33" y2="96.9"/><line class="cls-1" x1="175.93" y1="79.1" x2="177.33" y2="79.1"/><line class="cls-1" x1="177.13" y1="71.3" x2="177.33" y2="71.3"/><line class="cls-1" x1="177.33" y1="79.1" x2="177.33" y2="78.9"/><line class="cls-1" x1="110.73" y1="39.5" x2="110.53" y2="39.9"/><line class="cls-1" x1="176.73" y1="77.7" x2="176.53" y2="77.7"/><polyline class="cls-1" points="176.13 78.5 176.13 78.1 176.33 77.9"/><polyline class="cls-1" points="176.33 77.9 176.33 77.9 176.33 77.7 176.53 77.7"/><polyline class="cls-1" points="176.53 77.7 176.53 77.7 176.73 77.7"/><line class="cls-1" x1="176.13" y1="78.9" x2="176.13" y2="78.5"/><line class="cls-1" x1="175.53" y1="70.7" x2="175.33" y2="70.7"/><line class="cls-1" x1="175.33" y1="71.1" x2="175.53" y2="71.1"/><line class="cls-1" x1="174.53" y1="77.5" x2="174.53" y2="77.5"/><line class="cls-1" x1="173.63" y1="75.2" x2="173.63" y2="75.2"/><line class="cls-1" x1="173.63" y1="74.8" x2="173.63" y2="74.8"/><line class="cls-1" x1="173.63" y1="75.4" x2="173.63" y2="75.4"/><line class="cls-1" x1="173.63" y1="75.2" x2="173.63" y2="75.2"/><line class="cls-1" x1="136.73" y1="113.6" x2="156.63" y2="112.7"/><line class="cls-1" x1="152.53" y1="19.8" x2="132.43" y2="20.8"/><line class="cls-2" x1="162.03" y1="23.5" x2="194.53" y2="23.5"/><line class="cls-2" x1="175.93" y1="53.9" x2="208.43" y2="53.9"/><line class="cls-2" x1="180.63" y1="74.8" x2="208.43" y2="74.8"/><line class="cls-2" x1="81.63" y1="68.5" x2="109.43" y2="68.5"/><text class="cls-3" transform="translate(35.55 71.5)">触点式接口</text><text class="cls-3" transform="translate(201.4 26.2)">灯环</text><text class="cls-3" transform="translate(213.93 56.5)">网线转接口</text><text class="cls-3" transform="translate(215.3 77.45)">末端I<tspan class="cls-4" x="18.34" y="0">/</tspan><tspan x="21.39" y="0">O</tspan></text></svg>