<?xml version="1.0" encoding="utf-8"?>
<!-- Generator: Adobe Illustrator 24.0.1, SVG Export Plug-In . SVG Version: 6.00 Build 0)  -->
<svg version="1.1" id="图层_1" xmlns="http://www.w3.org/2000/svg" xmlns:xlink="http://www.w3.org/1999/xlink" x="0px" y="0px"
	 viewBox="0 0 359.1 365.5" style="enable-background:new 0 0 359.1 365.5;" xml:space="preserve">
<style type="text/css">
	.st0{fill:#F20000;}
	.st1{font-family:'SourceHanSansSC-Regular-GBpc-EUC-H';}
	.st2{font-size:12px;}
	.st3{fill:none;stroke:#000000;stroke-width:0.709;stroke-linecap:round;stroke-linejoin:round;stroke-miterlimit:10;}
	.st4{fill:none;stroke:#FF0000;stroke-width:0.75;stroke-miterlimit:10;}
	.st5{fill:#FF0000;}
	.st6{fill:none;stroke:#040000;stroke-width:0.75;stroke-miterlimit:10;}
	.st7{font-family:'SourceHanSansSC-Normal-GBpc-EUC-H';}
	.st8{font-size:9px;}
</style>
<text transform="matrix(1 0 0 1 91.0756 301.0254)" class="st0 st1 st2">-</text>
<text transform="matrix(1 0 0 1 160.1121 233.0953)" class="st0 st1 st2">-</text>
<text transform="matrix(1 0 0 1 104.2952 55.8209)" class="st0 st1 st2">-</text>
<text transform="matrix(1 0 0 1 256.088 128.3502)" class="st0 st1 st2">-</text>
<text transform="matrix(1 0 0 1 257.9897 114.8001)" class="st0 st1 st2">-</text>
<text transform="matrix(1 0 0 1 177.6778 34.3304)" class="st0 st1 st2">-</text>
<text transform="matrix(1 0 0 1 146.4549 301.2502)" class="st0 st1 st2">+</text>
<text transform="matrix(1 0 0 1 133.2362 181.7911)" class="st0 st1 st2">+</text>
<text transform="matrix(1 0 0 1 146.4553 75.0501)" class="st0 st1 st2">+</text>
<text transform="matrix(1 0 0 1 208.8324 127.7572)" class="st0 st1 st2">+</text>
<text transform="matrix(1 0 0 1 256.0876 65.7499)" class="st0 st1 st2">+</text>
<text transform="matrix(1 0 0 1 130.8161 104.1501)" class="st0 st1 st2">+</text>
<g>
	<polyline class="st3" points="100.2,330.9 100.3,331.2 100.5,331.7 100.7,332.4 101.2,332.9 101.7,333.4 102.4,333.9 103.1,334.4 
		104,334.9 105,335.4 106.1,335.8 107.3,336.2 108.6,336.6 109.9,336.8 111.4,337.1 112.8,337.4 114.3,337.6 116,337.7 117.5,337.9 
		119.2,338 120.8,338 122.6,338 124.3,337.9 125.9,337.7 127.5,337.6 129.1,337.5 130.6,337.2 132.2,337 133.6,336.6 135,336.3 
		136.3,336 137.4,335.4 138.5,335.1 139.6,334.5 140.5,334 141.3,333.5 142,333 142.5,332.5 143,331.9 143.3,331.4 143.5,330.7 
		143.5,330.2 143.5,330.1 	"/>
	<polyline class="st3" points="89.8,310.6 89.1,310.6 88.7,310.6 88.6,310.6 	"/>
	<polyline class="st3" points="87,318.6 86.5,318.5 86.2,318.5 86.1,318.5 	"/>
	<polyline class="st3" points="93.6,311.6 93.3,311.5 93.1,311.4 92.8,311.4 92.4,311.4 	"/>
	<polyline class="st3" points="86.2,318.5 86.2,318.5 86.6,318.6 87.1,318.8 	"/>
	<polyline class="st3" points="90.1,319.8 90.5,320 90.8,320 	"/>
	<polyline class="st3" points="89.6,319.5 89.6,319.6 89.9,319.8 90.1,320 90.4,320.2 90.7,320.2 90.9,320.3 91,320.3 	"/>
	<polyline class="st3" points="86.7,314.3 86.1,314.3 85.6,314.4 85.3,314.7 85.3,314.8 	"/>
	<polyline class="st3" points="85.4,314.6 85.4,314.4 85.7,314.3 85.8,314.2 86.1,314.2 86.7,314.3 	"/>
	<line class="st3" x1="92.3" y1="311.4" x2="92.3" y2="311.4"/>
	<line class="st3" x1="91.5" y1="311.6" x2="91.5" y2="311.6"/>
	<line class="st3" x1="90.8" y1="320" x2="89.5" y2="319.5"/>
	<line class="st3" x1="89.5" y1="319.5" x2="89.5" y2="319.5"/>
	<polyline class="st3" points="86.1,312.5 86.1,312.6 86.1,312.9 86.5,313.4 87,313.7 	"/>
	<polyline class="st3" points="89.1,318.8 89.1,318.8 89.1,318.6 	"/>
	<polyline class="st3" points="87,313.7 86.3,313.5 86.2,313.4 86.1,313.2 85.9,312.9 85.9,312.8 	"/>
	<line class="st3" x1="90.4" y1="319.8" x2="90.4" y2="319.8"/>
	<line class="st3" x1="90.4" y1="319.8" x2="90.4" y2="319.8"/>
	<polyline class="st3" points="88.5,310.7 88.6,310.7 89,310.6 89.6,310.7 	"/>
	<line class="st3" x1="92.8" y1="311" x2="92.9" y2="311"/>
	<polyline class="st3" points="90.3,319.8 90.4,319.8 90.5,319.8 	"/>
	<polyline class="st3" points="85.3,314.9 85.3,314.8 85.6,314.6 86.1,314.4 86.7,314.4 	"/>
	<line class="st3" x1="89.1" y1="318.6" x2="89.1" y2="318.6"/>
	<polyline class="st3" points="89.1,315.3 89.1,315.3 89,315.3 	"/>
	<line class="st3" x1="91" y1="320" x2="91" y2="320"/>
	<polyline class="st3" points="92.3,312.3 92.3,312.3 92.4,312.1 	"/>
	<polyline class="st3" points="89,316 89,317 89.1,317.9 	"/>
	<polyline class="st3" points="87,313.5 86.5,313.3 86.1,312.9 86.1,312.6 86.1,312.4 	"/>
	<polyline class="st3" points="90.7,319.8 90.7,319.8 90.5,319.6 90.4,319.4 90.4,319.3 90.3,319.1 90.3,319 90.1,318.8 	"/>
	<line class="st3" x1="89.5" y1="314.2" x2="89.4" y2="314.2"/>
	<polyline class="st3" points="89,315.2 89,315.2 89.1,315.2 89.1,315.3 	"/>
	<line class="st3" x1="91" y1="320" x2="91.3" y2="320.3"/>
	<polyline class="st3" points="90.1,318.8 90.1,318.6 90.1,318.5 	"/>
	<polyline class="st3" points="91,312.3 90.4,312.8 89.9,313.7 	"/>
	<polyline class="st3" points="89.4,314.2 89.4,314.2 89.5,314.2 	"/>
	<polyline class="st3" points="91.5,311.6 91.5,311.6 91.4,311.6 	"/>
	<line class="st3" x1="91" y1="319.8" x2="91" y2="319.8"/>
	<line class="st3" x1="91" y1="319.9" x2="91" y2="319.9"/>
	<polyline class="st3" points="93.8,311.5 93.3,311.2 92.9,311 	"/>
	<line class="st3" x1="90.1" y1="316" x2="90.1" y2="316.2"/>
	<line class="st3" x1="90.1" y1="318.5" x2="90.1" y2="318.8"/>
	<line class="st3" x1="86.3" y1="318" x2="86.8" y2="318.2"/>
	<polyline class="st3" points="86.8,314.2 86.2,314 85.9,314 85.7,314.2 85.6,314.2 85.4,314.4 85.3,314.7 	"/>
	<line class="st3" x1="90.1" y1="320.4" x2="90" y2="320.3"/>
	<polyline class="st3" points="89.8,312.4 89.4,313 89,313.7 88.7,314.4 88.5,315.2 88.4,316 88.2,316.7 88.2,317.5 88.4,318.2 
		88.6,318.8 88.9,319.4 89.3,319.8 89.6,320.2 90.1,320.4 90.7,320.4 91.2,320.4 	"/>
	<polyline class="st3" points="85.9,312.6 85.9,312.8 85.9,313 85.9,313.3 85.9,313.4 86.3,313.7 86.5,313.7 86.6,313.8 87,313.8 	
		"/>
	<line class="st3" x1="92.3" y1="312.1" x2="92.3" y2="312.1"/>
	<line class="st3" x1="90.8" y1="314" x2="90.7" y2="314.2"/>
	<polyline class="st3" points="94.3,322.1 94,321.9 93.3,321.3 92.7,320.4 	"/>
	<polyline class="st3" points="94.3,322.1 93.7,321.8 93.3,321.3 	"/>
	<polyline class="st3" points="93.3,321.3 93.8,321.7 94.3,321.9 	"/>
	<polyline class="st3" points="96.6,322.4 96.1,322.2 95.6,321.8 	"/>
	<polyline class="st3" points="95.5,322.2 95.2,322.2 94.5,321.7 94,320.8 	"/>
	<polyline class="st3" points="95.5,322.2 95,321.9 94.5,321.6 	"/>
	<polyline class="st3" points="90.8,318.9 90.7,318.9 90.7,318.8 	"/>
	<polyline class="st3" points="96.5,322.4 96.1,322.2 95.6,321.8 	"/>
	<polyline class="st3" points="94.5,321.4 95,321.9 95.5,322.1 	"/>
	<polyline class="st3" points="96.5,322.3 96.1,322.2 95.6,321.8 	"/>
	<line class="st3" x1="97.5" y1="311.1" x2="97.8" y2="311"/>
	<line class="st3" x1="96.8" y1="312.3" x2="96.8" y2="312.1"/>
	<line class="st3" x1="97.3" y1="311.6" x2="97.2" y2="312.4"/>
	<line class="st3" x1="97.3" y1="311.7" x2="97.3" y2="312.4"/>
	<polyline class="st3" points="97.2,321.7 97.2,321.7 97.4,322.1 97.5,322.3 	"/>
	<polyline class="st3" points="96.9,311.4 96.6,311.4 96.5,311.2 96.5,311.1 	"/>
	<line class="st3" x1="96.5" y1="312.1" x2="96.4" y2="312.3"/>
	<line class="st3" x1="96.5" y1="312.3" x2="96.5" y2="312.1"/>
	<polyline class="st3" points="96.9,312.5 96.6,312.5 96.5,312.4 96.4,312.4 96.4,312.3 	"/>
	<polyline class="st3" points="99.3,322.3 99.3,322.3 99.4,322.7 99.7,323 	"/>
	<polyline class="st3" points="100,311.6 99.8,311.6 99.3,311.6 98.8,311.6 97.9,311.5 97,311.2 	"/>
	<polyline class="st3" points="99.3,310.3 99.4,310.3 99.6,310.3 99.7,310.5 100,310.6 	"/>
	<polyline class="st3" points="100,311.6 99.8,311.6 99.3,311.6 98.8,311.6 97.8,311.5 96.9,311.2 	"/>
	<line class="st3" x1="99.4" y1="310.3" x2="100" y2="310.5"/>
	<line class="st3" x1="100" y1="310.5" x2="99.4" y2="310.2"/>
	<line class="st3" x1="99.2" y1="314.2" x2="99.3" y2="314.2"/>
	<polyline class="st3" points="99.2,312.4 99.2,312.4 99.2,312.3 	"/>
	<polyline class="st3" points="100,312.3 99.8,312.3 99.6,312.1 	"/>
	<line class="st3" x1="100" y1="311.9" x2="99.6" y2="312.1"/>
	<polyline class="st3" points="99.6,312.1 99.8,312.1 100,312.1 	"/>
	<line class="st3" x1="99.2" y1="320.3" x2="99.2" y2="320.4"/>
	<line class="st3" x1="99.2" y1="320" x2="99.2" y2="320"/>
	<line class="st3" x1="100" y1="313.3" x2="98.7" y2="312.9"/>
	<line class="st3" x1="97.4" y1="311.7" x2="97.4" y2="312.4"/>
	<polyline class="st3" points="92.1,315.7 92.2,315.3 92.2,315.1 92.3,314.8 92.4,314.7 92.7,314.3 92.9,313.8 93.2,313.4 
		93.5,313.2 93.7,312.9 94,312.6 94.5,312.4 94.9,312.1 95,312.1 95.2,312 95.4,312 95.5,312 95.7,312 95.9,312 96.1,312 96.4,312 	
		"/>
	<polyline class="st3" points="92.6,312.6 92.2,313 91.8,313.7 91.4,314.3 91,315.1 90.8,315.8 90.7,316.6 90.7,317.4 90.7,318.1 
		90.8,318.9 	"/>
	<polyline class="st3" points="99.4,322.7 99.3,322.4 99.3,322.3 	"/>
	<polyline class="st3" points="97.3,322.1 97.2,321.8 97.2,321.7 	"/>
	<line class="st3" x1="99.1" y1="317.6" x2="99.3" y2="317.6"/>
	<polyline class="st3" points="97.3,314.8 97.2,314.9 97,315.1 96.9,315.2 96.9,315.3 	"/>
	<line class="st3" x1="98.7" y1="312.9" x2="100" y2="313.4"/>
	<line class="st3" x1="100.1" y1="318" x2="92.1" y2="315.7"/>
	<polyline class="st3" points="131.8,62.5 132.7,63 134.6,64 	"/>
	<polyline class="st3" points="134.6,64 136.6,65 138.8,65.8 140.8,66.3 142.4,66.7 144,66.8 145.7,66.7 146.4,66.4 147.1,66.2 
		147.7,65.8 148.4,65.3 149.2,64.1 149.5,63.8 	"/>
	<line class="st3" x1="222.4" y1="117.3" x2="222.1" y2="117.3"/>
	<line class="st3" x1="222.4" y1="116.9" x2="222.5" y2="116.9"/>
	<line class="st3" x1="222.4" y1="119.9" x2="222.5" y2="119.9"/>
	<line class="st3" x1="222.5" y1="120.6" x2="222.4" y2="120.2"/>
	<line class="st3" x1="241" y1="115.5" x2="241" y2="115.3"/>
	<line class="st3" x1="240.7" y1="115.5" x2="240.7" y2="115.5"/>
	<line class="st3" x1="234.6" y1="115.5" x2="234.6" y2="115.3"/>
	<line class="st3" x1="242.6" y1="115.3" x2="242.6" y2="115.3"/>
	<line class="st3" x1="235.1" y1="115.3" x2="235.1" y2="115.5"/>
	<line class="st3" x1="238.3" y1="115.5" x2="238.3" y2="115.5"/>
	<line class="st3" x1="228.9" y1="115" x2="228.9" y2="115"/>
	<polyline class="st3" points="252.2,106.7 252.2,106.7 252.2,105.9 251.9,105 251.5,103.7 251.3,102.2 250.9,100.6 250.6,98.1 
		250.5,95.7 250.5,93.2 	"/>
	<polyline class="st3" points="252.7,77 252.7,77.5 252.5,78.4 252.2,79.9 251.9,81.6 251.5,83.4 251.1,85.3 250.8,88 250.6,90.5 
		250.5,93.2 	"/>
	<polyline class="st3" points="252.7,73.1 252.7,73.3 252.4,73.4 252.2,73.7 251.7,73.9 251.1,74.2 250.5,74.5 249.7,74.6 
		248.9,74.7 247.8,75 246.8,75.1 245.5,75.2 244.4,75.3 243.1,75.3 241.7,75.5 240.4,75.5 239,75.5 237.6,75.5 236.2,75.5 
		234.8,75.5 233.4,75.3 232.2,75.2 230.9,75.1 229.6,75 228.5,74.8 	"/>
	<polyline class="st3" points="228.5,74.8 227.5,74.7 226.4,74.5 225.5,74.3 224.7,74.1 224,73.8 223.4,73.6 223,73.3 222.6,73.2 
		222.5,72.9 222.4,72.7 222.4,72.5 	"/>
	<polyline class="st3" points="153.7,338.8 153.7,338.9 152.8,339.5 151.9,340.2 150.8,340.8 149.6,341.4 148.4,342.1 147,342.6 
		145.6,343.1 144,343.6 142.4,344.1 140.7,344.5 138.9,344.9 137,345.2 135.1,345.6 133.2,345.9 131.3,346.1 129.2,346.3 
		127.2,346.5 125.2,346.7 123,346.7 121,346.7 118.9,346.7 116.8,346.7 114.7,346.5 112.7,346.4 110.8,346.1 108.9,345.9 107,345.6 
		105,345.4 103.3,345 101.6,344.6 100,344.2 98.4,343.7 97,343.2 95.6,342.7 94.3,342.2 93.2,341.6 92.1,340.9 91.2,340.3 
		90.3,339.6 	"/>
	<polyline class="st3" points="87.7,335.2 87.7,335.3 87.7,336.1 88,336.8 88.4,337.5 88.9,338.2 89.4,338.9 90.1,339.5 91,340.2 
		91.9,340.8 92.9,341.4 94.2,342.1 95.5,342.6 96.8,343.1 98.3,343.6 99.8,344.1 101.5,344.5 103.3,344.9 105,345.2 106.8,345.5 
		108.7,345.9 110.7,346 112.7,346.3 114.7,346.4 116.8,346.5 118.8,346.5 121,346.7 123,346.5 125.2,346.5 127.2,346.4 129.2,346.3 
		131.3,346 133.3,345.8 135.2,345.5 137.1,345.1 138.9,344.7 140.7,344.4 142.5,344 144.2,343.5 145.7,343 147.2,342.4 148.5,341.9 
		149.8,341.3 150.9,340.7 152,340 152.9,339.4 153.8,338.8 154.6,338 155.1,337.4 155.6,336.6 156,335.8 156.1,335.2 156.3,334.4 
		156.3,334.2 	"/>
	<polyline class="st3" points="90,327.8 89.4,328.3 88.7,329.1 88.4,329.7 88,330.5 87.7,331.2 87.6,331.9 87.7,332.6 87.9,333.4 
		88.1,334 88.5,334.8 89.1,335.4 89.8,336.2 90.5,336.8 91.4,337.5 92.4,338.1 93.6,338.6 94.7,339.3 96.1,339.8 97.5,340.3 
		99.1,340.8 	"/>
	<polyline class="st3" points="99.1,340.8 100.6,341.3 102.2,341.7 104,342.1 105.8,342.3 107.7,342.7 109.6,343 111.7,343.1 
		113.7,343.3 115.7,343.5 117.8,343.5 119.8,343.6 122,343.6 124,343.5 126.1,343.3 128.2,343.2 130.3,343.1 132.3,342.8 
		134.2,342.6 136.1,342.3 138,341.9 139.8,341.6 141.6,341.2 143.3,340.7 144.9,340.2 146.3,339.6 147.8,339.1 149.1,338.5 
		150.4,338 151.4,337.4 152.4,336.7 153.3,336 154.1,335.3 154.9,334.7 155.4,333.9 155.7,333.1 156,332.5 156.3,331.7 156.3,331 
		156.1,330.3 155.9,329.6 155.5,328.8 155.1,328.2 154.5,327.5 153.7,326.8 	"/>
	<polyline class="st3" points="98.8,323.1 98.3,323.2 96.9,323.9 95.5,324.4 94.2,325 93.1,325.5 92.1,326.1 91,326.8 90.3,327.5 
		89.5,328.2 89,328.9 88.5,329.6 88.1,330.3 87.9,331 87.9,331.7 87.9,332.5 88,333.1 88.2,333.9 88.7,334.5 89.3,335.3 89.9,336 
		90.7,336.6 91.5,337.2 92.6,337.9 93.7,338.5 94.9,339 96.3,339.6 97.7,340.2 99.2,340.5 	"/>
	<polyline class="st3" points="99.2,340.5 100.7,341 102.4,341.4 104.2,341.8 105.9,342.2 107.8,342.4 109.8,342.7 111.7,342.8 
		113.7,343.1 115.7,343.2 117.8,343.2 119.8,343.3 122,343.3 124,343.2 126.1,343.2 128.1,343.1 130.1,342.8 132.2,342.6 
		134.2,342.3 136.1,342.1 137.9,341.7 139.7,341.3 141.5,340.9 143.1,340.4 144.8,340 146.2,339.5 147.7,338.9 149,338.4 
		150.1,337.7 151.3,337.1 152.3,336.5 153.2,335.8 154,335.2 154.6,334.4 155.1,333.8 155.6,333 155.9,332.3 156,331.6 156,330.9 
		156,330.1 155.7,329.5 155.4,328.7 154.9,328.1 154.3,327.3 153.6,326.7 152.8,326 151.8,325.4 150.8,324.7 149.6,324.2 
		148.4,323.6 147,323.1 145.4,322.6 143.9,322.2 143.5,322.1 	"/>
	<polyline class="st3" points="142.9,283.9 142.9,284 142.9,284.6 142.6,285.1 142.2,285.6 141.9,286.3 141.3,286.8 140.6,287.3 
		139.8,287.8 138.9,288.3 137.9,288.8 136.8,289.2 135.6,289.7 134.3,290.1 132.9,290.4 131.5,290.7 130,291 128.5,291.2 127,291.4 
		125.3,291.5 123.6,291.6 122,291.8 120.3,291.8 118.7,291.8 117,291.6 115.4,291.5 113.8,291.4 112.3,291.2 110.8,291 109.4,290.7 
		108,290.4 106.7,290 105.6,289.6 104.4,289.2 103.5,288.8 102.6,288.3 101.7,287.8 101.1,287.3 100.6,286.8 100.1,286.1 
		99.8,285.6 99.6,285.1 99.6,284.5 	"/>
	<polyline class="st3" points="88.9,310.3 88.9,310.3 89.3,310.5 89.8,310.6 	"/>
	<line class="st3" x1="88.6" y1="310.6" x2="88.6" y2="310.7"/>
	<polyline class="st3" points="89.8,310.6 89.8,310.6 89.9,310.6 	"/>
	<polyline class="st3" points="89.8,310.6 89.8,310.6 89.6,310.7 	"/>
	<polyline class="st3" points="86.1,318.5 86.1,318.5 86.2,318.5 	"/>
	<polyline class="st3" points="86.1,318 86.1,318 86.2,318.1 86.3,318.2 87,318.6 	"/>
	<polyline class="st3" points="87.1,318.8 87.1,318.8 87,318.8 87,318.6 	"/>
	<polyline class="st3" points="87,318.6 87,318.6 87,318.5 	"/>
	<polyline class="st3" points="90.1,310.6 90.1,310.6 90,310.6 90,310.7 	"/>
	<line class="st3" x1="91" y1="310.9" x2="91" y2="310.9"/>
	<polyline class="st3" points="87.3,318.9 87.3,318.8 87.2,318.6 	"/>
	<polyline class="st3" points="89.9,310.6 89.4,310.5 89,310.3 	"/>
	<polyline class="st3" points="90.1,310.6 90,310.6 89.9,310.6 	"/>
	<polyline class="st3" points="91,310.9 90.8,310.9 90.5,310.7 90.1,310.6 	"/>
	<polyline class="st3" points="92.7,311 92.2,310.9 91.7,310.9 91.3,310.9 91,310.9 	"/>
	<polyline class="st3" points="89.5,310.9 89.6,310.9 89.8,310.9 	"/>
	<line class="st3" x1="91.8" y1="311" x2="92.2" y2="311.4"/>
	<line class="st3" x1="88.2" y1="319.1" x2="88.2" y2="319.1"/>
	<polyline class="st3" points="88.6,319.4 87.9,319.3 87.5,319.1 87.2,319 86.6,318.8 86.2,318.6 86.2,318.5 	"/>
	<polyline class="st3" points="88.2,319.1 88.5,319.4 88.6,319.5 88.7,319.6 	"/>
	<polyline class="st3" points="87.3,318.9 87.7,319 88,319 88.2,319.1 	"/>
	<polyline class="st3" points="87.1,318.8 87.2,318.8 87.3,318.9 	"/>
	<polyline class="st3" points="87.1,318.2 87.1,318.2 87.1,318.4 	"/>
	<line class="st3" x1="91.8" y1="311.5" x2="91.8" y2="311"/>
	<line class="st3" x1="89.5" y1="319.5" x2="89.5" y2="319.5"/>
	<polyline class="st3" points="85.3,314.8 85.2,315.1 85,315.7 85.2,316.6 85.3,317 85.6,317.4 86.2,317.9 86.7,318.2 	"/>
	<polyline class="st3" points="86.7,318.2 86.7,318.2 86.7,318.1 	"/>
	<line class="st3" x1="86.7" y1="318.2" x2="86.8" y2="318.2"/>
	<line class="st3" x1="89.5" y1="319.4" x2="88.9" y2="319.4"/>
	<line class="st3" x1="92.3" y1="311.4" x2="92.3" y2="311.4"/>
	<polyline class="st3" points="86.7,314.4 86.7,314.4 86.7,314.3 	"/>
	<polyline class="st3" points="86.7,314.3 86.8,314.3 86.8,314.2 	"/>
	<line class="st3" x1="88.9" y1="319.4" x2="89.4" y2="319"/>
	<line class="st3" x1="93.2" y1="311.5" x2="93.1" y2="311.5"/>
	<line class="st3" x1="92.2" y1="311.4" x2="91.5" y2="311.7"/>
	<polyline class="st3" points="93.3,311.6 93.3,311.6 93.2,311.6 93.2,311.5 	"/>
	<line class="st3" x1="89.5" y1="319.5" x2="90.4" y2="319.8"/>
	<line class="st3" x1="89.5" y1="319.5" x2="89.5" y2="319.5"/>
	<line class="st3" x1="89.3" y1="310.7" x2="89.3" y2="310.7"/>
	<polyline class="st3" points="87,313.7 87,313.7 87,313.5 	"/>
	<polyline class="st3" points="89.3,310.7 88.6,310.7 87.9,310.9 87.5,311 87.1,311.1 86.5,311.7 86.1,312.4 86.1,312.5 	"/>
	<line class="st3" x1="87" y1="313.7" x2="87" y2="313.8"/>
	<line class="st3" x1="89.3" y1="310.7" x2="89.4" y2="310.7"/>
	<polyline class="st3" points="90.4,319.8 90.4,319.8 90.3,319.8 	"/>
	<line class="st3" x1="90.8" y1="320" x2="90.8" y2="320"/>
	<polyline class="st3" points="90.4,319.8 90.5,319.8 90.7,319.9 90.8,320 	"/>
	<line class="st3" x1="91.5" y1="311.6" x2="91.5" y2="311.6"/>
	<polyline class="st3" points="87.2,313.7 87.2,313.7 87.2,313.8 87.2,313.9 	"/>
	<polyline class="st3" points="87,314.4 87,314.4 87.1,314.3 	"/>
	<polyline class="st3" points="89.1,318.6 89.1,318.6 89.1,318.8 	"/>
	<polyline class="st3" points="89.6,310.7 89.8,310.7 90,310.7 	"/>
	<polyline class="st3" points="88.4,310.7 88.4,310.7 88.5,310.7 	"/>
	<polyline class="st3" points="91,310.9 91.3,310.9 91.7,310.9 92.2,310.9 92.6,311 92.8,311 	"/>
	<polyline class="st3" points="90,310.7 90.5,310.7 90.8,310.9 90.9,310.9 91,310.9 	"/>
	<line class="st3" x1="89.4" y1="310.7" x2="89.3" y2="310.7"/>
	<polyline class="st3" points="89.8,310.9 89.6,310.7 89.4,310.7 	"/>
	<polyline class="st3" points="90.4,311.1 90.4,311.1 90.4,311 90.1,310.9 89.9,310.9 89.8,310.9 	"/>
	<polyline class="st3" points="93.7,311.6 93.5,311.6 93.3,311.6 93.2,311.6 93.1,311.5 	"/>
	<line class="st3" x1="93.1" y1="311.5" x2="92.3" y2="311.4"/>
	<polyline class="st3" points="92.3,311.4 92.2,311.4 92.1,311.4 91.9,311.5 91.8,311.5 91.7,311.6 91.5,311.6 	"/>
	<line class="st3" x1="91.5" y1="311.6" x2="92.3" y2="311.9"/>
	<polyline class="st3" points="92.3,311.9 92.4,311.9 92.4,312 92.4,312.1 	"/>
	<line class="st3" x1="92.3" y1="311.9" x2="92.3" y2="311.9"/>
	<line class="st3" x1="89.9" y1="319" x2="89.1" y2="318.8"/>
	<polyline class="st3" points="89.1,318.8 89.1,318.8 89.3,318.9 89.3,319 89.3,319.1 89.4,319.3 89.5,319.4 89.5,319.5 	"/>
	<line class="st3" x1="89.5" y1="319.5" x2="90.3" y2="319.8"/>
	<polyline class="st3" points="90.5,319.8 90.5,319.8 90.7,319.9 90.8,320 	"/>
	<polyline class="st3" points="89.9,318.9 89.9,318.9 89.9,319 	"/>
	<polyline class="st3" points="90.1,318.8 90.1,318.9 90,319 89.9,319 	"/>
	<polyline class="st3" points="86.7,318.1 86.2,317.9 85.6,317.4 85.3,317 85.2,316.6 85,315.8 85.2,315.1 85.3,314.9 	"/>
	<polyline class="st3" points="87.1,318.2 86.8,318.2 86.7,318.1 	"/>
	<polyline class="st3" points="87.9,318.5 87.7,318.5 87.5,318.5 87.1,318.2 	"/>
	<polyline class="st3" points="87,314.4 87.5,314.6 87.6,314.7 87.9,314.8 	"/>
	<polyline class="st3" points="86.7,314.4 86.8,314.4 87,314.4 	"/>
	<polyline class="st3" points="87.9,314.8 88,315.1 88,315.3 88.1,315.8 88.1,317 88.1,317.9 88,318.2 88,318.4 87.9,318.5 	"/>
	<line class="st3" x1="87.9" y1="318.5" x2="87.9" y2="318.5"/>
	<line class="st3" x1="87.9" y1="314.8" x2="87.9" y2="314.8"/>
	<line class="st3" x1="89.4" y1="314.3" x2="89.3" y2="314.2"/>
	<polyline class="st3" points="92.4,312.1 92.6,312 92.8,311.9 92.9,311.9 93.1,311.7 	"/>
	<line class="st3" x1="92.3" y1="312.3" x2="92.3" y2="312.3"/>
	<line class="st3" x1="92.3" y1="312.1" x2="92.4" y2="312.1"/>
	<line class="st3" x1="89.3" y1="314.2" x2="88.9" y2="314"/>
	<line class="st3" x1="88.9" y1="315.2" x2="89.3" y2="314.2"/>
	<polyline class="st3" points="89.1,315.2 89.1,315.2 89,315.2 	"/>
	<line class="st3" x1="91" y1="320" x2="91" y2="320"/>
	<polyline class="st3" points="86.1,312.4 86.2,312.3 86.5,311.7 87.1,311.1 87.5,311 87.9,310.9 88.5,310.7 89.3,310.7 	"/>
	<polyline class="st3" points="87.2,313.7 87.1,313.7 87,313.5 	"/>
	<polyline class="st3" points="88.1,313.8 87.9,313.9 87.7,313.9 87.2,313.7 	"/>
	<polyline class="st3" points="89.5,310.9 90,311 90.3,311 90.4,311.1 	"/>
	<polyline class="st3" points="89.3,310.7 89.4,310.9 89.5,310.9 	"/>
	<line class="st3" x1="88.1" y1="313.8" x2="88.1" y2="313.9"/>
	<polyline class="st3" points="89.8,312.4 90,312 90.3,311.6 90.4,311.4 90.5,311.2 90.4,311.1 	"/>
	<line class="st3" x1="90.4" y1="311.1" x2="90.4" y2="311.1"/>
	<polyline class="st3" points="90.4,311.1 90.4,311.2 90.4,311.4 90.3,311.6 89.6,312.4 89,313.2 88.6,313.5 88.4,313.8 88.1,313.8 
			"/>
	<line class="st3" x1="88.6" y1="318.8" x2="89.1" y2="318.6"/>
	<polyline class="st3" points="89,315.2 88.9,315.7 88.9,316.1 88.9,316.6 88.7,317 88.9,317.5 88.9,317.9 89,318.2 89.1,318.6 	"/>
	<line class="st3" x1="89" y1="315.2" x2="88.5" y2="315.1"/>
	<line class="st3" x1="89.4" y1="314.2" x2="89.4" y2="314.2"/>
	<polyline class="st3" points="89.1,315.2 89.1,315.2 89,315.2 	"/>
	<line class="st3" x1="90.1" y1="318.8" x2="90.1" y2="318.8"/>
	<line class="st3" x1="90.1" y1="318.5" x2="90.1" y2="318.5"/>
	<polyline class="st3" points="94.6,321.9 94.3,321.9 94.2,321.9 94,321.8 93.7,321.7 93.5,321.4 93.3,321.3 	"/>
	<line class="st3" x1="89.5" y1="314.2" x2="89.5" y2="314.2"/>
	<line class="st3" x1="91.4" y1="311.6" x2="91" y2="311.2"/>
	<line class="st3" x1="88.9" y1="314" x2="89.4" y2="314.2"/>
	<polyline class="st3" points="91.4,311.6 91.2,311.9 90.8,312.1 90.5,312.4 90.3,312.6 90,313 89.8,313.4 89.5,313.8 89.4,314.2 	
		"/>
	<line class="st3" x1="89.1" y1="318.6" x2="89.1" y2="315.3"/>
	<line class="st3" x1="89.9" y1="318.9" x2="89.1" y2="318.6"/>
	<line class="st3" x1="89.1" y1="315.3" x2="89.9" y2="315.6"/>
	<line class="st3" x1="89.1" y1="315.3" x2="89.1" y2="315.3"/>
	<line class="st3" x1="90.3" y1="314.4" x2="90.3" y2="314.4"/>
	<polyline class="st3" points="92.9,311 92.4,311 91.9,311 91.3,311.1 90.8,311.5 90.3,311.9 89.8,312.4 	"/>
	<line class="st3" x1="91.4" y1="311.1" x2="91" y2="311.2"/>
	<line class="st3" x1="91.8" y1="311" x2="91.4" y2="311.1"/>
	<polyline class="st3" points="93.8,311.5 93.6,311.4 93.3,311.2 93.1,311.1 92.8,311 92.4,311 92.2,311 91.8,311 	"/>
	<polyline class="st3" points="88.9,319.4 89.1,319.8 89.4,320 89.6,320.2 89.9,320.3 90.3,320.4 90.5,320.4 90.9,320.4 91.2,320.4 
			"/>
	<line class="st3" x1="88.6" y1="318.8" x2="88.9" y2="319.4"/>
	<polyline class="st3" points="88.5,315.1 88.4,315.6 88.4,316.1 88.2,316.5 88.2,317 88.2,317.5 88.4,317.9 88.5,318.4 88.6,318.8 
			"/>
	<line class="st3" x1="88.9" y1="314" x2="88.5" y2="315.1"/>
	<polyline class="st3" points="91,311.2 90.8,311.5 90.4,311.7 90.1,312 89.9,312.4 89.5,312.8 89.3,313.2 89,313.5 88.9,314 	"/>
	<polyline class="st3" points="90.8,318.9 90.9,319.4 91,319.9 	"/>
	<polyline class="st3" points="89.9,315.6 89.9,315.6 89.9,315.4 	"/>
	<polyline class="st3" points="90.7,314.2 90.7,314.2 90.8,314.2 	"/>
	<line class="st3" x1="89.5" y1="314.2" x2="91.5" y2="311.6"/>
	<line class="st3" x1="90.3" y1="314.4" x2="89.5" y2="314.2"/>
	<line class="st3" x1="91.5" y1="311.6" x2="92.3" y2="311.9"/>
	<line class="st3" x1="90.1" y1="316" x2="90.1" y2="316"/>
	<polyline class="st3" points="90.1,316.2 90.1,316.3 90.1,316.5 	"/>
	<polyline class="st3" points="89.9,315.6 89.9,315.6 90,315.7 90.1,316 	"/>
	<line class="st3" x1="89.9" y1="318.9" x2="89.9" y2="315.6"/>
	<polyline class="st3" points="90.1,318.8 90,318.9 89.9,318.9 	"/>
	<line class="st3" x1="90.1" y1="318.5" x2="90.1" y2="318.5"/>
	<polyline class="st3" points="90.8,314.2 90.5,314.3 90.4,314.4 90.3,314.4 	"/>
	<line class="st3" x1="90.3" y1="314.4" x2="89.5" y2="314.2"/>
	<polyline class="st3" points="89.5,314.2 89.4,314.3 89.4,314.4 89.3,314.6 89.3,314.7 89.3,314.8 89.1,314.9 89.1,315.1 
		89.1,315.3 	"/>
	<line class="st3" x1="89.1" y1="315.3" x2="89.9" y2="315.4"/>
	<polyline class="st3" points="89.9,315.4 90,315.6 90.1,315.7 90.1,316 	"/>
	<line class="st3" x1="91.3" y1="320" x2="91.3" y2="320"/>
	<line class="st3" x1="91.3" y1="320" x2="91" y2="319.9"/>
	<line class="st3" x1="91" y1="319.9" x2="91" y2="320"/>
	<polyline class="st3" points="91,320 91.5,320.7 91.9,321.2 92.6,321.6 92.9,321.7 	"/>
	<polyline class="st3" points="87.1,318.4 87.7,318.5 87.9,318.5 	"/>
	<polyline class="st3" points="86.8,318.2 87,318.4 87.1,318.4 	"/>
	<polyline class="st3" points="87.1,314.3 87,314.2 86.8,314.2 	"/>
	<polyline class="st3" points="87.9,314.8 87.9,314.8 87.7,314.7 87.5,314.4 87.3,314.3 87.2,314.3 87.1,314.3 	"/>
	<polyline class="st3" points="87.9,318.5 88,318.5 88.1,318.4 88.1,318 88.1,317.5 88.1,317 88.1,316.5 88.1,315.8 88,315.3 
		88,315.1 87.9,314.8 	"/>
	<polyline class="st3" points="87.2,318.6 87.1,318.6 87,318.5 	"/>
	<polyline class="st3" points="88.2,319.1 87.7,318.9 87.2,318.6 	"/>
	<polyline class="st3" points="90,320.3 89.9,320.3 89.5,320.2 89.1,319.9 88.6,319.5 88.5,319.4 88.2,319.1 	"/>
	<polyline class="st3" points="87,318.5 86.8,318.5 86.5,318.1 86.2,318 86.1,317.9 85.9,317.9 	"/>
	<line class="st3" x1="89.8" y1="312.4" x2="89.8" y2="312.4"/>
	<polyline class="st3" points="88.1,313.9 88.4,313.8 88.6,313.7 89,313.2 89.4,312.8 89.8,312.4 	"/>
	<polyline class="st3" points="87.2,313.9 87.6,313.9 87.7,313.9 87.9,313.9 88,313.9 88.1,313.9 	"/>
	<polyline class="st3" points="87,313.8 87.1,313.9 87.2,313.9 	"/>
	<line class="st3" x1="93.3" y1="321.3" x2="93.3" y2="321.3"/>
	<polyline class="st3" points="92.3,312.3 92.3,312.3 92.2,312.3 92.3,312.3 	"/>
	<polyline class="st3" points="92.3,311.9 92.3,311.9 92.4,312 92.3,312.1 	"/>
	<line class="st3" x1="90.3" y1="314.4" x2="92.3" y2="311.9"/>
	<polyline class="st3" points="90.7,314.2 90.5,314.3 90.4,314.4 90.3,314.4 	"/>
	<polyline class="st3" points="91,313.8 91,313.8 90.9,313.9 90.8,314 	"/>
	<polyline class="st3" points="95.7,322.2 95.6,322.2 95.4,322.1 95.2,322.1 95,321.9 94.7,321.7 94.5,321.6 	"/>
	<polyline class="st3" points="95,322.1 94.9,322.2 94.5,322.1 	"/>
	<polyline class="st3" points="95,322.1 95,322.1 94.3,322.1 	"/>
	<polyline class="st3" points="93.3,321.3 92.9,320.9 92.8,320.4 	"/>
	<polyline class="st3" points="90.1,316 90.1,315.7 90.3,315.4 90.3,315.3 90.4,315.1 90.4,314.8 90.5,314.7 90.7,314.4 90.8,314.2 
			"/>
	<polyline class="st3" points="90.1,316.5 90.1,316.5 90.1,316.3 90.1,316.2 90.1,316 	"/>
	<polyline class="st3" points="90.8,314.2 90.9,313.9 91,313.9 91,313.8 	"/>
	<polyline class="st3" points="91,318.9 91.2,319.5 91.3,320 	"/>
	<polyline class="st3" points="91.3,320 92.1,320.2 92.7,320.4 	"/>
	<polyline class="st3" points="92.7,320.4 92.7,320.4 92.7,320.3 92.7,320.2 92.6,319.9 	"/>
	<line class="st3" x1="92.8" y1="320.4" x2="92.8" y2="320.4"/>
	<polyline class="st3" points="92.6,319.9 92.4,319.6 92.4,319.5 92.4,319.4 	"/>
	<polyline class="st3" points="92.8,320.4 92.7,320.2 92.6,319.9 	"/>
	<line class="st3" x1="92.8" y1="320.4" x2="93.3" y2="321.3"/>
	<polyline class="st3" points="94.5,321.6 94.5,321.6 94.5,321.4 	"/>
	<polyline class="st3" points="97.2,322.4 96.8,322.4 96.6,322.4 	"/>
	<polyline class="st3" points="92.3,312.9 92.2,313 91.7,313.5 91.3,314.2 91,314.9 90.8,315.6 90.7,316.3 90.5,317.1 90.5,317.9 
		90.7,318.6 	"/>
	<line class="st3" x1="94.6" y1="311.6" x2="94.1" y2="311.5"/>
	<line class="st3" x1="94.1" y1="311.5" x2="94.1" y2="311.5"/>
	<polyline class="st3" points="94.1,311.5 93.8,311.5 93.6,311.6 93.5,311.6 93.2,311.7 92.9,311.9 92.7,312 92.4,312.1 92.3,312.3 
			"/>
	<line class="st3" x1="92.3" y1="312.3" x2="92.3" y2="312.3"/>
	<polyline class="st3" points="92.3,312.3 91.7,313 91,313.8 	"/>
	<line class="st3" x1="91" y1="313.8" x2="91" y2="313.8"/>
	<polyline class="st3" points="91,313.8 90.8,314.2 90.7,314.4 90.5,314.7 90.4,315.1 90.4,315.4 90.3,315.7 90.1,316.1 90.1,316.5 
			"/>
	<line class="st3" x1="90.1" y1="316.5" x2="90.1" y2="316.5"/>
	<line class="st3" x1="90.1" y1="316.5" x2="90.1" y2="317.5"/>
	<line class="st3" x1="90.1" y1="317.5" x2="90.1" y2="318.5"/>
	<line class="st3" x1="90.1" y1="318.5" x2="90.1" y2="318.5"/>
	<polyline class="st3" points="90.1,318.5 90.3,318.8 90.3,319 90.4,319.3 90.5,319.5 90.7,319.8 90.8,320 90.9,320.2 91,320.3 	"/>
	<line class="st3" x1="91.2" y1="320.4" x2="91" y2="320.3"/>
	<line class="st3" x1="91.2" y1="320.4" x2="91.4" y2="320.5"/>
	<polyline class="st3" points="92.4,320.9 92.6,320.9 92.8,320.8 93.1,320.8 93.3,320.7 93.5,320.7 	"/>
	<polyline class="st3" points="96.1,322.3 96,322.3 95.5,322.2 	"/>
	<line class="st3" x1="96.1" y1="322.3" x2="95.5" y2="322.2"/>
	<polyline class="st3" points="94.5,321.6 94.2,321.2 94,320.8 	"/>
	<line class="st3" x1="94" y1="320.8" x2="94" y2="320.8"/>
	<polyline class="st3" points="94,320.8 93.8,320.5 93.7,320.3 	"/>
	<polyline class="st3" points="92.8,318.5 92.8,318.5 92.8,318.4 92.7,318.4 92.7,318.2 92.8,318.1 	"/>
	<line class="st3" x1="92.8" y1="320.4" x2="94" y2="320.8"/>
	<line class="st3" x1="94" y1="320.8" x2="93.7" y2="320.3"/>
	<polyline class="st3" points="93.7,320.3 93.7,319.9 93.6,319.8 93.6,319.6 	"/>
	<polyline class="st3" points="92.4,319.4 92.4,319.4 92.4,319.5 92.8,320.4 	"/>
	<line class="st3" x1="95.6" y1="321.8" x2="95.6" y2="321.8"/>
	<polyline class="st3" points="97.3,322.4 97.3,322.4 96.6,322.4 96.5,322.4 	"/>
	<polyline class="st3" points="95.6,321.8 95.4,321.4 95.1,321.2 	"/>
	<line class="st3" x1="94" y1="320.8" x2="94.5" y2="321.4"/>
	<line class="st3" x1="99.2" y1="310.5" x2="99.2" y2="310.5"/>
	<line class="st3" x1="99.4" y1="310.6" x2="99.4" y2="310.6"/>
	<line class="st3" x1="99.2" y1="310.5" x2="99.2" y2="310.5"/>
	<line class="st3" x1="99.3" y1="310.7" x2="99.2" y2="310.7"/>
	<line class="st3" x1="98.7" y1="310.7" x2="98.7" y2="310.7"/>
	<line class="st3" x1="98.6" y1="310.7" x2="98.6" y2="310.7"/>
	<line class="st3" x1="98.6" y1="310.7" x2="98.6" y2="310.9"/>
	<line class="st3" x1="98.8" y1="310.7" x2="98.7" y2="310.9"/>
	<polyline class="st3" points="95.1,321.2 95.1,321.2 95.2,321.2 	"/>
	<line class="st3" x1="98.4" y1="310.7" x2="98.4" y2="310.9"/>
	<line class="st3" x1="99.3" y1="310.9" x2="99.3" y2="310.7"/>
	<polyline class="st3" points="95.2,321.2 95,320.5 95,320.4 	"/>
	<line class="st3" x1="95.6" y1="321.8" x2="95.2" y2="321.2"/>
	<polyline class="st3" points="96.9,322.3 96.8,322.3 96.5,322.3 	"/>
	<line class="st3" x1="99.3" y1="310.9" x2="99.3" y2="310.7"/>
	<line class="st3" x1="98.4" y1="310.9" x2="98.4" y2="310.9"/>
	<line class="st3" x1="99.3" y1="310.9" x2="99.3" y2="310.7"/>
	<line class="st3" x1="98.4" y1="310.9" x2="98.4" y2="310.9"/>
	<line class="st3" x1="99.8" y1="310.6" x2="99.8" y2="310.7"/>
	<line class="st3" x1="99.4" y1="310.9" x2="99.4" y2="310.9"/>
	<line class="st3" x1="99.6" y1="310.9" x2="99.6" y2="310.7"/>
	<line class="st3" x1="99.6" y1="310.9" x2="99.6" y2="310.9"/>
	<line class="st3" x1="99.4" y1="310.9" x2="99.4" y2="310.9"/>
	<polyline class="st3" points="93.6,319.6 93.6,319.6 93.6,319.8 93.7,319.9 93.7,320 93.7,320.2 93.8,320.3 94,320.5 94,320.8 	"/>
	<line class="st3" x1="94" y1="320.8" x2="95.1" y2="321.2"/>
	<polyline class="st3" points="95.1,321.2 95,320.5 95,320.4 	"/>
	<line class="st3" x1="98.4" y1="310.9" x2="98.3" y2="310.9"/>
	<line class="st3" x1="99.3" y1="310.7" x2="99.3" y2="310.7"/>
	<line class="st3" x1="99.3" y1="310.7" x2="99.4" y2="310.9"/>
	<line class="st3" x1="99.4" y1="310.9" x2="99.4" y2="310.9"/>
	<line class="st3" x1="99.4" y1="310.9" x2="99.6" y2="310.9"/>
	<line class="st3" x1="99.6" y1="310.9" x2="99.6" y2="310.7"/>
	<line class="st3" x1="99.6" y1="310.7" x2="99.8" y2="310.6"/>
	<line class="st3" x1="99.8" y1="310.6" x2="99.6" y2="310.6"/>
	<line class="st3" x1="99.6" y1="310.6" x2="99.3" y2="310.7"/>
	<line class="st3" x1="99.3" y1="310.7" x2="99.3" y2="310.7"/>
	<line class="st3" x1="99.3" y1="310.7" x2="99.3" y2="310.7"/>
	<line class="st3" x1="98.4" y1="310.9" x2="98.4" y2="311"/>
	<line class="st3" x1="98.3" y1="310.9" x2="98.3" y2="310.9"/>
	<line class="st3" x1="98.8" y1="310.7" x2="98.8" y2="310.9"/>
	<line class="st3" x1="98.4" y1="310.9" x2="98.4" y2="311"/>
	<line class="st3" x1="99.3" y1="310.9" x2="99.3" y2="310.9"/>
	<line class="st3" x1="99.3" y1="310.7" x2="99.3" y2="310.9"/>
	<line class="st3" x1="99.8" y1="310.7" x2="99.8" y2="310.7"/>
	<line class="st3" x1="99.7" y1="310.9" x2="99.8" y2="310.7"/>
	<line class="st3" x1="99.6" y1="310.6" x2="99.4" y2="310.6"/>
	<line class="st3" x1="99.2" y1="310.7" x2="99.4" y2="310.6"/>
	<line class="st3" x1="99.2" y1="310.7" x2="99.2" y2="310.7"/>
	<line class="st3" x1="98" y1="311" x2="98" y2="311"/>
	<line class="st3" x1="98.2" y1="311" x2="98.2" y2="311"/>
	<line class="st3" x1="98" y1="311" x2="98" y2="311"/>
	<line class="st3" x1="98.4" y1="310.9" x2="98.4" y2="311"/>
	<line class="st3" x1="97.9" y1="311" x2="97.9" y2="311.1"/>
	<line class="st3" x1="98.4" y1="311" x2="98.4" y2="310.9"/>
	<line class="st3" x1="98.4" y1="310.9" x2="98.4" y2="310.9"/>
	<line class="st3" x1="98.4" y1="310.9" x2="98.4" y2="310.9"/>
	<line class="st3" x1="98.4" y1="311" x2="98.4" y2="311.1"/>
	<line class="st3" x1="98.6" y1="311" x2="98.4" y2="311.1"/>
	<line class="st3" x1="97.8" y1="311" x2="97.8" y2="311.1"/>
	<line class="st3" x1="98.6" y1="310.2" x2="98.6" y2="310.2"/>
	<line class="st3" x1="96.6" y1="311" x2="96.6" y2="311"/>
	<line class="st3" x1="98.6" y1="311.1" x2="98.6" y2="311.1"/>
	<line class="st3" x1="97.8" y1="311.1" x2="97.8" y2="311.1"/>
	<line class="st3" x1="98.4" y1="311.1" x2="98.4" y2="311.1"/>
	<line class="st3" x1="97.8" y1="311.1" x2="97.8" y2="311.1"/>
	<line class="st3" x1="97.9" y1="311.1" x2="97.9" y2="311.1"/>
	<polyline class="st3" points="99.4,310.3 99.4,310.3 99.4,310.2 	"/>
	<line class="st3" x1="97.9" y1="311.1" x2="97.9" y2="311.1"/>
	<line class="st3" x1="98.3" y1="311" x2="98.3" y2="311.1"/>
	<line class="st3" x1="98" y1="311.1" x2="98" y2="311.1"/>
	<line class="st3" x1="98.4" y1="311.1" x2="98.4" y2="311.1"/>
	<line class="st3" x1="98.4" y1="311.1" x2="98.4" y2="311.1"/>
	<line class="st3" x1="98.3" y1="311.1" x2="98.3" y2="311.2"/>
	<line class="st3" x1="98.2" y1="311.2" x2="98.2" y2="311.2"/>
	<line class="st3" x1="98.2" y1="311.2" x2="98.2" y2="311.2"/>
	<line class="st3" x1="98.2" y1="311.2" x2="98.2" y2="311.2"/>
	<line class="st3" x1="98.6" y1="311.1" x2="98.4" y2="311.1"/>
	<line class="st3" x1="97.8" y1="311.1" x2="97.8" y2="311.1"/>
	<line class="st3" x1="98.4" y1="311.1" x2="98.4" y2="311.1"/>
	<polyline class="st3" points="99.1,323.1 98.2,322.7 97.7,322.3 97.3,321.8 97.2,321.7 	"/>
	<polyline class="st3" points="96.4,312.3 96.4,312.3 96.5,312.3 	"/>
	<line class="st3" x1="97.9" y1="311.2" x2="97.9" y2="311.4"/>
	<line class="st3" x1="97.9" y1="311.2" x2="97.9" y2="311.4"/>
	<line class="st3" x1="97.3" y1="311.2" x2="97.3" y2="311.2"/>
	<polyline class="st3" points="96.5,311 96.5,311 96.6,311 	"/>
	<line class="st3" x1="96.5" y1="311.1" x2="96.5" y2="311"/>
	<polyline class="st3" points="96.8,311.5 96.6,311.4 96.5,311.4 96.5,311.2 	"/>
	<line class="st3" x1="97.8" y1="311.4" x2="97.8" y2="311.4"/>
	<line class="st3" x1="97.5" y1="311.1" x2="97.5" y2="311.1"/>
	<line class="st3" x1="97.8" y1="311.4" x2="97.8" y2="311.4"/>
	<line class="st3" x1="97.5" y1="311.4" x2="97.5" y2="311.4"/>
	<line class="st3" x1="97.8" y1="311.4" x2="97.8" y2="311.4"/>
	<line class="st3" x1="97.7" y1="311.4" x2="97.7" y2="311.4"/>
	<line class="st3" x1="97.2" y1="311.2" x2="97.2" y2="311.2"/>
	<polyline class="st3" points="97,311.2 97,311.2 96.9,311.2 97,311.1 97.2,311 97.8,310.6 98.6,310.3 98.9,310.3 99.2,310.3 
		99.3,310.3 	"/>
	<line class="st3" x1="97.9" y1="311.2" x2="97.9" y2="311.4"/>
	<line class="st3" x1="97.5" y1="311.4" x2="97.5" y2="311.4"/>
	<line class="st3" x1="97.3" y1="311.2" x2="97.2" y2="311.2"/>
	<line class="st3" x1="97.9" y1="311.2" x2="97.9" y2="311.2"/>
	<polyline class="st3" points="97.2,311.7 97.2,311.7 96.9,311.9 96.8,311.9 96.6,312 96.5,312.1 	"/>
	<line class="st3" x1="96.6" y1="316.2" x2="96.9" y2="315.3"/>
	<line class="st3" x1="97.2" y1="316.2" x2="97" y2="316.2"/>
	<line class="st3" x1="97.2" y1="316.2" x2="97" y2="316.2"/>
	<polyline class="st3" points="97.2,312 97,312.1 96.8,312.3 	"/>
	<line class="st3" x1="97" y1="312.3" x2="97" y2="312.4"/>
	<line class="st3" x1="97.2" y1="312.1" x2="97" y2="312.3"/>
	<line class="st3" x1="97.4" y1="315.3" x2="97.4" y2="315.3"/>
	<line class="st3" x1="97.5" y1="315.3" x2="97.5" y2="315.3"/>
	<line class="st3" x1="97.5" y1="315.3" x2="97.5" y2="315.3"/>
	<line class="st3" x1="96.9" y1="315.3" x2="97" y2="315.3"/>
	<line class="st3" x1="96.9" y1="315.3" x2="96.9" y2="315.3"/>
	<polyline class="st3" points="96.9,315.3 97,315.1 97.2,314.9 97.3,314.9 97.4,314.8 97.5,314.8 	"/>
	<line class="st3" x1="97.3" y1="316.2" x2="97.2" y2="316.2"/>
	<line class="st3" x1="96.6" y1="316.2" x2="96.6" y2="316.2"/>
	<line class="st3" x1="96.6" y1="316.2" x2="96.6" y2="316.2"/>
	<polyline class="st3" points="96.9,316.8 96.8,316.8 96.6,316.8 96.6,316.7 96.6,316.6 96.6,316.5 96.6,316.2 	"/>
	<polyline class="st3" points="96.5,312.1 96.8,312 97.2,311.7 	"/>
	<polyline class="st3" points="96.5,312.3 96.5,312.3 96.5,312.4 96.6,312.4 96.9,312.5 	"/>
	<polyline class="st3" points="97,312.4 96.9,312.4 96.8,312.3 96.8,312.1 	"/>
	<polyline class="st3" points="96.8,312.1 97,312 97.2,311.9 	"/>
	<line class="st3" x1="97.2" y1="316.2" x2="97.3" y2="316.2"/>
	<line class="st3" x1="97.5" y1="315.3" x2="97.4" y2="315.4"/>
	<line class="st3" x1="98.7" y1="312.9" x2="96.9" y2="312.5"/>
	<line class="st3" x1="96.9" y1="312.5" x2="96.9" y2="312.5"/>
	<line class="st3" x1="97.5" y1="316.1" x2="97.5" y2="316.2"/>
	<line class="st3" x1="97.4" y1="316.2" x2="97.3" y2="316.3"/>
	<line class="st3" x1="97.5" y1="316.3" x2="97.5" y2="316.3"/>
	<line class="st3" x1="97.5" y1="316.3" x2="97.4" y2="316.3"/>
	<line class="st3" x1="97.5" y1="316.1" x2="97.5" y2="316.2"/>
	<line class="st3" x1="97.7" y1="316.3" x2="97.5" y2="316.3"/>
	<line class="st3" x1="96.4" y1="312.3" x2="96.4" y2="312.3"/>
	<polyline class="st3" points="96.4,312.3 95.5,313.4 94.5,314.4 93.3,315.2 92.1,315.7 	"/>
	<line class="st3" x1="97.8" y1="316.3" x2="97.7" y2="316.5"/>
	<line class="st3" x1="97.8" y1="316.5" x2="97.7" y2="316.5"/>
	<line class="st3" x1="97.8" y1="316.3" x2="97.7" y2="316.5"/>
	<line class="st3" x1="97.9" y1="315.4" x2="97.8" y2="315.4"/>
	<line class="st3" x1="97.9" y1="316" x2="97.8" y2="316"/>
	<line class="st3" x1="97.9" y1="315.6" x2="98" y2="315.6"/>
	<line class="st3" x1="97.8" y1="316.3" x2="97.7" y2="316.3"/>
	<line class="st3" x1="97.5" y1="315.3" x2="97.5" y2="315.3"/>
	<line class="st3" x1="97.5" y1="315.3" x2="97.5" y2="315.3"/>
	<line class="st3" x1="97.5" y1="315.3" x2="97.4" y2="315.3"/>
	<line class="st3" x1="97.4" y1="315.3" x2="97.3" y2="315.3"/>
	<line class="st3" x1="97.3" y1="315.3" x2="97.4" y2="315.3"/>
	<line class="st3" x1="97.4" y1="315.3" x2="97.4" y2="315.3"/>
	<line class="st3" x1="97.4" y1="315.3" x2="97.2" y2="316.2"/>
	<polyline class="st3" points="97,316.2 97,316.2 97.2,316.2 	"/>
	<line class="st3" x1="97" y1="316.2" x2="97" y2="316.2"/>
	<line class="st3" x1="97" y1="316.2" x2="97" y2="316.2"/>
	<line class="st3" x1="97.4" y1="316.3" x2="97" y2="316.2"/>
	<line class="st3" x1="97.5" y1="316.2" x2="97.4" y2="316.3"/>
	<line class="st3" x1="97.5" y1="316.2" x2="97.5" y2="316.2"/>
	<polyline class="st3" points="97.3,316.3 97.4,316.3 97.4,316.2 97.5,316.2 	"/>
	<line class="st3" x1="97.2" y1="316.2" x2="97.3" y2="316.3"/>
	<line class="st3" x1="97.2" y1="316.2" x2="97.2" y2="316.2"/>
	<line class="st3" x1="97.2" y1="316.2" x2="97.4" y2="315.4"/>
	<polyline class="st3" points="97.4,315.4 97.4,315.4 97.4,315.3 97.5,315.3 	"/>
	<polyline class="st3" points="100.1,323.2 99.8,323 99.4,322.4 99.3,322.3 	"/>
	<line class="st3" x1="97.9" y1="316" x2="97.9" y2="316"/>
	<polyline class="st3" points="98.2,315.8 98.2,315.7 98.2,315.6 98,315.4 	"/>
	<polyline class="st3" points="98,315.4 98,315.4 98,315.6 	"/>
	<line class="st3" x1="98" y1="315.6" x2="97.9" y2="316"/>
	<line class="st3" x1="97.9" y1="316" x2="97.9" y2="316"/>
	<polyline class="st3" points="97.9,316 98,316 98.2,315.8 	"/>
	<line class="st3" x1="98.2" y1="315.4" x2="98" y2="315.4"/>
	<line class="st3" x1="98.3" y1="315.8" x2="98.2" y2="315.8"/>
	<polyline class="st3" points="96.9,311.5 96.9,311.5 96.8,311.5 	"/>
	<line class="st3" x1="96.8" y1="311.5" x2="96.9" y2="311.4"/>
	<line class="st3" x1="99.2" y1="312.3" x2="96.8" y2="311.5"/>
	<line class="st3" x1="99.2" y1="310.7" x2="99.2" y2="310.9"/>
	<line class="st3" x1="99.2" y1="310.7" x2="99.2" y2="310.7"/>
	<line class="st3" x1="99.3" y1="310.7" x2="99.2" y2="310.7"/>
	<line class="st3" x1="99.4" y1="310.6" x2="99.3" y2="310.7"/>
	<line class="st3" x1="99.2" y1="310.5" x2="99.4" y2="310.6"/>
	<line class="st3" x1="99.2" y1="310.5" x2="99.2" y2="310.5"/>
	<line class="st3" x1="100" y1="310.6" x2="99.2" y2="310.5"/>
	<line class="st3" x1="99.7" y1="310.9" x2="100" y2="310.7"/>
	<line class="st3" x1="99.6" y1="310.9" x2="99.7" y2="310.9"/>
	<line class="st3" x1="99.4" y1="310.9" x2="99.6" y2="310.9"/>
	<line class="st3" x1="99.4" y1="310.9" x2="99.4" y2="310.9"/>
	<line class="st3" x1="99.3" y1="310.9" x2="99.4" y2="310.9"/>
	<line class="st3" x1="99.3" y1="310.9" x2="99.3" y2="310.9"/>
	<line class="st3" x1="99.2" y1="310.9" x2="99.3" y2="310.9"/>
	<line class="st3" x1="98.4" y1="310.9" x2="98.4" y2="310.9"/>
	<line class="st3" x1="98.4" y1="310.9" x2="98.4" y2="310.9"/>
	<line class="st3" x1="98.4" y1="310.9" x2="98.4" y2="310.9"/>
	<line class="st3" x1="98.4" y1="310.7" x2="98.4" y2="310.9"/>
	<line class="st3" x1="98.6" y1="310.7" x2="98.4" y2="310.7"/>
	<line class="st3" x1="98.6" y1="310.7" x2="98.6" y2="310.7"/>
	<line class="st3" x1="98.7" y1="310.7" x2="98.6" y2="310.7"/>
	<line class="st3" x1="98.8" y1="310.7" x2="98.7" y2="310.7"/>
	<line class="st3" x1="98.8" y1="310.7" x2="98.8" y2="310.7"/>
	<line class="st3" x1="99.2" y1="310.9" x2="98.8" y2="310.7"/>
	<line class="st3" x1="99.1" y1="310.9" x2="99.2" y2="310.9"/>
	<line class="st3" x1="98.8" y1="310.9" x2="99.1" y2="310.9"/>
	<line class="st3" x1="98.7" y1="310.7" x2="98.8" y2="310.9"/>
	<line class="st3" x1="98.7" y1="310.7" x2="98.7" y2="310.7"/>
	<line class="st3" x1="98.6" y1="310.9" x2="98.7" y2="310.7"/>
	<line class="st3" x1="98.4" y1="310.9" x2="98.6" y2="310.9"/>
	<line class="st3" x1="98.4" y1="310.9" x2="98.4" y2="310.9"/>
	<line class="st3" x1="98.4" y1="310.9" x2="98.4" y2="310.9"/>
	<line class="st3" x1="98.4" y1="310.9" x2="98.4" y2="310.9"/>
	<line class="st3" x1="98.8" y1="311" x2="98.4" y2="310.9"/>
	<line class="st3" x1="98.8" y1="311" x2="98.8" y2="311"/>
	<line class="st3" x1="98.3" y1="310.9" x2="98.8" y2="311"/>
	<line class="st3" x1="98.3" y1="310.9" x2="98.3" y2="310.9"/>
	<line class="st3" x1="98.2" y1="310.9" x2="98.3" y2="310.9"/>
	<line class="st3" x1="98.3" y1="310.9" x2="98.2" y2="310.9"/>
	<line class="st3" x1="98.4" y1="310.9" x2="98.3" y2="310.9"/>
	<line class="st3" x1="98" y1="311.1" x2="98.3" y2="311.1"/>
	<line class="st3" x1="97.9" y1="311.1" x2="98" y2="311.1"/>
	<line class="st3" x1="97.8" y1="311.1" x2="97.9" y2="311.1"/>
	<line class="st3" x1="97.8" y1="311.1" x2="97.8" y2="311.1"/>
	<line class="st3" x1="97.8" y1="311.1" x2="97.8" y2="311.1"/>
	<line class="st3" x1="97.8" y1="311.1" x2="97.8" y2="311.1"/>
	<line class="st3" x1="97.8" y1="311" x2="97.8" y2="311.1"/>
	<line class="st3" x1="97.9" y1="311" x2="97.8" y2="311"/>
	<line class="st3" x1="98" y1="311" x2="97.9" y2="311"/>
	<line class="st3" x1="98" y1="311" x2="98" y2="311"/>
	<line class="st3" x1="98.2" y1="311" x2="98" y2="311"/>
	<line class="st3" x1="98.2" y1="311" x2="98.2" y2="311"/>
	<line class="st3" x1="98.2" y1="311" x2="98.2" y2="311"/>
	<line class="st3" x1="98.2" y1="311" x2="98.2" y2="311"/>
	<line class="st3" x1="98" y1="311" x2="98.2" y2="311"/>
	<line class="st3" x1="97.9" y1="311" x2="98" y2="311"/>
	<line class="st3" x1="97.9" y1="311.1" x2="97.9" y2="311"/>
	<line class="st3" x1="97.9" y1="311.1" x2="97.9" y2="311.1"/>
	<line class="st3" x1="97.8" y1="311.1" x2="97.9" y2="311.1"/>
	<line class="st3" x1="97.9" y1="311.1" x2="97.8" y2="311.1"/>
	<line class="st3" x1="97.9" y1="311.1" x2="97.9" y2="311.1"/>
	<line class="st3" x1="98" y1="311.1" x2="97.9" y2="311.1"/>
	<line class="st3" x1="98.3" y1="311" x2="98" y2="311.1"/>
	<line class="st3" x1="98.4" y1="311" x2="98.3" y2="311"/>
	<line class="st3" x1="98.6" y1="311" x2="98.4" y2="311"/>
	<line class="st3" x1="98.6" y1="311.1" x2="98.6" y2="311"/>
	<line class="st3" x1="98.6" y1="311.1" x2="98.6" y2="311.1"/>
	<line class="st3" x1="98.6" y1="311.1" x2="98.6" y2="311.1"/>
	<line class="st3" x1="98.4" y1="311.1" x2="98.6" y2="311.1"/>
	<line class="st3" x1="98.4" y1="311.1" x2="98.4" y2="311.1"/>
	<line class="st3" x1="98.3" y1="311.2" x2="98.4" y2="311.1"/>
	<line class="st3" x1="98.2" y1="311.2" x2="98.3" y2="311.2"/>
	<line class="st3" x1="98.2" y1="311.2" x2="98.2" y2="311.2"/>
	<line class="st3" x1="98" y1="311.2" x2="98.2" y2="311.2"/>
	<line class="st3" x1="98.2" y1="311.2" x2="98" y2="311.2"/>
	<line class="st3" x1="98.2" y1="311.2" x2="98.2" y2="311.2"/>
	<line class="st3" x1="98.2" y1="311.2" x2="98.2" y2="311.2"/>
	<line class="st3" x1="98.3" y1="311.1" x2="98.2" y2="311.2"/>
	<line class="st3" x1="98.4" y1="311.1" x2="98.3" y2="311.1"/>
	<line class="st3" x1="98.4" y1="311.1" x2="98.4" y2="311.1"/>
	<line class="st3" x1="98.4" y1="311.1" x2="98.4" y2="311.1"/>
	<line class="st3" x1="98.4" y1="311.1" x2="98.4" y2="311.1"/>
	<line class="st3" x1="98.4" y1="311.1" x2="98.4" y2="311.1"/>
	<line class="st3" x1="98.3" y1="311.1" x2="98.4" y2="311.1"/>
	<line class="st3" x1="98.3" y1="311.4" x2="98.3" y2="311.4"/>
	<line class="st3" x1="97.9" y1="311.2" x2="98.3" y2="311.4"/>
	<line class="st3" x1="97.9" y1="311.2" x2="97.9" y2="311.2"/>
	<line class="st3" x1="97.9" y1="311.4" x2="97.9" y2="311.2"/>
	<line class="st3" x1="97.9" y1="311.4" x2="97.9" y2="311.4"/>
	<line class="st3" x1="97.9" y1="311.4" x2="97.9" y2="311.4"/>
	<line class="st3" x1="97.8" y1="311.4" x2="97.9" y2="311.4"/>
	<line class="st3" x1="97.8" y1="311.4" x2="97.8" y2="311.4"/>
	<line class="st3" x1="97.7" y1="311.4" x2="97.8" y2="311.4"/>
	<line class="st3" x1="97.7" y1="311.4" x2="97.7" y2="311.4"/>
	<line class="st3" x1="97.5" y1="311.4" x2="97.7" y2="311.4"/>
	<line class="st3" x1="97.2" y1="311.2" x2="97.5" y2="311.4"/>
	<line class="st3" x1="97.3" y1="311.2" x2="97.2" y2="311.2"/>
	<line class="st3" x1="97.5" y1="311.4" x2="97.3" y2="311.2"/>
	<line class="st3" x1="97.7" y1="311.4" x2="97.5" y2="311.4"/>
	<line class="st3" x1="97.8" y1="311.4" x2="97.7" y2="311.4"/>
	<line class="st3" x1="97.8" y1="311.4" x2="97.8" y2="311.4"/>
	<line class="st3" x1="97.8" y1="311.4" x2="97.8" y2="311.4"/>
	<line class="st3" x1="97.9" y1="311.2" x2="97.8" y2="311.4"/>
	<line class="st3" x1="97.9" y1="311.2" x2="97.9" y2="311.2"/>
	<line class="st3" x1="97.9" y1="311.2" x2="97.9" y2="311.2"/>
	<line class="st3" x1="97.5" y1="311.1" x2="97.9" y2="311.2"/>
	<line class="st3" x1="97.5" y1="311.1" x2="97.5" y2="311.1"/>
	<line class="st3" x1="98.3" y1="311.4" x2="97.5" y2="311.1"/>
	<polyline class="st3" points="97,311.2 98.2,310.9 99.3,310.3 	"/>
	<polyline class="st3" points="96.9,311.4 96.9,311.4 96.9,311.2 	"/>
	<line class="st3" x1="99.2" y1="312.1" x2="96.9" y2="311.4"/>
	<line class="st3" x1="98" y1="315.6" x2="97.9" y2="315.6"/>
	<line class="st3" x1="98" y1="315.6" x2="98" y2="315.6"/>
	<polyline class="st3" points="98.2,315.8 98.2,315.7 98.2,315.6 98,315.6 	"/>
	<polyline class="st3" points="97.9,316 97.9,316 98,316 98,315.8 98.2,315.8 	"/>
	<line class="st3" x1="97.8" y1="316" x2="97.9" y2="316"/>
	<line class="st3" x1="97.9" y1="315.6" x2="97.8" y2="316"/>
	<polyline class="st3" points="98.2,315.8 98.2,315.7 98.2,315.6 98,315.4 	"/>
	<line class="st3" x1="98" y1="315.4" x2="97.8" y2="315.4"/>
	<line class="st3" x1="97.8" y1="315.4" x2="97.8" y2="315.4"/>
	<line class="st3" x1="97.8" y1="315.4" x2="97.8" y2="315.4"/>
	<polyline class="st3" points="97.8,315.4 97.9,315.4 97.9,315.6 	"/>
	<line class="st3" x1="97.9" y1="315.6" x2="97.7" y2="316.3"/>
	<polyline class="st3" points="97.5,316.3 97.5,316.3 97.7,316.3 	"/>
	<line class="st3" x1="97.5" y1="316.3" x2="97.5" y2="316.3"/>
	<line class="st3" x1="97.5" y1="316.5" x2="97.5" y2="316.3"/>
	<line class="st3" x1="97.7" y1="316.5" x2="97.5" y2="316.5"/>
	<line class="st3" x1="97.7" y1="316.5" x2="97.7" y2="316.5"/>
	<line class="st3" x1="97.7" y1="316.5" x2="97.7" y2="316.5"/>
	<polyline class="st3" points="97.7,316.3 97.7,316.3 97.7,316.5 	"/>
	<line class="st3" x1="97.8" y1="316" x2="97.7" y2="316.3"/>
	<line class="st3" x1="97.8" y1="316" x2="97.9" y2="316"/>
	<polyline class="st3" points="97.9,316 98,316 98.2,316 98.2,315.8 	"/>
	<line class="st3" x1="98.3" y1="316" x2="98.2" y2="316.1"/>
	<line class="st3" x1="98.7" y1="316.2" x2="98.7" y2="316.2"/>
	<line class="st3" x1="98.7" y1="316.1" x2="98.7" y2="316.2"/>
	<line class="st3" x1="98.7" y1="316.2" x2="98.2" y2="316.1"/>
	<line class="st3" x1="98.2" y1="316.1" x2="98.2" y2="316.1"/>
	<line class="st3" x1="98.2" y1="316.1" x2="98.7" y2="316.2"/>
	<line class="st3" x1="98.7" y1="316.2" x2="98.7" y2="316.2"/>
	<polyline class="st3" points="99.4,310.3 99.4,310.3 99.3,310.3 	"/>
	<polyline class="st3" points="97,311.2 97,311.2 96.9,311.2 	"/>
	<polyline class="st3" points="96.9,311.2 96.9,311.2 96.8,311.2 96.8,311.1 96.9,310.9 97.5,310.5 98.4,310.2 98.9,310.2 
		99.2,310.2 99.3,310.2 99.4,310.3 	"/>
	<polyline class="st3" points="96.6,311 96.6,311 96.6,311.1 96.8,311.2 96.9,311.2 	"/>
	<line class="st3" x1="96.9" y1="311.2" x2="99.3" y2="312"/>
	<polyline class="st3" points="99.4,310.2 99.4,310.2 99.3,310.2 99.1,310.2 98.8,310.2 98.7,310.2 98.6,310.2 	"/>
	<polyline class="st3" points="98.6,310.2 97.9,310.3 97.4,310.5 96.9,310.7 96.6,310.9 96.6,311 	"/>
	<polyline class="st3" points="99.2,312.1 99.2,312.1 99.3,312.1 99.3,312 	"/>
	<line class="st3" x1="99.3" y1="312" x2="99.6" y2="312.1"/>
	<polyline class="st3" points="99.4,314.6 99.3,314.6 99.2,314.6 99.2,314.4 99.2,314.3 	"/>
	<polyline class="st3" points="99.2,314.3 99.2,314.2 99.3,314.2 99.4,314.2 99.4,314.3 99.4,314.4 	"/>
	<polyline class="st3" points="99.3,314.4 99.3,314.4 99.2,314.4 99.2,314.3 	"/>
	<polyline class="st3" points="99.2,314.3 99.2,314.3 99.3,314.3 99.3,314.4 	"/>
	<line class="st3" x1="98.9" y1="316" x2="98.9" y2="316"/>
	<line class="st3" x1="98.9" y1="315.8" x2="98.9" y2="315.8"/>
	<polyline class="st3" points="100,312.5 99.6,312.4 99.2,312.4 	"/>
	<line class="st3" x1="99.2" y1="312.4" x2="96.9" y2="311.5"/>
	<polyline class="st3" points="96.9,311.5 96.8,311.5 96.6,311.4 	"/>
	<polyline class="st3" points="99.4,314.4 99.4,314.3 99.4,314.2 99.3,314.2 99.3,314 99.2,314 99.2,314.2 99.1,314.2 99.1,314.3 	
		"/>
	<polyline class="st3" points="99.1,314.3 99.1,314.4 99.2,314.4 99.2,314.6 99.3,314.6 99.4,314.6 	"/>
	<line class="st3" x1="99.6" y1="312.1" x2="99.6" y2="312.1"/>
	<line class="st3" x1="99.6" y1="312.1" x2="99.2" y2="312.1"/>
	<line class="st3" x1="99.2" y1="312.3" x2="99.2" y2="312.1"/>
	<polyline class="st3" points="100,312.4 99.6,312.4 99.2,312.3 	"/>
	<line class="st3" x1="99.1" y1="316.6" x2="98.9" y2="316.6"/>
	<line class="st3" x1="98.9" y1="316.7" x2="98.8" y2="316.7"/>
	<line class="st3" x1="98.7" y1="316.6" x2="98.7" y2="316.6"/>
	<line class="st3" x1="99.1" y1="315.7" x2="99.1" y2="315.8"/>
	<line class="st3" x1="99.1" y1="316.3" x2="98.9" y2="316.3"/>
	<line class="st3" x1="99.2" y1="316.1" x2="99.2" y2="316.1"/>
	<line class="st3" x1="98.9" y1="316.8" x2="98.9" y2="316.8"/>
	<line class="st3" x1="99.1" y1="316.6" x2="99.1" y2="316.6"/>
	<polyline class="st3" points="92.8,318.5 92.8,318.5 92.8,318.6 	"/>
	<polyline class="st3" points="92.8,318.5 92.9,318.5 92.9,318.4 92.9,318.2 92.9,318.1 92.8,318.1 	"/>
	<line class="st3" x1="99.2" y1="320.4" x2="92.8" y2="318.5"/>
	<line class="st3" x1="98.6" y1="316.6" x2="98.6" y2="316.7"/>
	<line class="st3" x1="98.6" y1="316.7" x2="98.9" y2="316.8"/>
	<line class="st3" x1="98.9" y1="316.8" x2="99.1" y2="316.6"/>
	<line class="st3" x1="99.1" y1="316.6" x2="98.9" y2="316.6"/>
	<polyline class="st3" points="98.9,316.6 98.9,316.7 98.8,316.7 	"/>
	<line class="st3" x1="98.8" y1="316.7" x2="98.7" y2="316.6"/>
	<polyline class="st3" points="98.7,316.6 98.8,316.5 98.9,316.3 	"/>
	<polyline class="st3" points="98.9,316.3 99.1,316.2 99.2,316.1 	"/>
	<polyline class="st3" points="99.2,316.1 99.2,316 99.2,315.8 99.1,315.8 	"/>
	<polyline class="st3" points="99.1,315.8 98.9,315.8 98.8,315.8 98.8,316 	"/>
	<polyline class="st3" points="98.8,316 98.8,316 98.8,316.1 	"/>
	<polyline class="st3" points="98.8,316.1 98.8,316.1 98.9,316 	"/>
	<line class="st3" x1="98.9" y1="315.8" x2="98.9" y2="316"/>
	<polyline class="st3" points="98.9,315.8 98.9,315.8 99.1,315.8 	"/>
	<polyline class="st3" points="99.1,315.8 99.1,315.8 99.1,316 99.1,316.1 	"/>
	<polyline class="st3" points="99.1,316.1 99.1,316.2 98.8,316.3 	"/>
	<line class="st3" x1="98.6" y1="316.6" x2="98.8" y2="316.3"/>
	<line class="st3" x1="97.5" y1="314.8" x2="97.5" y2="314.8"/>
	<line class="st3" x1="97.5" y1="314.8" x2="99.8" y2="315.6"/>
	<line class="st3" x1="96.9" y1="316.8" x2="96.9" y2="316.8"/>
	<polyline class="st3" points="96.9,316.8 96.8,316.8 96.8,317 	"/>
	<line class="st3" x1="99.1" y1="317.6" x2="96.9" y2="316.8"/>
	<line class="st3" x1="99.3" y1="316.3" x2="99.3" y2="316.3"/>
	<line class="st3" x1="92.8" y1="318" x2="92.8" y2="318"/>
	<polyline class="st3" points="92.8,318.1 92.8,318.1 92.8,318 	"/>
	<line class="st3" x1="92.8" y1="318.1" x2="99.2" y2="320"/>
	<polyline class="st3" points="99.2,320 99.2,320 99.2,320.2 99.2,320.3 99.2,320.4 	"/>
	<line class="st3" x1="99.3" y1="316.8" x2="99.3" y2="316.8"/>
	<line class="st3" x1="99.6" y1="316" x2="99.6" y2="316"/>
	<line class="st3" x1="99.7" y1="316.5" x2="99.6" y2="316.5"/>
	<polyline class="st3" points="99.3,316.3 99.3,316.6 99.3,316.7 99.3,316.8 	"/>
	<polyline class="st3" points="99.3,316.8 99.3,316.8 99.4,316.8 99.4,316.7 99.6,316.5 	"/>
	<polyline class="st3" points="99.6,316 99.7,316 99.7,316.1 99.6,316.5 	"/>
	<polyline class="st3" points="99.6,316 99.6,316 99.4,316.1 99.3,316.3 	"/>
	<polyline class="st3" points="99.2,320 99.1,320 99.1,319.9 	"/>
	<polyline class="st3" points="99.2,320 99.2,320 99.3,320.2 99.3,320.3 99.2,320.3 	"/>
	<polyline class="st3" points="99.1,320.5 99.1,320.5 99.1,320.4 99.2,320.4 	"/>
	<line class="st3" x1="99.1" y1="319.9" x2="99.1" y2="319.9"/>
	<polyline class="st3" points="99.3,316.3 99.2,316.7 99.2,316.8 99.3,316.8 	"/>
	<polyline class="st3" points="99.6,316 99.6,316 99.4,316.1 99.3,316.3 	"/>
	<polyline class="st3" points="99.6,316 99.6,316 99.6,316.1 99.6,316.2 99.6,316.5 	"/>
	<polyline class="st3" points="99.3,316.8 99.3,316.8 99.4,316.7 99.6,316.5 	"/>
	<polyline class="st3" points="99.6,316 99.6,316 99.4,316 99.3,316.1 99.2,316.3 	"/>
	<polyline class="st3" points="99.2,316.3 99.2,316.7 99.2,316.8 99.2,317 	"/>
	<polyline class="st3" points="99.2,317 99.3,317 99.3,316.8 99.4,316.8 99.4,316.7 99.6,316.5 	"/>
	<polyline class="st3" points="99.6,316.5 99.7,316.2 99.7,316.1 99.7,316 99.6,316 	"/>
	<line class="st3" x1="99.1" y1="317.6" x2="99.2" y2="317.5"/>
	<polyline class="st3" points="99.8,315.6 99.8,315.6 99.8,315.4 	"/>
	<line class="st3" x1="100.1" y1="316.1" x2="100" y2="316.2"/>
	<polyline class="st3" points="99.8,315.6 99.8,315.6 100,315.6 100,315.7 100.1,315.7 	"/>
	<line class="st3" x1="99.1" y1="317.6" x2="99.1" y2="317.6"/>
	<polyline class="st3" points="99.7,317.1 99.6,317.4 99.4,317.5 99.3,317.5 99.3,317.6 99.2,317.6 99.1,317.6 	"/>
	<line class="st3" x1="99.7" y1="317.1" x2="99.7" y2="317.1"/>
	<line class="st3" x1="100" y1="316.2" x2="100" y2="316.2"/>
	<line class="st3" x1="98.9" y1="315.8" x2="99.1" y2="315.8"/>
	<line class="st3" x1="98.9" y1="316" x2="98.9" y2="315.8"/>
	<polyline class="st3" points="98.9,316.1 98.9,316.1 98.9,316 	"/>
	<polyline class="st3" points="98.8,316 98.8,316 98.8,316.1 98.9,316.1 	"/>
	<polyline class="st3" points="99.1,315.7 99.1,315.7 98.9,315.8 98.8,316 	"/>
	<polyline class="st3" points="99.2,316.1 99.2,316 99.2,315.8 99.1,315.7 	"/>
	<polyline class="st3" points="99.1,316.3 99.2,316.2 99.2,316.1 	"/>
	<polyline class="st3" points="98.7,316.6 98.8,316.5 99.1,316.3 	"/>
	<line class="st3" x1="98.9" y1="316.7" x2="98.7" y2="316.6"/>
	<polyline class="st3" points="99.1,316.6 98.9,316.6 98.9,316.7 	"/>
	<line class="st3" x1="99.1" y1="316.6" x2="99.1" y2="316.6"/>
	<line class="st3" x1="98.9" y1="316.8" x2="99.1" y2="316.6"/>
	<polyline class="st3" points="99.2,316.1 99.1,316.1 99.1,316.2 98.9,316.3 	"/>
	<polyline class="st3" points="99.1,315.8 99.1,315.8 99.2,315.8 99.2,316 99.2,316.1 	"/>
	<line class="st3" x1="97.4" y1="316.2" x2="97.3" y2="316.2"/>
	<polyline class="st3" points="97.5,316.1 97.5,316.2 97.4,316.2 97.4,316.3 97.4,316.2 	"/>
	<line class="st3" x1="97.5" y1="316.1" x2="97.5" y2="316.1"/>
	<line class="st3" x1="97.5" y1="316.3" x2="97.5" y2="316.1"/>
	<line class="st3" x1="97.2" y1="316.2" x2="97.2" y2="316.2"/>
	<line class="st3" x1="97.2" y1="316.2" x2="97.2" y2="316.2"/>
	<line class="st3" x1="97.4" y1="315.3" x2="97.4" y2="315.3"/>
	<line class="st3" x1="97.5" y1="315.3" x2="97.4" y2="315.3"/>
	<line class="st3" x1="97.5" y1="315.3" x2="97.5" y2="315.3"/>
	<line class="st3" x1="97.5" y1="315.3" x2="97.5" y2="315.3"/>
	<line class="st3" x1="97.3" y1="316.2" x2="97.5" y2="315.3"/>
	<line class="st3" x1="97.3" y1="316.2" x2="97.3" y2="316.2"/>
	<polyline class="st3" points="97.8,316.3 97.8,316.3 97.7,316.3 97.8,316.3 	"/>
	<line class="st3" x1="97.8" y1="316.3" x2="97.8" y2="316.3"/>
	<line class="st3" x1="97.8" y1="316.5" x2="97.8" y2="316.3"/>
	<line class="st3" x1="97.7" y1="316.3" x2="97.5" y2="316.3"/>
	<line class="st3" x1="97.7" y1="316.3" x2="97.7" y2="316.3"/>
	<line class="st3" x1="97.9" y1="315.4" x2="97.9" y2="315.4"/>
	<line class="st3" x1="98.2" y1="315.4" x2="97.9" y2="315.4"/>
	<polyline class="st3" points="98.3,315.8 98.3,315.7 98.3,315.6 98.2,315.6 98.2,315.4 	"/>
	<polyline class="st3" points="97.9,316 98,316 98.2,316 98.3,315.8 	"/>
	<line class="st3" x1="97.8" y1="316.3" x2="97.8" y2="316"/>
	<line class="st3" x1="98.7" y1="316.1" x2="98.3" y2="316"/>
	<line class="st3" x1="98.7" y1="316.2" x2="98.7" y2="316.1"/>
	<polyline class="st3" points="99.6,316 99.6,316 99.4,316 99.4,316.1 99.3,316.3 	"/>
	<polyline class="st3" points="99.7,316.5 99.7,316.2 99.7,316 99.6,316 	"/>
	<polyline class="st3" points="99.3,317 99.3,317 99.4,316.8 99.6,316.7 99.7,316.5 	"/>
	<polyline class="st3" points="99.3,316.3 99.2,316.7 99.2,316.8 99.3,316.8 99.3,317 	"/>
	<line class="st3" x1="96.9" y1="316.8" x2="99.2" y2="317.5"/>
	<polyline class="st3" points="99.2,317.5 99.3,317.6 99.3,317.5 99.4,317.5 	"/>
	<polyline class="st3" points="97.4,314.8 97.3,314.8 97.3,314.9 97,315.1 97,315.3 	"/>
	<line class="st3" x1="97" y1="315.3" x2="96.6" y2="316.2"/>
	<polyline class="st3" points="96.6,316.2 96.6,316.3 96.6,316.6 96.8,316.7 96.8,316.8 96.9,316.8 	"/>
	<line class="st3" x1="98.7" y1="312.9" x2="98.9" y2="312.8"/>
	<line class="st3" x1="98.7" y1="312.9" x2="98.7" y2="312.9"/>
	<line class="st3" x1="98.9" y1="312.8" x2="97" y2="312.4"/>
	<line class="st3" x1="100" y1="313.2" x2="98.9" y2="312.8"/>
	<polyline class="st3" points="100.1,321.2 100.1,321 100.1,320.5 100.1,319.9 100.1,319.8 	"/>
	<polyline class="st3" points="99.1,319.9 99.2,319.9 99.3,320 99.3,320.2 99.3,320.3 	"/>
	<polyline class="st3" points="99.3,320.3 99.3,320.4 99.3,320.5 99.2,320.5 99.1,320.5 	"/>
	<line class="st3" x1="99.1" y1="320.5" x2="92.8" y2="318.6"/>
	<polyline class="st3" points="92.6,318.2 92.6,318.4 92.6,318.5 92.7,318.6 92.8,318.6 	"/>
	<polyline class="st3" points="92.6,318.2 92.6,318.1 92.6,318 92.7,318 92.8,318 	"/>
	<line class="st3" x1="92.8" y1="318" x2="99.1" y2="319.9"/>
	<polyline class="st3" points="95.2,311.7 94.9,311.6 94.3,311.6 93.8,311.9 93.2,312.1 92.7,312.5 92.6,312.6 	"/>
	<line class="st3" x1="91" y1="318.9" x2="90.8" y2="318.9"/>
	<line class="st3" x1="91" y1="318.9" x2="92.4" y2="319.4"/>
	<line class="st3" x1="92.4" y1="319.4" x2="92.4" y2="319.4"/>
	<line class="st3" x1="92.4" y1="319.4" x2="92.4" y2="319.4"/>
	<line class="st3" x1="92.4" y1="319.4" x2="93.6" y2="319.6"/>
	<line class="st3" x1="93.6" y1="319.6" x2="93.6" y2="319.6"/>
	<line class="st3" x1="93.6" y1="319.6" x2="94.9" y2="320"/>
	<line class="st3" x1="94.9" y1="320.4" x2="94.9" y2="320"/>
	<line class="st3" x1="95" y1="320.4" x2="94.9" y2="320.4"/>
	<polyline class="st3" points="95,320.4 95,320.7 95.1,320.8 95.2,321 95.4,321.2 95.5,321.4 95.6,321.6 95.7,321.8 96,322.1 
		96.3,322.1 96.5,322.3 96.6,322.3 	"/>
	<polyline class="st3" points="99.3,322.3 99.3,322.3 99.4,322.3 99.4,322.4 99.8,323 100.1,323.1 	"/>
	<polyline class="st3" points="99.7,323 99.6,322.8 99.4,322.7 	"/>
	<polyline class="st3" points="97.2,321.7 97.2,321.7 97.3,321.7 97.4,321.8 97.8,322.3 98.3,322.7 98.8,322.8 	"/>
	<polyline class="st3" points="97.5,322.3 97.4,322.2 97.3,322.1 	"/>
	<polyline class="st3" points="99.3,317.6 99.3,317.6 99.4,317.5 99.6,317.4 99.7,317.2 99.7,317.1 	"/>
	<line class="st3" x1="96.8" y1="317" x2="99.1" y2="317.6"/>
	<polyline class="st3" points="96.6,316.2 96.5,316.3 96.5,316.5 96.6,316.7 96.6,316.8 96.8,317 	"/>
	<line class="st3" x1="96.9" y1="315.3" x2="96.6" y2="316.2"/>
	<line class="st3" x1="97.5" y1="314.8" x2="97.3" y2="314.8"/>
	<line class="st3" x1="99.8" y1="315.4" x2="97.5" y2="314.8"/>
	<polyline class="st3" points="100.1,315.8 100.1,315.7 100,315.7 100,315.6 99.8,315.4 	"/>
	<line class="st3" x1="100" y1="316.2" x2="100.1" y2="316.2"/>
	<line class="st3" x1="99.7" y1="317.1" x2="100" y2="316.2"/>
	<polyline class="st3" points="99.3,314 99.3,314 99.2,314 99.2,314.2 99.1,314.2 99.1,314.3 98.9,314.4 98.9,314.6 99.1,314.6 
		99.1,314.7 99.2,314.7 99.3,314.7 99.3,314.6 99.4,314.6 99.4,314.4 99.4,314.3 99.4,314.2 99.3,314.2 99.3,314 	"/>
	<line class="st3" x1="96.9" y1="312.5" x2="98.7" y2="312.9"/>
	<polyline class="st3" points="92.1,315.7 92.9,315.4 93.7,315.2 94.1,314.9 94.6,314.7 95,314.4 95.4,314.2 95.7,313.7 96.3,313.2 
		96.5,312.9 96.9,312.5 	"/>
	<line class="st3" x1="89.1" y1="315.6" x2="89" y2="315.8"/>
	<polyline class="st3" points="122.1,196 122.5,196.2 123.8,197.4 124.9,198.6 126.1,199.9 127.1,201.3 128.1,202.8 129,204.4 
		129.8,206 130.5,207.7 131.2,209.5 131.7,211.3 132.1,212.9 132.3,214.7 132.4,216.5 132.6,218.3 132.4,219.9 132.3,221.4 
		132.1,223.1 131.7,224.6 131.2,226 130.5,227.3 129.9,228.6 129,229.7 128.1,230.7 127.2,231.6 126.2,232.4 125,232.9 124.4,233.2 
			"/>
	<polyline class="st3" points="109,62.9 109.5,62.7 111.5,62.2 112.7,62.2 113.8,62.4 115.2,62.6 	"/>
	<polyline class="st3" points="115.2,62.6 117.4,63.5 118.5,64.1 119.7,64.9 121.7,66.6 122.8,67.7 123.6,68.7 125.3,71.1 
		126.1,72.5 126.8,73.8 127.8,76.6 128.2,78.1 128.6,79.7 129,82.5 129,84 129,85.4 128.6,88.1 128.4,89.4 127.8,90.5 126.8,92.5 
		126.1,93.6 125.3,94.5 123.6,95.7 122.8,96.2 	"/>
	<polyline class="st3" points="137.7,70.4 137.1,70.9 136.6,71.1 135.7,71.5 	"/>
	<polyline class="st3" points="138.7,69.2 138.5,69.6 138.2,70 137.9,70.2 137.7,70.4 	"/>
	<polyline class="st3" points="130.9,93 131.8,92.5 133.1,91.8 134.1,90.8 135,89.6 135.9,88.3 136.5,86.8 137,85.2 137.4,83.5 
		137.5,81.6 137.7,79.8 137.4,77.8 137.1,75.9 136.5,73.7 135.7,71.5 	"/>
	<polyline class="st3" points="135.7,71.5 134.5,68.8 133.5,67.1 132.3,65.5 131.2,64 129.1,62.1 127.7,61.1 126.2,60.2 124.7,59.6 
		123.1,59.2 121.7,58.9 120.2,58.9 118.8,59 117.5,59.4 	"/>
	<polyline class="st3" points="134.6,64 136,65 137.5,65.9 138.2,66.4 138.8,67.1 138.9,67.4 139.1,68 139.1,68.5 138.9,68.8 
		138.7,69.2 	"/>
	<line class="st3" x1="151.4" y1="78.4" x2="151.4" y2="78.4"/>
	<line class="st3" x1="131.7" y1="62.4" x2="131.8" y2="62.5"/>
	<polyline class="st3" points="146.1,53.6 146.6,51.1 147.3,48.6 148.4,46 149.6,43.6 151.2,41.5 152.8,39.4 154.6,37.6 156.5,36.2 
		158.3,35.2 160.2,34.6 161.9,34.3 163.5,34.5 164.5,35 	"/>
	<polyline class="st3" points="149.2,63.5 148.7,63.2 147.6,62.2 146.7,60.7 146.1,59 145.8,57 145.9,54.7 146.1,53.6 	"/>
	<polyline class="st3" points="160.1,47.1 159.2,48.3 158.2,50.1 157.3,52.2 156.5,54.1 156,56 155.6,57.9 155.4,59.8 155.4,61.5 
		155.5,63.1 155.9,64.5 156.4,65.8 157.1,66.9 157.9,67.8 158.7,68.2 	"/>
	<polyline class="st3" points="174.1,39.7 173.7,39.4 172.7,39.2 171.4,39 170,39.2 168.6,39.6 167.2,40.2 165.8,41.1 164.4,42.1 
		163,43.5 161.6,44.9 160.8,45.9 	"/>
	<polyline class="st3" points="194,85 193.7,84.9 192.8,84.6 191.9,84.1 191.2,83.6 190.5,83 189.9,82.2 189.4,81.3 188.9,79.5 
		188.7,78.7 188.6,77.6 188.7,75.6 189.1,73.3 189.8,71.3 190.6,69.2 191.7,67.2 192.9,65.4 194.5,63.6 196,62 197,61.2 197.9,60.6 
		199.9,59.6 201.5,58.9 203,58.5 204.7,58.3 206.3,58.1 209.2,58.3 212.4,58.5 215.6,58.8 218.8,59.3 222.1,59.9 225.4,60.7 
		229,61.6 232.4,62.6 234.5,63.2 236.4,64 238.4,64.9 240.3,65.9 240.7,66 	"/>
	<polyline class="st3" points="222.1,87.8 221.6,87.7 218.3,87.2 215,86.7 211.7,86.4 208.5,86.2 205.3,85.9 202.1,85.8 198.8,85.7 
		197.3,85.5 195.7,85.4 195.5,85.3 	"/>
	<polyline class="st3" points="253.2,102.5 254.3,102.2 255.6,101.6 256.7,100.8 257.8,99.9 258.8,98.8 259.6,97.4 260.2,96 
		260.7,94.5 261.1,92.7 261.2,91 261.2,89.2 261,87.4 260.6,85.7 260.1,84 259.3,82.4 258.4,80.8 257.4,79.5 256.2,78.3 255.1,77.3 
		253.8,76.5 252.7,76 	"/>
	<polyline class="st3" points="194,85 193.1,84.8 192.2,84.4 191.4,83.9 190.6,83.2 189.8,82.1 189.1,80.7 188.7,79.2 188.6,77.4 
		188.7,75.5 189.1,73.3 	"/>
	<polyline class="st3" points="189.1,73.3 189.8,71.3 190.6,69.1 191.8,67.2 193.1,65.3 194.5,63.5 196,62 197,61.2 198.2,60.4 
		199.3,59.8 200.7,59.2 202.2,58.8 203.6,58.4 205.2,58.3 206.7,58.1 208.7,58.1 210.8,58.3 212.7,58.5 214.8,58.8 216.9,59 
		219,59.4 221.2,59.8 223.4,60.2 225.2,60.6 226.9,61.1 228.5,61.5 230.5,62 232.2,62.5 233.7,63 235.1,63.5 236.4,64 237.8,64.6 
		239,65.2 240.3,65.9 240.7,66 	"/>
	<polyline class="st3" points="222.1,117.3 222,117.3 222,117.4 221.8,117.6 221.8,118 221.8,118.4 221.8,118.8 221.8,119.2 
		222,119.5 222,119.7 	"/>
	<polyline class="st3" points="222,119.7 222.1,119.7 222.1,119.5 222.1,119.3 222.2,118.9 222.2,118.5 222.2,118 222.1,117.6 
		222.1,117.4 222.1,117.3 	"/>
	<polyline class="st3" points="222.4,119.9 222.4,119.9 222.5,119.8 222.5,119.5 222.6,119.2 222.6,118.8 222.6,118.3 222.6,117.8 
		222.5,117.4 222.5,117.1 222.4,116.9 	"/>
	<polyline class="st3" points="222.2,119.7 222.2,119.8 222.4,119.9 	"/>
	<polyline class="st3" points="222.4,116.9 222.2,117 222.2,117.1 	"/>
	<line class="st3" x1="222.4" y1="116.9" x2="222.4" y2="116.9"/>
	<line class="st3" x1="222.4" y1="117.3" x2="222.4" y2="117.1"/>
	<polyline class="st3" points="222.5,117.6 222.5,117.6 222.5,117.4 222.4,117.3 	"/>
	<polyline class="st3" points="222.4,119.7 222.4,119.7 222.5,119.5 222.5,119.3 222.5,119.2 	"/>
	<polyline class="st3" points="222.2,117.1 222.2,117 222.2,116.7 222.4,116.6 	"/>
	<polyline class="st3" points="222.4,120.2 222.2,120.1 222.2,119.7 	"/>
	<polyline class="st3" points="222.2,119.7 222.2,119.8 222.4,119.9 	"/>
	<polyline class="st3" points="222.4,116.9 222.4,116.9 222.2,117 222.2,117.1 	"/>
	<polyline class="st3" points="222.4,119.9 222.4,120.1 222.5,119.9 222.5,119.7 222.6,119.4 222.6,118.9 222.6,118.5 222.6,118 
		222.6,117.6 222.5,117.3 222.5,117 222.4,116.9 	"/>
	<polyline class="st3" points="222.6,117.6 222.6,118 222.6,118.5 222.6,119 222.6,119.5 222.5,119.8 222.5,120.1 222.4,120.2 	"/>
	<polyline class="st3" points="222.1,119.7 222,120.2 222,120.9 222.1,121.2 222.1,121.3 	"/>
	<polyline class="st3" points="222.1,115.6 222.1,116 222.1,116.9 222.1,117.1 	"/>
	<polyline class="st3" points="251.4,124.3 251.4,124.3 251,124.5 250.5,124.8 250,125 249.2,125.1 248.5,125.4 247.6,125.5 
		246.6,125.7 245.5,125.8 244.4,125.9 	"/>
	<polyline class="st3" points="244.4,125.9 243.1,126 241.8,126.2 240.4,126.2 239.2,126.2 237.8,126.2 236.4,126.2 235,126.2 
		233.6,126.2 232.3,126 231,125.9 229.7,125.8 228.6,125.7 227.5,125.5 226.4,125.3 225.4,125.1 224.7,124.9 223.9,124.6 
		223.3,124.5 222.7,124.3 222.4,124 222.2,123.9 	"/>
	<polyline class="st3" points="226.7,114.6 226.8,114.6 227.8,114.8 228.9,115 230,115.1 231.3,115.2 232.5,115.3 233.8,115.3 
		235.2,115.5 236.5,115.5 237.9,115.5 239.2,115.5 240.6,115.5 241.8,115.5 243.1,115.3 244.3,115.2 	"/>
	<polyline class="st3" points="244.3,115.2 245.4,115.1 246.4,115 247.2,114.8 	"/>
	<polyline class="st3" points="222.7,119 222.6,119.7 222.6,120.2 222.5,120.7 222.4,121.1 222.2,121.3 222.1,121.6 222,121.6 
		221.8,121.6 221.7,121.5 221.7,121.1 221.7,120.7 221.7,120.3 221.7,119.7 221.7,119.2 221.7,118.5 221.7,117.9 221.7,117.3 
		221.7,116.7 221.7,116.2 221.7,115.8 221.7,115.5 221.8,115.3 221.8,115.2 222,115.3 222,115.5 222.1,115.7 222.4,116.6 
		222.6,117.8 222.6,118.4 222.7,119 	"/>
	<polyline class="st3" points="221.7,123 221.7,123.2 221.8,123.5 222.1,123.7 222.6,124 223.1,124.3 223.8,124.4 224.5,124.6 
		225.4,124.9 226.3,125 227.5,125.3 228.6,125.4 229.7,125.5 231,125.7 232.4,125.8 233.7,125.8 235.1,125.9 236.5,125.9 
		237.9,125.9 239.3,125.9 240.7,125.9 242,125.8 243.2,125.8 244.5,125.7 	"/>
	<polyline class="st3" points="244.5,125.7 245.7,125.5 246.8,125.4 247.8,125.3 248.7,125 249.5,124.9 250.3,124.6 250.9,124.5 
		251.3,124.3 251.7,124 251.9,123.7 252,123.5 	"/>
	<polyline class="st3" points="252,113.2 252,113.3 252.2,113.6 252,113.8 251.8,114.1 251.4,114.3 251,114.4 250.4,114.7 
		249.6,115 248.9,115.1 248,115.3 246.9,115.5 245.8,115.6 244.6,115.7 	"/>
	<polyline class="st3" points="244.6,115.7 243.4,115.8 242.1,115.8 240.8,116 239.4,116 238,116 236.6,116 235.2,116 233.8,115.8 
		232.5,115.8 231.1,115.7 229.9,115.6 228.7,115.5 227.6,115.2 226.6,115.1 225.5,115 224.7,114.7 223.9,114.4 223.3,114.2 
		222.7,114.1 222.2,113.8 222,113.6 221.8,113.3 221.8,113 221.8,112.8 	"/>
	<polyline class="st3" points="223,113.6 223.4,113.8 224,114.1 224.8,114.2 225.7,114.4 226.6,114.7 227.6,114.8 228.7,115 
		229.9,115.1 231.1,115.2 232.4,115.3 233.8,115.5 235.1,115.5 236.5,115.6 237.9,115.6 239.3,115.6 240.7,115.5 242,115.5 
		243.2,115.3 244.5,115.3 	"/>
	<polyline class="st3" points="244.5,115.3 245.7,115.2 246.7,115.1 247.7,114.8 248.6,114.7 249.5,114.6 250.1,114.3 250.8,114.1 
		250.9,113.9 	"/>
	<line class="st3" x1="244" y1="115.2" x2="243.8" y2="115.3"/>
	<line class="st3" x1="243.4" y1="115.2" x2="243.4" y2="115.3"/>
	<line class="st3" x1="245.8" y1="115.1" x2="245.8" y2="115.1"/>
	<line class="st3" x1="244.5" y1="115.2" x2="244.4" y2="115.2"/>
	<line class="st3" x1="234.2" y1="115.3" x2="234.2" y2="115.5"/>
	<line class="st3" x1="232.4" y1="115.2" x2="232.4" y2="115.3"/>
	<line class="st3" x1="228.2" y1="114.8" x2="228.2" y2="114.8"/>
	<line class="st3" x1="228.7" y1="115" x2="228.7" y2="114.8"/>
	<line class="st3" x1="234.1" y1="115.3" x2="234.1" y2="115.3"/>
	<line class="st3" x1="232.9" y1="115.3" x2="232.9" y2="115.3"/>
	<line class="st3" x1="230.5" y1="115.1" x2="230.5" y2="115.1"/>
	<line class="st3" x1="229" y1="115" x2="229" y2="115"/>
	<polyline class="st3" points="231.4,115.2 231.3,115.2 230.9,115.2 	"/>
	<polyline class="st3" points="99.4,272.4 99.4,272.9 99.6,273.4 100,274 100.3,274.6 101,275.1 101.6,275.6 102.4,276.1 
		103.3,276.6 104.3,277 105.4,277.5 106.6,277.9 	"/>
	<polyline class="st3" points="106.6,277.9 107.8,278.1 109.3,278.5 110.7,278.8 112.2,279 113.7,279.1 115.2,279.4 116.9,279.4 
		118.5,279.5 120.2,279.5 121.9,279.5 123.5,279.5 125,279.4 126.7,279.3 128.4,279 129.9,278.8 131.3,278.5 132.8,278.3 
		134.1,277.9 135.4,277.5 136.6,277.1 137.7,276.6 138.7,276.2 139.7,275.7 140.5,275.2 141.1,274.6 141.7,274 142.1,273.5 
		142.5,272.9 142.6,272.4 142.8,271.8 	"/>
	<polyline class="st3" points="134.3,229.1 135,228.7 136.6,227.4 137.9,225.9 139.1,224 139.9,221.8 140.6,219.5 141,217.1 
		141.1,214.4 141,211.8 140.5,209.1 139.8,206.3 138.8,203.6 137.5,201.1 136.1,198.6 134.6,196.5 132.8,194.4 130.9,192.8 
		128.9,191.3 126.8,190.1 124.7,189.3 123.6,189.1 	"/>
	<line class="st3" x1="158.8" y1="209.7" x2="158.8" y2="209.6"/>
	<polyline class="st3" points="259.4,91 259.4,92.8 259,94.5 258.7,96.1 258,97.5 257.1,98.9 256.2,100.1 255.2,101.1 254.1,101.8 
		253.3,102.2 	"/>
	<polyline class="st3" points="259.4,91 259.4,89.2 259.2,87.4 258.8,85.8 258.2,84 257.4,82.5 256.5,80.9 255.5,79.7 254.3,78.5 
		253.2,77.5 252.7,77.3 	"/>
	<polyline class="st3" points="222.4,72.9 222.4,73.1 222.5,73.3 222.7,73.6 223.1,73.8 223.6,74.1 224.3,74.3 225,74.5 225.8,74.7 
		226.8,75 227.8,75.1 	"/>
	<polyline class="st3" points="227.8,75.1 229,75.2 230.1,75.5 231.4,75.6 232.7,75.6 234.1,75.7 235.4,75.9 236.8,75.9 238.2,75.9 
		239.6,75.9 241,75.9 242.4,75.7 243.6,75.7 244.9,75.6 246.1,75.5 247.2,75.3 248.2,75.2 249.2,75.1 250,74.8 250.8,74.7 
		251.4,74.5 251.9,74.2 252.3,73.9 252.5,73.8 252.7,73.6 252.7,73.4 	"/>
	<polyline class="st3" points="221.8,112.5 221.8,112.7 222,112.9 222.2,113.2 222.6,113.4 223.1,113.7 223.8,113.9 224.4,114.1 
		225.3,114.3 226.2,114.4 227.2,114.7 	"/>
	<polyline class="st3" points="227.2,114.7 228.3,114.8 229.6,115 230.8,115.1 232.2,115.2 233.4,115.3 234.8,115.3 236.2,115.5 
		237.6,115.5 239,115.5 240.4,115.5 241.7,115.3 243.1,115.3 244.3,115.2 245.5,115.1 246.7,115 247.7,114.8 248.6,114.6 
		249.5,114.4 250.3,114.2 250.9,114.1 251.4,113.8 251.8,113.6 252,113.3 252.2,113 252.2,112.9 	"/>
	<polyline class="st3" points="132.9,229.8 134,229.3 135,228.7 135.9,228.1 136.8,227.2 137.7,226.3 138.3,225.3 138.9,224.1 
		139.6,223 140.1,221.7 140.5,220.4 140.7,219 141,217.5 141.1,216 141.1,214.4 	"/>
	<polyline class="st3" points="141.1,214.4 141.1,212.9 140.8,211.3 140.6,209.7 140.2,208.1 139.8,206.5 139.3,205 138.7,203.4 
		138,202 137.3,200.4 136.4,199 135.5,197.6 134.5,196.3 133.5,195.2 132.4,194.1 131.3,193 130.1,192.1 129,191.4 127.7,190.6 
		126.6,190 125.3,189.6 124,189.2 123.6,189.1 	"/>
	<polyline class="st3" points="124.4,233.3 124.5,233.2 125.6,232.7 126.6,232.1 127.5,231.4 128.4,230.6 129.1,229.7 129.9,228.7 
		130.5,227.6 131.2,226.4 131.7,225.1 132.1,223.7 132.3,222.3 132.6,220.9 132.7,219.4 132.7,217.9 	"/>
	<polyline class="st3" points="132.7,217.9 132.6,216.2 132.4,214.7 132.2,213 131.8,211.5 131.4,209.9 130.9,208.3 130.3,206.8 
		129.5,205.3 128.7,203.9 128,202.3 127.1,201.1 126.1,199.8 125,198.6 124,197.5 122.9,196.5 122.1,195.8 	"/>
	<polyline class="st3" points="99.6,284.4 99.6,284.9 99.8,285.5 100.1,286 100.6,286.5 101.1,287.2 101.7,287.7 102.6,288.2 
		103.5,288.6 104.4,289.1 105.6,289.5 106.7,289.8 	"/>
	<polyline class="st3" points="106.7,289.8 108,290.2 109.4,290.5 110.8,290.7 112.3,291 113.8,291.2 115.4,291.4 117,291.5 
		118.7,291.5 120.3,291.6 122,291.5 123.6,291.5 125.3,291.4 127,291.2 128.5,291 130,290.9 131.5,290.5 132.9,290.2 134.3,289.8 
		135.6,289.5 136.8,289.1 137.9,288.7 138.9,288.2 139.8,287.7 140.6,287.2 141.3,286.7 141.9,286.1 142.2,285.5 142.6,285 
		142.9,284.4 142.9,283.9 142.9,283.7 	"/>
	<polyline class="st3" points="99.4,272.4 99.4,272.5 99.4,273 99.6,273.7 100,274.2 100.3,274.7 101,275.2 101.6,275.8 
		102.4,276.2 103.3,276.7 104.3,277.2 105.4,277.6 106.6,278 	"/>
	<polyline class="st3" points="106.6,278 107.8,278.4 109.3,278.6 110.7,278.9 112.2,279.1 113.7,279.4 115.2,279.5 116.9,279.7 
		118.5,279.7 120.2,279.8 121.9,279.7 123.5,279.7 125,279.5 126.7,279.4 128.4,279.1 129.9,279 131.3,278.6 132.8,278.4 134.1,278 
		135.4,277.6 136.6,277.2 137.7,276.8 138.7,276.3 139.7,275.8 140.5,275.3 141.1,274.8 141.7,274.2 142.1,273.7 142.5,273.2 
		142.6,272.5 142.8,272 142.8,271.8 	"/>
	<polyline class="st3" points="253.6,102 253.7,102 254.5,101.5 255.3,100.8 256.1,100.1 256.9,99.3 257.5,98.4 258,97.4 
		258.5,96.2 258.9,95.1 259.2,93.9 259.3,92.7 	"/>
	<polyline class="st3" points="259.3,92.7 259.4,91.4 259.4,90.1 259.3,88.8 259.2,87.6 258.9,86.3 258.5,85 258,83.9 257.5,82.6 
		256.9,81.6 256.1,80.6 255.3,79.5 254.6,78.8 253.7,78 252.8,77.4 252.7,77.3 	"/>
	<polyline class="st3" points="253.3,102.2 253.4,102.2 254.3,102 255.2,101.6 256.1,101.1 257,100.4 257.8,99.8 258.4,98.9 259,98 
		259.7,97 260.1,96 260.4,94.8 260.8,93.6 261,92.4 	"/>
	<polyline class="st3" points="261,92.4 261.1,91.1 261.1,89.9 261,88.5 260.8,87.2 260.4,85.9 260.1,84.6 259.7,83.5 259.2,82.4 
		258.5,81.2 257.8,80.2 257,79.3 256.2,78.4 255.3,77.6 254.5,77 253.4,76.5 252.7,76.1 	"/>
	<polyline class="st3" points="164.5,35 164,34.7 163.3,34.5 162.5,34.3 161.6,34.3 160.7,34.5 159.7,34.7 158.8,35 157.8,35.5 
		156.9,36 155.9,36.6 154.9,37.4 154,38.3 153.1,39.3 152,40.3 151.3,41.3 150.4,42.5 149.6,43.8 149,44.9 148.4,46.3 147.7,47.6 
		147.2,48.9 146.8,50.1 146.4,51.5 146.2,52.8 145.9,54.1 145.8,55.3 145.8,56.5 145.9,57.6 146.1,58.7 146.3,59.7 146.6,60.6 
		147.1,61.3 147.5,62.1 148.1,62.7 148.6,63.2 149.2,63.5 	"/>
	<polyline class="st3" points="160.8,45.9 160.6,46.3 159.7,47.4 158.9,48.7 158.2,50 157.5,51.3 157,52.5 156.5,53.8 156,55.2 
		155.7,56.5 155.4,57.8 155.2,59 155.1,60.3 155.1,61.5 155.2,62.6 155.4,63.6 155.6,64.6 155.9,65.5 156.3,66.3 156.8,67.1 
		157.3,67.7 157.9,68.2 158.7,68.6 159.3,68.8 160.1,69.1 	"/>
	<polyline class="st3" points="117.4,59.6 117.7,59.4 118.7,59.2 119.7,58.9 120.7,58.9 121.9,58.9 123,59.2 124,59.4 125.2,59.8 
		126.3,60.4 127.5,61.1 128.5,61.8 129.5,62.6 130.5,63.6 131.5,64.6 132.4,65.8 133.3,66.9 134.1,68.2 134.7,69.6 135.4,70.9 
		136,72.3 136.5,73.8 136.9,75.2 137.1,76.6 137.4,78.1 137.5,79.5 137.5,80.9 137.4,82.4 137.3,83.8 137,85 136.6,86.3 136.3,87.4 
		135.6,88.5 135.1,89.5 134.3,90.4 133.6,91.1 132.8,91.9 131.9,92.4 131,92.9 130.8,93 	"/>
	<polyline class="st3" points="107.7,63.5 108.2,63.2 109.1,62.7 110.1,62.5 111.2,62.4 112.3,62.2 113.5,62.4 114.5,62.5 
		115.6,62.9 116.8,63.2 117.9,63.8 118.9,64.4 120.1,65.2 121.1,66 122.1,66.9 123.1,68.1 124,69.1 124.8,70.4 125.7,71.7 
		126.3,72.9 127,74.3 127.6,75.7 128,77.1 128.4,78.5 128.7,80.1 128.9,81.5 129,83 129,84.4 129,85.8 128.9,87.1 128.5,88.3 
		128.2,89.6 127.7,90.8 127.2,91.9 126.6,92.8 125.9,93.7 125.2,94.6 124.4,95.2 123.5,95.9 122.5,96.4 	"/>
	<polyline class="st3" points="222.4,72.9 222.4,72.9 222.5,73.2 222.6,73.4 223,73.7 223.4,73.9 224,74.2 224.7,74.5 225.5,74.6 
		226.4,74.8 227.3,75.1 228.5,75.2 	"/>
	<polyline class="st3" points="228.5,75.2 229.6,75.3 230.9,75.5 232.2,75.6 233.4,75.7 234.8,75.7 236.2,75.9 237.6,75.9 239,75.9 
		240.4,75.9 241.7,75.9 243.1,75.7 244.4,75.6 245.5,75.6 246.7,75.5 247.8,75.3 248.9,75.1 249.7,75 250.5,74.7 251.1,74.6 
		251.7,74.3 252.2,74.1 252.4,73.8 252.7,73.6 252.7,73.4 	"/>
	<polyline class="st3" points="231.5,69.2 232.5,69.4 233.6,69.5 234.6,69.5 235.7,69.6 236.8,69.6 237.9,69.6 239,69.6 240.2,69.6 
		241.2,69.6 242.2,69.5 243.2,69.4 244.1,69.2 245,69.1 245.7,69 246.3,68.8 246.8,68.7 247.2,68.5 247.6,68.3 247.7,68.1 247.7,68 
		247.6,67.7 247.3,67.6 247.1,67.3 246.6,67.2 245.9,66.9 245.3,66.8 244.5,66.7 243.6,66.4 242.7,66.4 241.7,66.3 240.6,66.2 
		239.6,66.2 238.4,66 237.3,66 236.1,66 235.1,66 233.9,66.2 232.9,66.2 231.9,66.3 231,66.4 230.3,66.6 229.5,66.7 228.9,66.8 
		228.3,66.9 228,67.2 227.7,67.3 227.6,67.6 227.5,67.7 227.6,68 227.8,68.2 228.2,68.3 228.6,68.6 229.2,68.7 229.9,68.8 
		230.6,69.1 231.5,69.2 	"/>
	<line class="st3" x1="153.7" y1="338.8" x2="154" y2="338.6"/>
	<line class="st3" x1="90.1" y1="339.5" x2="90.3" y2="339.6"/>
	<line class="st3" x1="156.3" y1="334.2" x2="156.3" y2="331.1"/>
	<line class="st3" x1="87.6" y1="332.1" x2="87.7" y2="335.2"/>
	<line class="st3" x1="90.1" y1="327.5" x2="90" y2="327.8"/>
	<line class="st3" x1="153.7" y1="326.8" x2="153.6" y2="326.7"/>
	<line class="st3" x1="143.5" y1="330.1" x2="142.9" y2="284"/>
	<line class="st3" x1="99.6" y1="284.6" x2="100.2" y2="330.9"/>
	<line class="st3" x1="88.9" y1="310.3" x2="88.6" y2="310.6"/>
	<line class="st3" x1="88.5" y1="310.7" x2="88.5" y2="310.7"/>
	<line class="st3" x1="86.1" y1="318" x2="86.1" y2="318.5"/>
	<line class="st3" x1="85.9" y1="317.9" x2="86.1" y2="318"/>
	<line class="st3" x1="92.3" y1="311.4" x2="92.3" y2="311.4"/>
	<line class="st3" x1="87.9" y1="319" x2="87.9" y2="319"/>
	<line class="st3" x1="89.5" y1="319.5" x2="90.8" y2="320"/>
	<line class="st3" x1="89.5" y1="319.5" x2="89.5" y2="319.5"/>
	<line class="st3" x1="85.4" y1="314.6" x2="85.3" y2="314.8"/>
	<line class="st3" x1="93.2" y1="311.5" x2="92.3" y2="311.4"/>
	<polyline class="st3" points="91.5,311.6 91.5,311.6 91.4,311.6 	"/>
	<line class="st3" x1="86.1" y1="312.5" x2="85.9" y2="312.9"/>
	<line class="st3" x1="89.1" y1="318.6" x2="89.1" y2="318.6"/>
	<line class="st3" x1="92.9" y1="311" x2="92.8" y2="311"/>
	<line class="st3" x1="91" y1="320" x2="91" y2="320"/>
	<line class="st3" x1="89.4" y1="314.2" x2="89.4" y2="314.2"/>
	<line class="st3" x1="89" y1="315.3" x2="89.1" y2="318.6"/>
	<line class="st3" x1="89" y1="315.2" x2="89" y2="315.3"/>
	<line class="st3" x1="91" y1="319.9" x2="91" y2="320"/>
	<line class="st3" x1="91" y1="319.9" x2="91" y2="319.9"/>
	<line class="st3" x1="91.4" y1="311.6" x2="89.4" y2="314.2"/>
	<polyline class="st3" points="90.7,318.8 90.8,319.4 91,319.9 	"/>
	<line class="st3" x1="90.1" y1="320.4" x2="90.1" y2="320.4"/>
	<line class="st3" x1="92.9" y1="311" x2="92.9" y2="311"/>
	<line class="st3" x1="92.9" y1="321.7" x2="94.3" y2="322.1"/>
	<line class="st3" x1="85.7" y1="317.5" x2="85.9" y2="317.9"/>
	<line class="st3" x1="90" y1="320.3" x2="90.1" y2="320.4"/>
	<polyline class="st3" points="86.1,312.5 85.9,312.8 85.7,313 85.6,313.4 85.4,313.9 85.3,314.6 85.2,314.8 85.2,314.9 	"/>
	<line class="st3" x1="94.3" y1="321.9" x2="95.5" y2="322.3"/>
	<line class="st3" x1="94.6" y1="311.6" x2="94.6" y2="311.6"/>
	<polyline class="st3" points="92.4,312.6 92.1,313 91.7,313.7 91.3,314.3 91,314.9 90.8,315.6 90.7,316.3 90.5,317 	"/>
	<line class="st3" x1="90.5" y1="317" x2="90.5" y2="317.1"/>
	<polyline class="st3" points="90.5,317.1 90.5,317.7 90.7,318.5 90.7,318.9 	"/>
	<polyline class="st3" points="95.5,322.1 96,322.3 96.5,322.4 	"/>
	<line class="st3" x1="100" y1="310.5" x2="99.4" y2="310.2"/>
	<line class="st3" x1="97.3" y1="311.6" x2="97.2" y2="312.4"/>
	<polyline class="st3" points="97,321.6 97.2,321.8 97.4,322.1 	"/>
	<polyline class="st3" points="97.4,322.1 97.5,322.3 97.9,322.7 98.3,323 98.7,323.1 99.2,323.1 99.3,323.1 	"/>
	<line class="st3" x1="96.5" y1="311.1" x2="96.5" y2="311.2"/>
	<polyline class="st3" points="96.5,312.1 96.5,312.1 96.3,312 	"/>
	<line class="st3" x1="96.4" y1="312.1" x2="96.5" y2="312.1"/>
	<line class="st3" x1="96.5" y1="312.1" x2="96.4" y2="312.1"/>
	<line class="st3" x1="97" y1="316.2" x2="97.2" y2="316.2"/>
	<line class="st3" x1="97.4" y1="316.3" x2="97.4" y2="316.3"/>
	<polyline class="st3" points="99.2,322.2 99.3,322.4 99.6,322.7 	"/>
	<polyline class="st3" points="99.6,322.7 99.7,323 100.1,323.3 	"/>
	<line class="st3" x1="97.9" y1="315.6" x2="97.9" y2="315.6"/>
	<line class="st3" x1="98" y1="316" x2="98" y2="316"/>
	<line class="st3" x1="98" y1="316" x2="98.2" y2="316"/>
	<line class="st3" x1="92.7" y1="320.4" x2="94" y2="320.8"/>
	<line class="st3" x1="96.9" y1="311.5" x2="99.2" y2="312.4"/>
	<polyline class="st3" points="99.3,314.2 99.2,314.2 99.2,314.3 99.2,314.4 99.2,314.6 99.3,314.6 	"/>
	<line class="st3" x1="98.8" y1="316.1" x2="98.9" y2="316.1"/>
	<line class="st3" x1="99.1" y1="315.8" x2="98.9" y2="315.8"/>
	<line class="st3" x1="98.9" y1="316.7" x2="98.9" y2="316.7"/>
	<line class="st3" x1="99.4" y1="316.1" x2="99.4" y2="316.1"/>
	<line class="st3" x1="99.4" y1="316" x2="99.4" y2="316"/>
	<line class="st3" x1="99.3" y1="316.8" x2="99.3" y2="316.8"/>
	<line class="st3" x1="99.3" y1="316.8" x2="99.4" y2="316.8"/>
	<line class="st3" x1="96.6" y1="322.3" x2="97.9" y2="322.7"/>
	<line class="st3" x1="98.7" y1="323" x2="100.1" y2="323.3"/>
	<line class="st3" x1="96.4" y1="312" x2="95.2" y2="311.7"/>
	<polyline class="st3" points="87.2,199.9 86.7,201.7 86.3,203 86.2,204 86.1,204.5 85.9,205 85.8,205.8 85.6,206.5 85.3,208.2 
		85.2,209.6 85,211 84.8,213.2 84.8,215.2 84.9,217.2 85,219.4 85.6,221.8 85.9,223.4 86.3,224.8 86.8,225.8 87.2,226.8 87.6,227.6 
		88,228.3 88.5,229.2 89,230 89.4,230.6 89.8,231.1 90.4,231.8 91.2,232.7 92.1,233.5 92.7,234.1 93.2,234.6 93.8,234.9 94.7,235.6 
		95.7,236.2 96.4,236.6 97.3,237 98.6,237.5 100,238 	"/>
	<polyline class="st3" points="122,199 122,198.6 122,198.4 122,197.9 122,197.4 122,196.9 122.1,196 122.2,194.9 122.5,193.9 
		122.6,193.3 122.8,192.8 122.9,192.1 123.1,191.1 123.4,190 123.9,188.6 124.4,186.9 125.2,185 	"/>
	<polyline class="st3" points="125.2,185 125.8,183.1 126.4,181.6 127.1,180.3 127.6,179 128.1,178.1 128.4,177.5 128.6,177 
		129,176.5 129.2,175.8 130.1,174.2 131,172.3 131.8,170.6 132.4,169.2 132.9,168.1 133.3,167.1 133.6,166 134,164.8 134.3,163.4 
		134.7,161.8 135.1,160 135.6,158 136,155.1 136.3,151.9 136.5,148.2 136.5,144.3 136.5,139.8 	"/>
	<polyline class="st3" points="122,199.7 122,199.7 122,199.5 122,199.4 122,199 	"/>
	<polyline class="st3" points="100,238 101.5,238.4 102.8,238.6 103.8,238.6 104.8,238.8 105.8,238.8 106.6,238.8 107.3,238.6 
		108.2,238.6 109.3,238.5 110.5,238.3 111.9,237.9 113.1,237.6 114.5,237.1 115.6,236.7 116.9,236.2 118.3,235.7 119.1,235.3 
		119.8,235.1 120.7,234.7 121.7,234.3 123,233.8 124.4,233.2 	"/>
	<polyline class="st3" points="94.7,177.9 92.9,182.8 91,188.1 90,190.9 89,193.7 88.1,196.7 87.2,199.9 	"/>
	<line class="st3" x1="136.5" y1="139.8" x2="136.3" y2="133"/>
	<line class="st3" x1="100.2" y1="133.9" x2="100.3" y2="140.7"/>
	<polyline class="st3" points="100.3,140.7 100.5,144.1 100.6,147.2 100.7,150 100.7,152.5 100.6,154.7 100.5,156.5 100.3,158 
		100.2,159.2 100.1,160.3 99.8,161.4 99.4,163.5 98.9,165.7 98.4,167.3 98.3,167.9 98,168.6 97.8,169.6 97.4,170.7 96.6,172.8 
		95.9,175.1 94.7,177.9 	"/>
	<polyline class="st3" points="83.5,83.8 83.1,85.3 82.9,87.1 82.8,88.7 82.8,90.8 82.9,92.5 83.1,94.1 83.4,95.5 83.6,96.6 
		83.9,97.6 84.3,98.9 84.8,100.3 85.4,101.7 86.3,103.2 87.1,104.5 88,105.7 88.7,106.4 89.4,107.2 90,108 90.7,108.7 91.3,109.5 
		91.9,110.2 92.6,111 93.2,111.9 93.8,112.7 94.5,113.7 95.4,115 96.3,116.6 97.2,118.5 98,120.8 98.9,123.5 99.6,126.5 100,130.1 
		100.2,133.9 	"/>
	<polyline class="st3" points="108.9,62.9 106.4,63.9 104.2,64.8 102.2,65.7 100.6,66.3 99.3,66.9 98.2,67.4 97.3,68 96.5,68.3 
		95.5,68.8 94.5,69.5 93.2,70.1 92.2,70.9 91.4,71.4 90.7,71.9 89.8,72.7 88.7,73.6 88,74.5 87.5,75.1 87.1,75.6 86.7,76.1 
		86.3,76.7 85.9,77.4 85.4,78.1 85,79.3 84.4,80.4 83.9,82 83.5,83.8 	"/>
	<polyline class="st3" points="136.3,133 136.3,130.9 136,129 135.9,127.3 135.6,126 135.4,125 135.1,124.1 134.5,122.3 
		133.7,120.8 132.8,119.4 131.8,118.1 130.6,116.9 129.4,115.8 128.5,115.1 127.5,114.3 126.4,113.6 125.6,112.8 124.7,112.2 
		124,111.6 123.4,111.1 122.9,110.8 122.6,110.5 122.4,110.4 122.2,110.1 122.1,109.9 121.7,109.4 121.2,108.6 120.8,107.8 
		120.6,107.3 120.5,106.7 120.2,105.8 120.1,104.9 120,103.7 120.1,102.3 120.3,100.8 	"/>
	<polyline class="st3" points="120.3,100.8 120.6,99.8 121,98.9 121.4,98.1 121.6,97.6 121.9,97.3 122.1,97 122.4,96.6 122.6,96.4 
		122.8,96.2 	"/>
	<polyline class="st3" points="149.9,80.6 150.8,79.4 151.4,78.4 	"/>
	<polyline class="st3" points="130.9,93 132.6,92.3 134.1,91.8 135.5,91.1 136.6,90.6 137.7,90.2 138.3,89.9 138.9,89.6 139.6,89.2 
		140.2,89 141.1,88.5 142,88 143,87.2 144.2,86.3 145.6,85.2 147.1,83.9 148.5,82.2 149.9,80.6 	"/>
	<polyline class="st3" points="123.8,55.9 123.4,56.1 123.1,56.4 122.6,56.9 122.4,57.1 122.1,57.4 121.7,57.6 121.2,57.9 
		120.8,58.1 120.3,58.4 119.6,58.7 118.7,59 117.5,59.4 	"/>
	<polyline class="st3" points="131.8,62.5 132.9,63.1 133.8,63.6 134.5,64 134.9,64.4 135.4,64.6 135.9,64.9 136.4,65.3 136.8,65.4 
		136.8,65.5 	"/>
	<polyline class="st3" points="151.5,78.4 152.3,77 152.9,75.9 153.3,75 153.6,74.1 154,73.2 154.2,72 154.3,70.6 154.3,69.5 
		154.2,68.6 154.1,67.8 154,67.2 153.8,66.4 153.7,65.9 	"/>
	<polyline class="st3" points="131.9,26.2 130.5,26.8 129.4,27.5 128.5,28.1 127.7,28.7 126.8,29.5 125.8,30.4 124.9,31.4 124,32.3 
		123.3,33.2 122.6,34.2 122,35.1 121.2,36.2 120.6,37.5 120,38.8 119.6,39.8 119.2,40.8 118.9,41.8 118.8,42.7 118.7,43.5 
		118.5,44.5 118.7,45.5 118.8,46.8 118.9,47.8 119.3,49.1 119.8,50.4 	"/>
	<polyline class="st3" points="119.8,50.4 121,52.3 122.2,54.1 123.6,55.7 125.2,57.3 127.3,59.3 129.6,61.1 131.7,62.4 	"/>
	<polyline class="st3" points="164.5,35 162,33.6 159.7,32.3 157.5,31.1 155.5,30 153.8,29.1 152.4,28.3 151.4,28 150.6,27.6 
		150.1,27.3 149.4,26.9 148.5,26.6 147.6,26.3 147,26.1 146.3,25.8 145.4,25.5 144.4,25.3 143.5,25.2 142.8,25 142.1,24.9 
		141.2,24.8 140.2,24.6 138.9,24.6 137.7,24.8 136.8,24.8 136.1,24.9 135.4,25 134.5,25.3 133.3,25.7 132.1,26.1 	"/>
	<line class="st3" x1="132.1" y1="26.1" x2="131.9" y2="26.2"/>
	<polyline class="st3" points="198.5,53.2 195.7,51.7 193.3,50.3 190.9,48.9 188.5,47.6 186.2,46.3 184.5,45.3 183,44.5 181.6,43.8 
		181.2,43.5 180.7,43.2 180.3,43 179.4,42.6 178.4,42 177.1,41.2 175.6,40.4 174.1,39.7 	"/>
	<polyline class="st3" points="158.7,68.2 161.5,69.7 163.9,71 165.9,72 168,73.2 170.3,74.3 171.3,74.8 172.2,75.2 172.8,75.6 
		173.4,76 174,76.2 174.3,76.5 175.2,76.9 176.2,77.4 177.7,78.1 179.4,79 181.3,80.1 183.5,81.2 	"/>
	<line class="st3" x1="195.9" y1="85.4" x2="196.4" y2="85.4"/>
	<polyline class="st3" points="183.5,81.2 185,82 186.2,82.5 186.9,82.9 187.5,83 187.8,83.2 188.2,83.4 188.7,83.6 189.4,83.8 
		190,84 191.5,84.5 193.1,84.9 194.5,85.2 195.5,85.4 195.7,85.4 	"/>
	<polyline class="st3" points="211.1,86.3 213.8,86.6 216.9,86.9 220.1,87.4 222.1,87.8 	"/>
	<polyline class="st3" points="253.3,102.5 255.1,102.1 256.4,101.8 257.1,101.7 257.9,101.5 258.9,101.2 259.8,100.9 261.2,100.4 
		262.9,99.7 264.4,98.8 265.7,97.9 266.4,97.1 267.1,96.5 267.7,95.7 268.3,94.7 269,93.4 269.5,92 269.9,90.6 270,89.5 270,88.5 
		269.9,86.7 269.5,84.9 269,83.4 268.3,82 267.4,80.6 266.2,79 265,77.8 264,76.9 263.2,76.2 262.5,75.6 261.5,74.8 259.6,73.4 
		257.4,72.2 255.7,71.1 253.9,70.1 251.9,69.1 249.9,68 248.2,67.2 246.8,66.4 245.5,65.8 244.4,65.3 243.1,64.6 241.8,64.1 
		240.2,63.4 238.4,62.7 236.2,62 234.1,61.3 232,60.7 229.4,59.9 226.9,59.3 224.5,58.9 221.1,58.3 217.9,57.6 214.8,57.3 212,57 
		210.4,56.7 208.5,56.5 206.3,56.1 205.3,55.9 204.1,55.6 203.1,55.2 202.1,54.8 201.1,54.5 199.8,53.8 198.5,53.2 	"/>
	<polyline class="st3" points="195.5,85.3 196.8,85.5 198.5,85.7 200.1,85.7 201.6,85.8 202.9,85.8 204.1,85.8 205.3,85.9 
		206.4,85.9 207.8,86 209.4,86.2 210.9,86.3 212.4,86.4 215.5,86.7 218.7,87.2 222,87.7 222.1,87.7 	"/>
	<line class="st3" x1="222.4" y1="117.1" x2="222" y2="117.1"/>
	<line class="st3" x1="222.4" y1="116.9" x2="222.4" y2="116.9"/>
	<line class="st3" x1="222.4" y1="120.1" x2="222.5" y2="120.6"/>
	<line class="st3" x1="222.4" y1="116.5" x2="222.2" y2="116.7"/>
	<line class="st3" x1="222" y1="119.7" x2="222.4" y2="119.7"/>
	<line class="st3" x1="222.4" y1="119.9" x2="222.5" y2="119.9"/>
	<line class="st3" x1="238.8" y1="115.5" x2="238.8" y2="115.5"/>
	<line class="st3" x1="245.9" y1="115.1" x2="245.9" y2="115.1"/>
	<line class="st3" x1="226.7" y1="114.6" x2="226.7" y2="114.6"/>
	<line class="st3" x1="247.2" y1="114.8" x2="247.2" y2="114.8"/>
	<line class="st3" x1="251.4" y1="124.3" x2="251.8" y2="123.9"/>
	<line class="st3" x1="221.8" y1="123.5" x2="222.2" y2="123.9"/>
	<line class="st3" x1="221.8" y1="113" x2="221.7" y2="115.7"/>
	<line class="st3" x1="221.7" y1="120.4" x2="221.7" y2="123"/>
	<line class="st3" x1="252" y1="123.5" x2="252.2" y2="113.6"/>
	<line class="st3" x1="99.3" y1="267.8" x2="99.4" y2="272.4"/>
	<line class="st3" x1="142.8" y1="271.8" x2="142.6" y2="267.2"/>
	<polyline class="st3" points="158.8,209.6 158.8,207.7 158.7,206.2 158.5,204.9 158.4,203.9 158.3,202.8 158,202.1 157.9,201.2 
		157.5,199.7 156.9,197.9 156.1,196 155.4,194.3 154.9,193.4 154.3,192.5 153.7,191.6 152.9,190.7 151.9,189.7 150.9,188.7 
		150.1,188.1 149.5,187.7 148.7,187.1 147.6,186.4 146.6,185.8 145.7,185.4 144.9,185 144,184.8 142.9,184.4 141.3,184 140.1,183.7 
		138.7,183.6 137.3,183.6 135.9,183.7 134.7,183.9 133.8,184 133.1,184.1 132.2,184.2 130.8,184.6 129.6,184.9 128.6,185.1 
		127.7,185.5 126.8,185.8 125.9,186 124.8,186.5 124.5,186.5 	"/>
	<polyline class="st3" points="142.6,267.2 142.6,264.9 142.5,262.8 142.5,260.9 142.5,259.4 142.5,258.1 142.5,257 142.6,256.3 
		142.6,256.1 142.6,255.8 142.8,255.6 142.8,255.3 142.9,254.8 142.9,254.3 143.1,253.3 143.5,251.9 144,250.5 144.5,249.2 
		145,248.1 145.6,246.9 146.7,244.5 147.8,242.1 149,239.8 150.1,237.5 152,233.5 153.8,229.6 155.5,225.5 156,224.2 156.5,222.8 
		157,221.3 157.4,219.7 157.8,218.4 157.9,217.7 158,216.9 158.3,216 158.4,215.1 158.5,214.2 158.7,213 158.8,211.5 158.8,209.6 	
		"/>
	<polyline class="st3" points="110.4,238.3 109.9,239 108.2,241.3 107,243.4 105.7,245 105.2,245.9 104.4,247 103.5,248.4 
		102.8,249.6 102.2,250.7 101.7,251.5 101.5,252 101.2,252.5 101,253.2 100.7,253.8 100.5,254.6 100.1,255.6 99.8,256.9 99.7,257.6 
		99.7,258.4 99.6,259.3 99.4,260.3 99.4,261.7 99.3,263.5 99.3,265.5 99.3,267.8 	"/>
	<polyline class="st3" points="252.2,106.7 252.3,105.7 252.4,104.6 252.7,103.6 252.9,103.1 253.2,102.6 253.3,102.2 253.4,102.1 
		253.6,102 	"/>
	<polyline class="st3" points="252.8,78.4 252.8,78.4 252.8,78.3 252.7,77.9 252.7,77.5 252.7,77.3 252.7,77 	"/>
	<line class="st3" x1="252.2" y1="112.9" x2="252.2" y2="106.7"/>
	<line class="st3" x1="252.7" y1="77" x2="252.7" y2="73.4"/>
	<line class="st3" x1="222.4" y1="72.9" x2="221.8" y2="112.5"/>
	<line class="st3" x1="124.5" y1="233.2" x2="132.9" y2="229.8"/>
	<line class="st3" x1="99.4" y1="272.5" x2="99.6" y2="284.4"/>
	<line class="st3" x1="142.9" y1="283.7" x2="142.8" y2="271.9"/>
	<line class="st3" x1="172.3" y1="39" x2="164.5" y2="35"/>
	<line class="st3" x1="149.2" y1="63.5" x2="158.4" y2="68.5"/>
	<line class="st3" x1="117.4" y1="59.6" x2="108.9" y2="62.9"/>
	<line class="st3" x1="122.6" y1="96.2" x2="130.8" y2="93"/>
	<line class="st3" x1="222.4" y1="72.5" x2="222.4" y2="72.9"/>
	<line class="st3" x1="252.7" y1="73.4" x2="252.7" y2="73.1"/>
	<polyline class="st3" points="252.7,73.1 252.7,72.9 252.7,72.2 252.5,71.5 252.3,70.8 251.9,70.1 251.5,69.6 251.1,69.1 
		250.6,68.7 250.1,68.3 249.6,68 249,67.7 248.3,67.4 247.5,67.1 246.4,66.8 245.4,66.7 244.4,66.4 243.2,66.3 242.2,66.2 
		241.1,66.2 239.9,66 238.8,66 237.6,65.9 236.4,65.9 235.2,66 234.1,66 233.1,66 231.9,66.2 230.9,66.3 229.9,66.4 228.9,66.6 
		228,66.8 226.8,67.1 226.2,67.4 225.5,67.7 224.9,68.1 224.4,68.5 223.9,69 223.4,69.5 223,70.1 222.7,70.8 222.5,71.4 222.4,72.2 
		222.4,72.5 	"/>
</g>
<path class="st4" d="M137.1,297c-0.1,5.8-7.1,10.5-15.7,10.4s-15.6-4.9-15.5-10.7"/>
<polygon class="st5" points="107.3,298.2 104.3,296 107.7,294.5 "/>
<polygon class="st5" points="138.8,296.7 135.6,298.7 135.5,295 "/>
<g>
	<path class="st4" d="M138.4,188.5c5.5-1.8,12.2,3.3,14.9,11.5s0.4,16.3-5.1,18.1"/>
	<polygon class="st5" points="149.2,216.3 148.1,219.9 145.6,217.2 	"/>
	<polygon class="st5" points="137.6,187 140.5,189.4 137,190.8 	"/>
</g>
<g>
	<path class="st4" d="M162.7,69.5c-4.9-3.2-5-11.6-0.3-18.8s12.5-10.5,17.4-7.4"/>
	<polygon class="st5" points="177.6,43.8 181.1,42.3 180.6,46 	"/>
	<polygon class="st5" points="162,71.1 162,67.3 165.2,69.2 	"/>
</g>
<g>
	<path class="st4" d="M253.1,127.5c0.1,5.8-6.8,10.7-15.4,10.8c-8.6,0.2-15.7-4.4-15.8-10.2"/>
	<polygon class="st5" points="223.4,129.6 220.2,127.5 223.6,125.9 	"/>
	<polygon class="st5" points="254.8,127.2 251.7,129.3 251.4,125.6 	"/>
</g>
<g>
	<path class="st4" d="M258.1,72.3c5.8,0.3,10.2,7.5,9.8,16.1s-5.5,15.4-11.3,15.1"/>
	<polygon class="st5" points="258.2,102.1 255.9,105.1 254.5,101.6 	"/>
	<polygon class="st5" points="257.9,70.6 259.8,73.8 256.1,73.9 	"/>
</g>
<g>
	<path class="st4" d="M106.3,65.4c5.2-2.6,12.6,1.5,16.5,9.2s2.8,16.1-2.3,18.7"/>
	<polygon class="st5" points="121.1,91.3 120.6,95 117.7,92.7 	"/>
	<polygon class="st5" points="105.3,64 108.6,65.9 105.3,67.8 	"/>
</g>
<line class="st6" x1="144.1" y1="280.3" x2="190.8" y2="280.3"/>
<line class="st6" x1="141.5" y1="221.4" x2="194.9" y2="221.4"/>
<line class="st6" x1="56.8" y1="61.4" x2="110.4" y2="61.4"/>
<line class="st6" x1="174.5" y1="37.7" x2="227.9" y2="37.7"/>
<line class="st6" x1="261" y1="87.6" x2="307.7" y2="87.6"/>
<line class="st6" x1="250.9" y1="120.1" x2="304.5" y2="120.1"/>
<text transform="matrix(1 0 0 1 204.2401 283.7002)" class="st7 st8">关节1</text>
<text transform="matrix(1 0 0 1 204.2401 225.6)" class="st7 st8">关节2</text>
<text transform="matrix(1 0 0 1 25.1497 64)" class="st7 st8">关节3</text>
<text transform="matrix(1 0 0 1 237.5008 41.2151)" class="st7 st8">关节4</text>
<text transform="matrix(1 0 0 1 312.6313 91.2998)" class="st7 st8">关节5</text>
<text transform="matrix(1 0 0 1 312.6313 123)" class="st7 st8">关节6</text>
</svg>
