<svg id="图层_1" data-name="图层 1" xmlns="http://www.w3.org/2000/svg" viewBox="0 0 169.22 165.22"><defs><style>.cls-1{fill:none;stroke:#000;stroke-linecap:round;stroke-linejoin:round;stroke-width:0.71px;}</style></defs><path class="cls-1" d="M67.07,35h0m-.26-.47.13-.06m.4,1.19L67.07,35m-1.85.13.13.06.26.14h.47l.53-.14.46-.19m-1.52-.67h0l-.07.27.07.13.2.07h.33l.4-.07.33-.2m-.73-1.72.26-.13.2-.2.07-.13-.07-.07m-1.12-.46h0l.06.06m-.46,1V33h.46l.33-.07.27-.13M63,37.14H63m-.33-.39.13-.07m.4,1.13L63,37.14m-1.86.14.14.13.26.06H62l.53-.13.47-.2m-1.53-.59h0l-.06.2.06.13.2.06H62l.4-.06.33-.13M62,35l.27-.2.2-.2v-.2M61.31,34h.07m-.47,1.06h0l.2.13h.27l.33-.13L62,35m-3.11,4.23h.07m-.33-.4.13-.06m.4,1.12-.27-.66M57,39.39l.13.14.27.06h.46l.53-.13.46-.2m-1.52-.59h0l-.13.19.13.2.2.07h.33l.4-.13.33-.14m-.73-1.72.26-.2.2-.13v-.2m-1.19-.46h.13m-.53,1.06h0l.27.13h.26l.34-.06.26-.14m-3.11,4.24h0m-.27-.4.14-.06M55,42l-.26-.66m-1.85.13.13.13.26.14h.47l.46-.14.53-.26m-1.52-.6-.07.07-.07.2.14.13.19.07h.34l.33-.13.39-.14m-.72-1.72.26-.13.2-.2v-.2m14.69-2.38.4-.33.33-.27.07-.26v-.07m-1.06.47.33-.2.2-.2.07-.2-.14-.13L69,35.09M53,38.27h.06l.07.06m-.53,1h0l.27.13h.26l.33-.07.27-.13m-3.12,4.3h0m-.26-.46.13-.07m16.55-6.61.13.13.27.13h.46l.47-.13.52-.2m-1.52-.66h0l-.13.26.13.13.2.07h.33l.33-.13.4-.13M50.92,44.23l-.27-.67m17.28-9.4L68.2,34l.13-.2.07-.13v-.07M48.8,43.7l.13.06.27.14h.46l.46-.14.53-.2m-1.52-.66-.06.07-.07.2.13.13.2.07h.33L50,43.3l.4-.2M67.2,33.17h0l.14.07m-.53,1,.06.07.2.06h.27l.33-.06.26-.14M49.66,41.38l.27-.13.13-.2.06-.13v-.07m14.7-2.38.4-.27.33-.33.06-.26v-.07m-1,.46.33-.19.2-.2.06-.2L65,37.28l-.13-.07m-16,3.18H49l.07.06m-.53,1,.06.06.2.07h.27l.33-.07.26-.13m-3.11,4.3h0m-.26-.39.13-.07M63,38.6l.06.07.33.13h.47l.46-.13.53-.2m-1.52-.66-.07.06-.06.2.13.13.2.07h.33l.33-.07.4-.2M46.82,46.34l-.27-.66m17.28-9.4.26-.13.13-.2.07-.13v-.07M44.7,45.82l.06.13.33.06h.47l.46-.13.53-.2M45,45l-.07.07-.06.2.13.13.2.06h.33l.33-.06.4-.13m16.81-10h0l.13.07m-.53,1h0l.27.13h.26l.27-.06.33-.14M45.56,43.5l.26-.13.13-.2L46,43V43m14.7-2.38.39-.27.27-.26.13-.27v-.13m-1.06.53.33-.2.2-.26.07-.14-.14-.2-.19-.06M44.83,42.57H45m-.53,1.06.07.07.2.06L45,43.7l.27-.07.33-.13m13.3-2.78.07.13.33.07h.46l.47-.14.53-.19M59.19,40h0l-.13.2.07.13.26.07h.33l.33-.07.4-.13m-.73-1.79.27-.13.13-.2.07-.13v-.07M59,37.47h.13m-.53,1.06h0l.26.14.27-.07.26-.07.33-.13m-3.11,4.3.4-.26.26-.27.14-.26v-.07m-1.06.47.26-.2.27-.2.06-.2-.13-.13-.2-.07m-1.85,1.33.06.13.34.06h.46l.46-.13.53-.2m-1.52-.59H55l-.06.2.06.2.27.06h.33l.33-.13.4-.13m-.73-1.72.26-.2.14-.14.06-.19m-1.19-.47H55m-.53,1.06h0l.27.13H55l.27-.06.33-.13m-3.11,4.23.4-.26.26-.27L53.3,44,53.24,44m-1,.46.27-.19.2-.2.06-.2-.06-.13-.2-.07M50.65,45l.07.14.33.13.4-.07.53-.06.53-.27M51,44.23l-.07.06-.07.2.07.13.26.07h.27l.4-.13.39-.14m-.72-1.72.26-.19.13-.14.07-.13v-.07m-1.19-.46h0l.13.07m-.53,1,.07.07.19.06h.27l.26-.06.34-.14M48.4,47l.4-.27.27-.33.13-.26-.07-.07m-1,.46.26-.2.2-.19.07-.2-.07-.13-.2-.07m-4.83,1.52L44,48.53m2.52-1.39h0l.4.2h.39l.53-.13.53-.2m-1.58-.67h0l-.07.27.07.13.26.07h.26l.4-.07.4-.2m-.73-1.72.27-.13.13-.2.06-.13v-.07m-1.19-.46h0l.14.07m-.53,1,.06.06.2.07h.27l.26-.07.33-.13M133.14,95.2l-1.53-3.84m-7.08,49.45,1.65,4.3M39.73,120l.53,1.25M67.93,128v.39m10.59-96-.2-.66M70.25,33.3l1.06,2.85M44.5,44.89l.2.46m27.6-10-.26-.8M36.49,54.22l-.27-.66m71-39.45,2.25-1.86m1.85,17.28-1.65-4.1M28,61.83l-1.59-4.1m-.73,19.79-4.1,3.31m94-32.37.46.07m-49.25-14,.2-.13m.13.6V35L67,34.89v-.06l-.07-.07v-.07l-.07-.06-.06-.07m-1.2.07.07.06.2.07h.26l.34-.07.26-.13m0,0-.66-1.72m0,0L66,32.71,66,32.58l-.07-.14-.07-.13-.06-.13-.14-.13L65.55,32l-.07-.07m-2.84,4.77.13-.13m.2.59h0L62.9,37v-.07l-.07-.06v-.07h-.06v-.06H62.7m-1.19,0,.07.06.2.07H62l.33-.07.27-.13m0,0L62,35m0,0-.06-.2-.07-.14-.06-.13-.07-.13-.07-.13-.13-.14-.07-.06L61.38,34M58.53,38.8l.13-.07m.2.53h0l-.06-.13v-.07L58.73,39l-.07-.07v-.07H58.6m-1.19,0h0l.26.14h.27l.26-.07.33-.13m0,0-.66-1.66m0,0L57.8,37l-.06-.2-.07-.13-.06-.13-.07-.13-.13-.07-.07-.13-.07-.07m-2.84,4.77.13-.07m.2.53h0l-.07-.07v-.06l-.06-.07v-.06l-.07-.07V41h-.07M53.3,41l.07.14h.46l.27-.07.33-.13m0,0-.66-1.66m0,0-.07-.13L53.63,39l-.06-.2-.07-.13-.07-.14-.13-.06-.06-.07-.07-.07m16.28-.72-.53-1.26m-.33-.53.27-.13.13-.2.07-.13v-.07m-.14,1.06v-.07l-.06-.06v-.07l-.07-.07V36L68.73,36h-.07v-.06m-1.19,0,.06.13H68l.26-.07.33-.13m0,0-.66-1.66M50.32,43.1l.14-.13m.19.59h0l-.06-.13v-.06l-.07-.07v-.07l-.06-.06h-.07V43.1m-1.19.07h0l.26.13h.27l.26-.13.33-.07m0,0-.66-1.72m18.27-7.22L67.87,34l-.07-.13-.07-.2-.06-.13-.14-.13-.06-.07-.07-.07-.06-.06M49.66,41.38l-.06-.13-.07-.13L49.46,41l-.06-.13-.14-.13-.06-.13-.07-.07-.06-.07m16.21-.72-.46-1.26M64.49,38l.26-.19.14-.14.06-.2v-.06m-.13,1.06h0l-.07-.14v-.06l-.06-.07-.07-.06v-.07h-.06V38m-1.2.07h0l.27.13h.26l.27-.06.33-.14m0,0-.66-1.72M46.22,45.22l.13-.13m.2.59h0l-.07-.13v-.07l-.06-.06-.07-.07-.06-.06m-1.2,0,.07.06.2.07h.26l.27-.07.33-.13m0,0-.66-1.72m18.27-7.22-.07-.13L63.7,36l-.07-.13-.07-.14-.13-.13-.07-.13-.06-.07-.07-.06M45.56,43.5l-.07-.13-.07-.14-.06-.13L45.29,43l-.13-.13-.07-.14L45,42.64,45,42.57m16.22-.73-.46-1.25m-.33-.47.26-.2.13-.13.07-.2m-.13,1h0l-.07-.14v-.06l-.07-.07-.06-.07-.07-.06m-1.19,0h0l.26.13h.27l.26-.07.34-.13m0,0-.67-1.72m0,0-.06-.13-.07-.13L59.52,38l-.06-.13-.13-.13-.07-.13-.07-.07-.06-.07M57.08,44l-.47-1.33m-.33-.46.27-.13.13-.2.06-.13v-.07m-.13,1-.06-.06v-.07l-.07-.06v-.07h-.07v-.07l-.06-.06m-1.19,0h0l.26.13h.27l.26-.07.33-.13m0,0-.66-1.65m0,0-.07-.14-.06-.2-.07-.13L55.35,40l-.13-.13-.06-.07-.07-.13L55,39.59M53,46.15l-.46-1.33m-.33-.46.2-.13.19-.2.07-.13v-.07m-.13,1-.07-.06v-.07l-.06-.07-.07-.06v-.07l-.07-.07m-1.19,0,.07.07.13.07h.27l.33-.07.33-.13m0,0-.66-1.66m0,0-.07-.13-.07-.13-.06-.2-.14-.13L51.12,42l-.07-.07L51,41.78h-.07m-2.05,6.48L48.4,47m-.33-.47.2-.2.2-.19.07-.14V46M48.4,47h0l-.06-.14-.07-.06v-.07l-.06-.06v-.07h-.07v-.07M47,46.61l.06.07.14.06h.26l.33-.13.33-.07m0,0-.66-1.72m18.34-8.4.06.13.33.06h.4l.53-.13m-15.95,9.8.13.06.27.14H52l.53-.14.46-.19m0,0,.46-.27.27-.33.07-.26v-.07m-8.61,1.85.13.14.27.06H46l.53-.13M47,48.4l.14.13.26.07h.46l.53-.14.47-.2m0,0,.46-.26.27-.27.06-.26v-.13m7.88-6.69.07.13.33.14h.39l.53-.14m4.57-.92.13.13.27.07h.46l.53-.14.46-.19m0,0,.47-.27L66,39.2l.07-.27v-.07m-4.44-.33.07.14.33.13.4-.07.53-.06V38.6m4.63-.86.07.13.33.07h.4l.52-.13.53-.2m0,0,.4-.27.27-.33.06-.26v-.07M49.33,45l.07.14.33.06h.39l.53-.13m4.57-.93.13.14.27.13h.46l.53-.13.47-.2m0,0,.46-.33.26-.27.07-.26V43.1m-4.44-.26h0l.4.19h.4l.53-.13M59.33,42l.13.13.26.06h.47l.53-.13.46-.2m0,0,.46-.26.27-.27.06-.26V41m2.45-4.83,1-.53m-5.1,2.65,1-.46m-5.09,2.64,1-.53m-5.1,2.65,1-.53M48,44.69l1-.53m-5.16,2.71,1.06-.53m-1.06.53-.07.07h-.13l-.07.07v.06l-.06.07v.07l.06.06m2.65,1.85-2.65-1.85m25.09-13,3,2.12M47.41,44.82l-.07-.13-.06-.13-.07-.14-.13-.19L47,44.16,47,44,46.88,44l-.06-.06M50,119.23l1.59.2,2.78.26,2.91.13h3.12l3.17-.2,3.38-.26,3.37-.46,3.58-.6,3.57-.73,3.64-.86,3.71-1,3.71-1.06,3.71-1.26,3.7-1.32,3.64-1.46,3.58-1.52,3.57-1.66,3.45-1.72,3.31-1.78,3.17-1.86,3.11-1.92,2.92-2,2.78-2,2.58-2,2.38-2L132.54,90l2-2,1.72-2,.13-.13m-95.06,33-.2.14m.33.53.14-.07M137.5,84.74l-.33.46-1.65,2-1.85,2.06-2.06,2m0,0-2.25,2-2.51,2-2.65,2.05-2.85,2-3,1.92-3.17,1.92L112,105.13l-3.37,1.78-3.51,1.66-3.58,1.59-3.64,1.52-3.64,1.39-3.71,1.26-3.7,1.19-3.71,1.06-3.64.93-3.64.79-3.58.66-3.5.47-3.38.39-3.31.27-3.11.06-3-.06-2.85-.2-2.71-.33-1.92-.33m-6.88.46-.14-.26m0,0,.07.19m-.33-.19-.07-.53m0,0-.06-.27m.33.07.06.39m0,0,.47.8m84.26,25.22,3.58-1.85,3.38-2,3.24-2.05,3.11-2.12L142.4,135l2.72-2.18,2.51-2.19,2.32-2.18,2.05-2.19,1.86-2.18,1.52-2.12,1.32-2.12,1.06-2.12.73-2,.06-.2m-3,6.29-.93,1.52-1.46,2-1.65,2.05-1.86,2-2.11,2.12-2.32,2.05-2.45,2-2.71,2-2.85,2-3.05,2-3.11,1.92-3.31,1.79-3.37,1.79-3.51,1.65-3.58,1.66-3.64,1.45-3.7,1.46-3.71,1.26-3.71,1.19-3.7,1.06-3.71.92-3.64.8-3.58.73-3.51.53L81,160.2l-3.31.27-3.17.13-3-.07-2.91-.13-2.72-.33-2.51-.46-2.39-.6-.79-.26M162,110.56l-.2.33-1.46,2.25-1.65,2.25-1.92,2.25L154.65,120l-2.38,2.31-2.59,2.32L147,126.84l-3,2.25-3.18,2.25-3.31,2.19-3.44,2.11-3.64,2.06-3.71,2.05M56.22,156.5l.46,1.12m0,0,2.25.73,2.45.66,2.71.46,2.92.34,3,.13h3.24l3.45-.13,3.5-.34,3.65-.39,3.77-.66,3.77-.73,3.91-.86,3.9-1.06,4-1.19,3.91-1.26,4-1.46,3.84-1.52,3.84-1.66,3.77-1.72,3.64-1.85m.6-6.49,3.77-2,3.64-2.12,3.51-2.12,3.38-2.18,3.18-2.25,3-2.26,2.84-2.31,2.58-2.32,2.45-2.32,2.19-2.31,2-2.32,1.72-2.25,1.46-2.32,1.26-2.18,1-2.19.73-2.11.46-2.06.27-2-.07-1.86-.33-1.85-.4-1.39M151.14,64.35l.2.2,1.59,1.26,1.32,1.39,1.13,1.52.79,1.59.6,1.72.33,1.79v1.92l-.2,2-.46,2-.73,2.12-1,2.19-1.26,2.18L152,88.51l-1.79,2.32-1.92,2.32L146,95.46l-2.38,2.32L141,100.1l-2.78,2.25-3,2.31L132,106.85l-3.31,2.25-3.51,2.12-3.64,2-3.77,2m8.93,24.43-3.84,1.92-3.9,1.79-4,1.78-4,1.66-4.1,1.52-4.17,1.46-4.17,1.25-4.11,1.2-4.1,1-4.1.93-4,.8-4,.66-3.84.53-3.7.33-3.64.2-3.51.06-3.31-.06L57,156.56l-3-.33-2.78-.53L48.67,155l-.93-.27m79-15,.07-1.13M27.22,114.79l.13,1.33.4,1.72.66,1.59.86,1.52,1.19,1.45,1.39,1.26,1.66,1.19,1.85,1,2.12.92,2.32.8,2.51.66,2.72.53,2.91.33,3.11.27,3.25.06,3.37-.06,3.51-.2,3.64-.4,3.71-.46,3.84-.6,3.9-.79,4-.93,4-1,4-1.2,4-1.25,4-1.39,4-1.46,4-1.65,3.91-1.66,3.84-1.79,3.71-1.92m0,0,3.64-1.92,3.5-2,3.38-2,3.18-2.12,3.11-2.18,2.85-2.19L138.1,98l2.52-2.25,2.25-2.25L145,91.23,146.84,89l1.59-2.19,1.39-2.18,1.12-2.12.93-2,.59-2.06.4-1.92.13-1.92-.19-1.78L152.4,71l-.66-1.59-.86-1.53-.6-.79M116.45,113.2l3.71-2,3.64-2.12,3.44-2.12,3.31-2.18,3.18-2.19,2.91-2.25L139.42,98,142,95.73l2.38-2.32,2.12-2.25,1.92-2.32,1.65-2.25,1.46-2.25,1.12-2.18.93-2.12.66-2.12.4-2,.07-1.92-.14-1.85-.39-1.79-.67-1.65-.92-1.52-1.19-1.46-.53-.46M34.11,144.78l.13.26L35,146.7l1.13,1.52,1.32,1.39,1.59,1.26L40.86,152l2,1.06,2.32.86,2.45.73,2.71.66,2.91.47,3.05.33,3.24.13,3.44.07,3.51-.14,3.71-.26,3.77-.4,3.91-.53,4-.66,4.1-.86,4.11-.93,4.1-1.12,4.17-1.19,4.17-1.33,4.17-1.45,4.17-1.59,4.11-1.66,4-1.72,4-1.85,3.84-2m-9-23.3,9,23.3M25.43,113.8v1.06l.14,1.85L26,118.5l.67,1.65.92,1.59,1.19,1.39,1.46,1.33,1.72,1.25,1.92,1.06,2.19.93,2.38.79,2.58.67,2.78.53,3,.39,3.18.2,3.31.13,3.5-.06,3.65-.27,3.7-.33,3.84-.53,4-.59,4-.8,4.1-.92,4.1-1.06,4.11-1.19,4.17-1.33,4.17-1.39,4.1-1.59,4-1.65,4-1.72,3.9-1.86,3.84-1.92m1.33,2.12-3.84,1.92-4,1.85-4,1.79-4.11,1.66-4.1,1.59-4.17,1.45-4.17,1.33-4.17,1.19L81,129.22l-4.11.93-4,.79-4,.73-3.9.53-3.77.4-3.71.26L54,133l-3.37-.07-3.25-.2-3.11-.33-2.84-.46-2.72-.6-2.51-.73-2.25-.92-2.06-1L30,127.57l-1.52-1.33-1.39-1.39L26,123.4l-.86-1.66L24.64,120l-.33-1.79-.07-1.92.27-2,.2-1m91.74-.14,1.33,2.12M28.15,118.9l-.27-.67-.33-1.72-.06-1.59M150.15,67.46l.2.2,1.06,1.46.86,1.52.06.13M71.11,123.2l3.51-.6,3.57-.66,3.64-.86,3.64-.93,3.71-1.06,3.71-1.19,3.7-1.32,3.71-1.46,3.58-1.52,3.57-1.59,3.44-1.72,3.38-1.79,3.24-1.85,3.11-1.85,3-2,2.78-2,2.59-2,2.44-2,2.26-2,2-2,1.79-2.06,1.59-2,1.32-2,1.06-2,.86-1.92.6-1.85.26-1.79.07-.13M40.33,118.63l.13.2,1.46,1.06,1.72,1,1.92.86,2.12.73,2.31.6,2.52.39,2.71.33,2.91.2h3l3.18-.13,3.31-.26,3.44-.4M39.73,120h.6l.4.13.13.26-.07.33-.4.4-.53.33-.72.27-.67.19m0,0h-.59l-.4-.13-.13-.26.13-.33.33-.4.6-.33.66-.33.66-.13m-11.58-4.7.2,1.25.46,1.66.79,1.59,1.06,1.45,1.26,1.39,1.52,1.26L35.23,125l2,.92,2.25.86,2.45.73,2.64.6,2.85.39,3.05.27,3.24.13h3.38l3.44-.2,3.64-.26,3.77-.46m0,0,3.84-.6,3.91-.73,4-.93,4-1,4-1.12,4-1.26,4-1.39,4-1.52,4-1.59,4-1.72,3.84-1.79,3.77-1.92,3.65-1.92,3.5-2,3.38-2.06,3.24-2.18,3.05-2.18,2.91-2.19,2.65-2.25,2.51-2.25,2.26-2.25,2.05-2.25,1.85-2.25L148,86.39l1.33-2.18,1.12-2.12.8-2.12.53-2,.33-2V74.15l-.27-1.79-.46-1.65-.79-1.59-.67-1m-68.71-37-.46-.07-.8.07-.79.26-.8.34m0,0-.72.39-.47.47-.13.19m1.32-1.05-1.92-3M29.74,38.2l.26.93v.93l-.26.86-.4.79-.46.6m.53-4.77.33.66m2.64.33-2.64-.33M39.14,53l-.53-.06-.73.06-.86.27-.8.33m0,0-.66.4-.46.46-.13.2m1.25-1.06-1.85-3m113,22.24-.2.33-1.39,2.25-1.66,2.26L142.2,80l-2.11,2.32-2.39,2.25-2.58,2.32-2.78,2.31-3,2.25-3.11,2.19-3.31,2.18L119.43,98l-3.57,2-3.71,2m3-49.52.4-.46.39-.8.27-.92v-.93l-.2-.86m0,0-.26-.46m.33,6.62.59-.6.6-1,.46-1.13.33-1.19.07-1.26L118,48.26l-.33-1.12m-6.36-32.57-.53-1-.73-.93-.86-.6-.86-.33-.73.14-.46.46-.13.79.2,1m0,0,.53,1,.79.86.86.6.93.26.66-.07.46-.46.07-.79-.2-.93m6.36,32.57-.47-1-.06-.07m.53,1.06,5,.59m-.53-19.13.2-.39.86-1.92.59-1.92.33-1.86.14-1.78-.2-1.72-.4-1.59-.73-1.53L122,14.5l-1.19-1.25-1.45-1.2-1.66-1-1.92-.92-2.12-.8-2.31-.66-2.52-.46-2.71-.4-2.92-.2-3-.13-3.24.06-3.31.27-3.45.33-3.57.46L83,9.27l-3.71.8-3.77.86L71.71,12l-3.84,1.12L64,14.44l-3.78,1.39-3.7,1.45-3.71,1.59L49.2,20.59l-3.51,1.73M112.15,102l-3.84,1.92-4,1.85-4,1.72-4.11,1.66-4.1,1.58-4.1,1.39-4.17,1.33-4.11,1.19-4.17,1.06-4,.93-4,.79-3.9.66-3.84.47L56,119l-3.64.2-3.45.07-3.31-.14-3.17-.19-3-.4L36.62,118,34,117.31l-.86-.27m79-15,.07-1.06M77.86,72l-.26.2-.67.66-.39.66-.2.6.06.46M30.66,60.78l1-.6.92-.66.66-.66.4-.6.2-.6-.13-.53-.33-.39-.66-.27-.8-.13h-1l-1.13.13-1.12.27-1.19.46-1.13.53m0,0-1.06.6-.86.66-.66.66-.4.6-.2.59.07.53.4.4.59.26.8.14h1L27.15,62l1.2-.26,1.19-.46,1.12-.53M114,28.47l1-.59.86-.67.66-.66L117,26l.14-.6-.07-.53-.4-.4-.59-.26-.8-.2-1,.07-1.13.13-1.19.26-1.12.47-1.19.53m0,0-1,.59-.86.6-.66.66-.46.66-.14.6.07.53.4.39.59.27.8.13h1l1.13-.13,1.19-.33,1.19-.4,1.12-.53m-75.66,25,1-.6.87-.66.59-.66.33-.6.07-.53-.2-.46-.46-.4-.73-.2h-.93l-1.06.07-1.12.26-1.19.47-1.13.46m0,0-1,.6-.86.66-.6.66-.33.6-.13.59.26.47.47.33.72.2h.93l1.06-.07L36,54.35,37.22,54l1.12-.53m42-21.85L81.44,31l.79-.66.6-.6.39-.66.07-.53-.2-.47-.53-.39-.66-.2H81l-1.12.13-1.13.27-1.19.39-1.13.47m0,0-1,.59-.79.66-.66.67-.34.59-.06.6.2.46.46.33.73.2.93.07,1.05-.14,1.2-.26,1.12-.4,1.13-.53M44.56,48.86,42.71,47.6m0,0-.2-.26-.06-.27v-.33l.19-.4L43,46l.39-.39.53-.4.6-.33m18.33-9.53L65.42,34m-6.69,3.51,2.58-1.39m-6.68,3.51,2.58-1.39m-6.75,3.51,2.64-1.33M46.35,43.9,49,42.57m-4.5,2.32.4-.2m23-11.58h.39l.6-.07h.59l.47.13.33.13m0,0L72,34.56m0,0,.19.27.14.26-.07.33-.2.4-.33.4-.4.33-.53.39-.59.34m0,0L49.2,48.2m0,0-.66.33-.67.26-.72.2-.67.13-.59.07-.53-.07-.46-.06-.34-.2m78.91-23.37-.2-.06-1.92-.93-2.12-.79L116.92,23l-2.52-.46-2.71-.4-2.91-.2-3-.06-3.24.06-3.31.2-3.45.33L92.16,23l-3.64.6-3.71.79L81,25.36l-3.77,1-3.84,1.19L69.65,28.8l-3.84,1.39-3.7,1.46L58.4,33.24,54.76,35l-3.51,1.79M67.14,72.43l-2.45-6.36m-19-43.75-1.32-2.06m71,33.3-.4-2.05.27-2.19L116,47.4l1.32-1.52,1.53-.73,1.52.07,1.32.93,1,1.58m0,0,.46,2.06-.2,2.18-.66,2L121,55.48l-1.59.73-1.65-.07-1.39-.92-1.06-1.66M112.22,101,116,98.9l3.64-2.05,3.51-2.18,3.31-2.19,3.18-2.25,3-2.25,2.78-2.31,2.65-2.26L140.48,81l2.25-2.32,1.92-2.25,1.72-2.31,1.53-2.25,1.26-2.19,1-2.18.73-2.12.46-2,.2-2-.07-1.92-.26-1.79-.47-1.39M77.86,71.76,77.53,73l-1.32,1.72-1.86,1.06L72.17,76l-2.12-.6-1.79-1.25-1.12-1.72m0,0,.2,3.24m-2.65-9.6.2,3.18m-1.46-4.17,1.26,1M62.31,65l.59.06.53.07M122.48,3.85l.46.13,2.25.86,2.12,1.06L129.1,7l1.59,1.26L132,9.67l1.06,1.52.86,1.66.6,1.72.26,1.79.07,1.92-.2,1.92-.47,2.05-.72,2.12-1,2.18-1.25,2.25-1.53,2.25L128,33.3l-2,2.32-2.19,2.32-2.38,2.31-2.65,2.32L116,44.89l-3,2.25-3.18,2.25-3.38,2.18L103,53.69l-3.64,2.12-3.77,2M64.89,69.25l2.45,6.42m-2.45-6.42-1.13-.13M75.88,61l.33-.4.26-.33m-.59.73-.53,1.52m.19,3.25-.19-3.25m-8,13.11-.86.66-.67.6m1.53-1.26.33.53.33.6.46.59.66.6,1.13.59.79.33.73.14.6.06,2.18-.26.66-.27.6-.33.59-.46.67-.6.66-1.06.4-1.06.19-.92-.33-2m-2.45-6.35.53-.67m1.92,7-2.45-6.35M78,72.16l.93.13.73.07M32.38,38.53l.2,1.13-.06,1.12-.47,1.06-.66.8-.86.39h-.79L29,42.51l-.53-.87m0,0-.2-1,.07-1.2.39-1.06.67-.79.79-.4.86.07.79.46.53.86m18.87-1.78-3.44,1.78L44.5,40.45l-3.18,2-3,2.05-2.84,2L32.85,48.6l-2.52,2.11-2.25,2.12L26,55l-1.85,2.12-1.59,2L21.2,61.17l-1.06,2-.86,2-.33.73m32.3-29.19L45.69,22.32m0,0-3.44,1.92-3.38,1.91-3.18,2-3,2L29.8,32.24l-2.65,2.12-2.51,2.12L22.39,38.6l-2.05,2.12-1.86,2.12L16.89,45,15.5,47l-1.06,2.05-.86,2L13,53l-.27,1.86-.06,1.79.2,1.72.46,1.58.73,1.46,1,1.39,1.26,1.33,1.52,1.12,1.72,1.06,1.92.86.6.2M94.21,55.68l1.33,2.12M76.67,63.49l-.33.93-.27.72m0,0,.6.47.53.4m-13.9,4.5.26-.73.2-.66m0,0L63,68.59l-.53-.47M62.31,65l-3.84,1-3.84.86-3.71.66-3.64.6-3.58.46-3.5.27-3.31.13H33.71l-3.05-.13-2.91-.27-2.65-.46-2.51-.53-2.32-.73-2.05-.86-1.86-1-1.65-1.06-1.39-1.26-1.13-1.32-.86-1.46-.59-1.59-.4-1.65-.13-1.73.2-1.78.39-1.92.67-2,.92-2,1.19-2.06L15,43l1.66-2.11,1.85-2.19,2.12-2.12,2.38-2.18,2.52-2.12,2.71-2.12,2.91-2.12L34.24,26l3.24-2,3.38-1.92,3.51-1.86m0,0,3.5-1.78,3.71-1.73,3.71-1.65,3.77-1.46,3.84-1.45,3.84-1.26,3.84-1.19,3.84-1.06,3.77-1L82,6.89l3.7-.66,3.64-.53,3.51-.4L96.2,5,99.51,5h3.11l3,.2,2.84.27,2.65.46,2.45.59,2.19.73,2,.86,1.79,1,1.58,1.12,1.33,1.26,1.06,1.32.86,1.46.59,1.59.33,1.65.07,1.72-.2,1.86-.4,1.85-.72,2-.93,2L122,28.93l-1.46,2.12-1.65,2.06-1.92,2.18-2.12,2.12-2.32,2.12L110,41.64l-2.72,2.12-2.91,2.06-3,2-3.17,2-3.38,1.92L91.3,53.63m0,0-1.79.92-1.79.93-1.85.86L84,57.13,82.16,58l-1.92.79-1.85.79-1.92.73m0,0,.2,3.18m0,0,2.25-.86,2.25-.86,2.25-1,2.19-.93,2.18-1L90,57.8l2.11-1,2.12-1.12m0,0,3.71-2,3.57-2L105,49.52l3.31-2.18,3.11-2.25,3-2.25,2.78-2.32,2.58-2.25L122.15,36l2.12-2.32,1.91-2.25,1.66-2.31,1.39-2.19,1.19-2.18.93-2.19.66-2.05.33-2.05.13-1.92-.13-1.85-.4-1.72-.66-1.73-1-1.52L129.1,8.22l-1.39-1.33L126,5.7l-1.92-1.06-2.19-1-2.38-.8-2.58-.66-2.78-.53-3-.33L108,1.07,104.67,1l-3.51.07-3.64.19-3.71.4L90,2.13l-4,.66-4,.79-4.1.93L73.82,5.57,69.65,6.76,65.55,8,61.38,9.47,57.27,11l-4,1.65-4,1.79-3.91,1.79-3.84,2m0,0-3.77,2-3.57,2.05L30.6,24.43l-3.31,2.19-3.18,2.25-3,2.25-2.78,2.32-2.58,2.25L13.45,38l-2.18,2.32L9.41,42.64,7.69,44.89,6.3,47.14,5.18,49.32l-.93,2.19-.6,2.05-.39,2-.13,1.92.19,1.86.47,1.72.66,1.65,1,1.59,1.19,1.46,1.46,1.32,1.72,1.19,2,1.06,2.18.93,2.45.79,2.58.66,2.85.47,3,.39,3.18.2,3.38.07L35,72.82l3.64-.26,3.77-.4,3.91-.46,3.9-.73,4.11-.79,4-.93,4.17-1.13m0,0L62.31,65M21.53,80.83l-.47-1.78.2-1.39.8-.86,1.32-.2,1.66.53,1.65,1.19,1.52,1.59,1,1.85m0,0,.39,1.79-.26,1.52-.86.93-1.39.2-1.59-.53-1.59-1.26-1.39-1.66-1-1.92m-2.05,26.22.13.33.86,1.59,1.06,1.52,1.39,1.39,1.52,1.26,1.85,1.19,2.06,1,2.25.93,2.51.73,2.72.59,2.84.47,3.11.33,3.25.2H48.4L52,118.5l3.71-.27,3.77-.39,3.9-.53,4-.73,4-.8,4.11-1,4.17-1.06,4.17-1.19L88,111.22l4.17-1.46,4.1-1.59,4.11-1.65,4-1.79,4-1.85,3.84-1.92m0,0L95.54,57.8m0,0-2.19,1.12L91.1,60.05l-2.25,1.06-2.32,1.06-2.31,1-2.32,1-2.38.93L77.2,66m0,0,2.45,6.35m0,0L80,73.62l.07,1.26-.27,1.32-.46,1.26-.8,1.12-1,.93-1.13.79-1.32.6-1.39.33-1.46.07-1.39-.2-1.32-.47L68.26,80l-1.06-.86-.79-1.06-.6-1.12m0,0L63.3,70.51m0,0-4.17,1.12L55,72.56l-4,.86-4,.66-3.91.6-3.77.39-3.71.27L32,75.47H28.54l-3.24-.2-3.11-.33-2.91-.46-2.72-.6-2.51-.73-2.25-.86L9.68,71.23,7.89,70.11,6.24,68.85,4.91,67.46,3.79,65.94,3,64.35,2.4,62.63l-.33-1.85L2,58.92l.2-2,.46-2.06.73-2.11,1-2.19.73-1.32m60.11-14.1.53,1.26M67,33.37l-.47-1.06m-1,2-.13.07-.2.33V35l.06.13M65,32.91l.59,1.72m.93-2.32-.06-.13-.14-.13-.13-.14-.13-.06-.2-.07h-.33l-.13.07m0,0-.14.13-.13.07-.06.13-.07.13-.07.2v.26l.07.14m-3.91,4.37.53,1.25m1.19-3-.39-1.06m-1,2-.13.13-.2.27v.4m-.2-2.19.6,1.66m.93-2.32-.07-.13-.13-.14L62.11,34,62,34l-.19-.07h-.14l-.2.07-.13.06m0,0-.13.07-.13.13L61,34.3l-.13.2v.39l.06.2M57,39.39l.53,1.26m1.19-3-.4-1.06m-1,2-.13.13L57,39v.39m-13.5,7.82L44,48.53M56.74,37.21l.67,1.65m.92-2.25-.06-.19-.14-.14L58,36.22l-.13-.14h-.53l-.2.07m0,0-.06.07-.14.13-.13.13-.07.13v.6m-3.83,4.3.52,1.33m1.2-3.05-.4-1.06m-1,2-.2.13-.13.33v.33m-.27-2.18L53.3,41m16.88-4.3-.46-1.26M54.23,38.73l-.07-.13L54,38.4l-.13-.07-.13-.06-.2-.07h-.33l-.2.07m16.68-2.85-.07-.13-.2-.13L69.26,35h-.34M53,38.27l-.13.06-.07.14-.13.13-.07.13v.6m14.43-2.91.53,1.32m1.46-2.45-.66-1.66m-1.06,2.06-.14.06-.13.33v.34M48.8,43.7,49.33,45M66.81,34.23l.66,1.66m-16.95,6-.4-1.06M68.4,33.63l-.07-.13-.13-.2-.14-.06-.13-.07-.2-.06H67.4l-.2.06M49.07,42.84l-.14.13-.13.33v.33m-.26-2.18.66,1.72m18-10-.13.07-.06.13-.14.13-.06.13v.14l-.07.2.07.13v.13m-.73,4.63-.47-1.32M50.12,40.85l-.06-.13-.13-.13-.14-.14-.13-.06-.2-.07h-.33l-.2.07m16.62-2.85v-.07l-.2-.19-.2-.07-.33-.07M48.93,40.39l-.13.13-.07.07-.13.13-.06.13V41l-.07.2.07.13v.14M63,38.6l.46,1.26M65,37.41l-.66-1.66m-1.06,2.06-.13.06L63,38.2v.33M44.7,45.82l.46,1.25M62.7,36.35l.66,1.72M46.42,44,46,43m18.27-7.22-.07-.13-.13-.13L64,35.36l-.13-.07-.2-.07H63.3l-.2.07M45,45l-.13.13-.13.27-.07.26.07.14m-.27-2.19.66,1.66m18-10-.13.13-.07.07-.13.13-.07.13v.14l-.06.19.06.14v.13M62,41l-.46-1.32M46,43,46,42.84l-.13-.14-.13-.13-.13-.06-.2-.07h-.2l-.13.07-.2.06m16.61-2.84v-.14l-.19-.2-.2-.06-.33-.07M44.83,42.57l-.13.07-.07.06-.13.14-.07.13v.2l-.06.13.06.13v.2m14.43-2.91L59.33,42m1.52-2.39-.66-1.72m-1.06,2.05-.13.14-.14.26-.06.27.06.13m-.26-2.19.66,1.66m.93-2.32-.07-.13L60,37.61l-.13-.14-.14-.06-.2-.07h-.19l-.14.07-.19.06m0,0-.14.07-.06.13-.14.07-.06.13v.2l-.07.13.07.13v.2m-.73,4.57-.53-1.26m0,0v-.13l-.2-.13-.2-.13h-.33m-1.85,1.39.46,1.25m1.52-2.38-.66-1.65M55,42l-.13.13-.13.27-.07.26.07.14m-.27-2.19.67,1.66m.92-2.25-.06-.2-.14-.13-.13-.14-.13-.06h-.2l-.2-.07-.13.07-.2.06m0,0-.13.07-.13.13-.07.13-.07.14-.06.13v.33l.06.13m-.72,4.57L53.24,44m0,0v-.13L53,43.7l-.2-.14h-.33M50.65,45l.47,1.33m1.52-2.45L52,42.17m-1.06,2.06-.13.06-.14.27-.06.26.06.13m-.26-2.18.66,1.65M52,42.17,51.91,42l-.13-.14-.13-.06-.2-.07-.13-.07H51l-.2.07m0,0-.14.07-.13.13-.06.13-.07.13-.07.14v.33l.07.13m-.73,4.57-.53-1.26m0,0h0l-.2-.26-.2-.07-.33-.07m-1.85,1.46L47,48.4M48.54,46l-.67-1.66m-1,2.05-.14.07-.13.33-.07.27.07.06m-.26-2.18L47,46.61m.92-2.32-.06-.13L47.68,44l-.14-.13-.2-.07-.13-.07h-.39l-.14.07m0,0-.13.13-.13.07-.07.13-.06.13-.07.13v.34l.07.13m109.29,76.92,1.06-1.85M58.07,158.08l2,.67M162,110.56l1.06-1.92m2.31-14.7-9.07-23.3M45.69,154.05l2.05.72M25.1,121.41l9,23.37m113.26-72L148.43,71M31.06,116.38l2.12.66M150.74,56.27,134.06,13.11M122.48,3.85l-2-.67M6.17,47.34,5.11,49.26M2.79,64l16.69,43.1"/></svg>